<svg width="1080" height="1080" xmlns="http://www.w3.org/2000/svg" xml:space="preserve" version="1.1">

 <g>
  <title>Layer 1</title>
  <g id="svg_1">
   <path id="svg_2" d="m735.13999,619.82l0,-277.27l-5.58,0l-133.49,-134.27l0,-5.58l-326.36,0l0,9.59c0,181.53 0,581.39 0,581.39l0,9.59l283.81,0c22.58,43.94 68.27,74.03 120.93,74.03c74.9,0 135.84,-60.95 135.84,-135.84c0.01,-53.19 -30.59,-99.32 -75.15,-121.64zm-32.43,-277.27c-3.49,0 -6.98,0 -10.46,0c-18.22,0 -36.97,0.09 -55.45,-0.09c-22.15,-0.17 -40.37,-18.57 -40.63,-40.89c-0.09,-7.06 -0.09,-14.13 -0.09,-21.19l0,-45.08l106.63,107.25zm-413.9,441.54c0,-60.51 0,-393.93 0,-562.3l288.17,0l0,58.59c0,7.15 -0.09,14.3 0.09,21.45c0.44,32.61 27.12,59.38 59.55,59.73c18.57,0.17 37.49,0.17 55.72,0.09c7.93,0 15.87,0 23.8,0l0,250.41c-13.08,-4.27 -27.12,-6.54 -41.59,-6.54c-13.17,0 -26.16,1.92 -38.63,5.58l-7.76,-23.37l-7.5,0.61c-51.53,4.19 -89.46,52.4 -96.35,96.52l-1.31,8.11l7.85,2.44c0.17,0.09 5.58,1.74 14.21,4.45c-4.27,13.34 -6.45,27.2 -6.45,41.42c0,14.91 2.44,29.3 6.89,42.72l-256.69,0.09zm255.99,-104.19c8.11,-31.65 35.05,-64.78 70.01,-71.5l34.96,104.72c-33.21,-10.81 -85,-27.03 -104.97,-33.22zm129.66,178.22c-64.35,0 -116.75,-52.4 -116.75,-116.75c0,-12.21 1.92,-24.24 5.58,-35.66c28.34,8.89 68.36,21.54 91.55,29.3c1.48,0.52 3.05,0.87 4.88,1.31l19.53,5.06l-37.41,-112.04c10.55,-3.05 21.45,-4.71 32.61,-4.71c64.35,0 116.75,52.4 116.75,116.75s-52.31,116.74 -116.74,116.74z"/>
   <path id="svg_3" d="m415.84999,316.74l-65.92,70.19l-29.47,-20.23c-1.22,-0.87 -2.79,0.78 -1.83,2.01l29.73,38.45c1.57,2.01 4.62,1.92 6.1,-0.09l63.56,-88.5c0.96,-1.48 -1.13,-3.05 -2.17,-1.83z"/>
   <path id="svg_4" d="m308.76999,709.02l85.97,0l0,-85.97l-85.97,0l0,85.97zm19.1,-66.88l47.78,0l0,47.78l-47.78,0l0,-47.78z"/>
   <rect id="svg_5" height="19.09" width="137.59" y="352.84" x="445.13999"/>
   <rect id="svg_6" height="19.09" width="68.79" y="394.87" x="445.13999"/>
   <path id="svg_7" d="m415.84999,462.96l-65.92,70.19l-29.47,-20.23c-1.22,-0.87 -2.79,0.78 -1.83,2.01l29.73,38.45c1.57,2.01 4.62,1.92 6.1,-0.09l63.56,-88.5c0.96,-1.39 -1.13,-3.05 -2.17,-1.83z"/>
   <rect id="svg_8" height="19.09" width="137.59" y="499.15" x="445.13999"/>
   <rect id="svg_9" height="19.09" width="68.79" y="541.18" x="445.13999"/>
   <rect id="svg_10" height="19.09" width="68.79" y="645.46" x="445.13999"/>
   <rect id="svg_11" height="19.09" width="68.79" y="687.48" x="445.13999"/>
  </g>
 </g>
</svg>