<?xml version="1.0" encoding="utf-8"?>
<!-- Generator: Adobe Illustrator 24.3.0, SVG Export Plug-In . SVG Version: 6.00 Build 0)  -->
<svg version="1.1" id="Capa_1" xmlns="http://www.w3.org/2000/svg" xmlns:xlink="http://www.w3.org/1999/xlink" x="0px" y="0px"
	 viewBox="0 0 1080 1080" style="enable-background:new 0 0 1080 1080;" xml:space="preserve">
<style type="text/css">
	.st0{fill:#1E1E1C;}
	.st1{fill:url(#SVGID_1_);}
	.st2{fill:url(#SVGID_2_);}
	.st3{fill:url(#SVGID_3_);}
	.st4{fill:url(#SVGID_4_);}
	.st5{fill:url(#SVGID_5_);}
	.st6{fill:url(#SVGID_6_);}
	.st7{fill:#020203;}
	.st8{fill:url(#SVGID_7_);}
	.st9{fill:url(#SVGID_8_);}
	.st10{fill:url(#SVGID_9_);}
	.st11{fill:url(#SVGID_10_);}
	.st12{fill:url(#SVGID_11_);}
	.st13{fill:url(#SVGID_12_);}
	.st14{fill:url(#SVGID_13_);}
	.st15{fill:url(#SVGID_14_);}
	.st16{fill:url(#SVGID_15_);}
	.st17{fill:url(#SVGID_16_);}
	.st18{fill:url(#SVGID_17_);}
	.st19{fill:url(#SVGID_18_);}
	.st20{fill:url(#SVGID_19_);}
	.st21{fill:url(#SVGID_20_);}
	.st22{fill:url(#SVGID_21_);}
	.st23{fill:url(#SVGID_22_);}
	.st24{fill:url(#SVGID_23_);}
	.st25{fill:url(#SVGID_24_);}
	.st26{fill:url(#SVGID_25_);}
	.st27{fill:url(#SVGID_26_);}
	.st28{fill:url(#SVGID_27_);}
	.st29{fill:url(#SVGID_28_);}
	.st30{fill:url(#SVGID_29_);}
	.st31{fill:url(#SVGID_30_);}
	.st32{fill:url(#SVGID_31_);}
	.st33{fill:url(#SVGID_32_);}
	.st34{fill:url(#SVGID_33_);}
	.st35{fill:url(#SVGID_34_);}
	.st36{fill:url(#SVGID_35_);}
	.st37{fill:url(#SVGID_36_);}
	.st38{fill:url(#SVGID_37_);}
	.st39{fill:url(#SVGID_38_);}
	.st40{fill:url(#SVGID_39_);}
	.st41{fill:url(#SVGID_40_);}
	.st42{fill:url(#SVGID_41_);}
	.st43{fill:url(#SVGID_42_);}
	.st44{fill:url(#SVGID_43_);}
	.st45{fill:url(#SVGID_44_);}
	.st46{fill:url(#SVGID_45_);}
	.st47{fill:url(#SVGID_46_);}
	.st48{fill:url(#SVGID_47_);}
	.st49{fill:url(#SVGID_48_);}
	.st50{fill:url(#SVGID_49_);}
	.st51{fill:url(#SVGID_50_);}
	.st52{fill:url(#SVGID_51_);}
	.st53{fill:url(#SVGID_52_);}
	.st54{fill:url(#SVGID_53_);}
	.st55{fill:url(#SVGID_54_);}
	.st56{fill:url(#SVGID_55_);}
	.st57{fill:url(#SVGID_56_);}
	.st58{fill:url(#SVGID_57_);}
	.st59{fill:url(#SVGID_58_);}
	.st60{fill:url(#SVGID_59_);}
	.st61{fill:url(#SVGID_60_);}
	.st62{fill:url(#SVGID_61_);}
</style>
<g>
	<path d="M728.93,738.07V460.8h-5.58L589.86,326.53v-5.58H263.5v9.59c0,181.53,0,581.39,0,581.39v9.59h283.81
		c22.58,43.94,68.27,74.03,120.93,74.03c74.9,0,135.84-60.95,135.84-135.84C804.09,806.52,773.49,760.39,728.93,738.07z
		 M696.5,460.8c-3.49,0-6.98,0-10.46,0c-18.22,0-36.97,0.09-55.45-0.09c-22.15-0.17-40.37-18.57-40.63-40.89
		c-0.09-7.06-0.09-14.13-0.09-21.19v-45.08L696.5,460.8z M282.6,902.34c0-60.51,0-393.93,0-562.3h288.17v58.59
		c0,7.15-0.09,14.3,0.09,21.45c0.44,32.61,27.12,59.38,59.55,59.73c18.57,0.17,37.49,0.17,55.72,0.09c7.93,0,15.87,0,23.8,0v250.41
		c-13.08-4.27-27.12-6.54-41.59-6.54c-13.17,0-26.16,1.92-38.63,5.58l-7.76-23.37l-7.5,0.61c-51.53,4.19-89.46,52.4-96.35,96.52
		l-1.31,8.11l7.85,2.44c0.17,0.09,5.58,1.74,14.21,4.45c-4.27,13.34-6.45,27.2-6.45,41.42c0,14.91,2.44,29.3,6.89,42.72
		L282.6,902.34z M538.59,798.15c8.11-31.65,35.05-64.78,70.01-71.5l34.96,104.72C610.35,820.56,558.56,804.34,538.59,798.15z
		 M668.25,976.37c-64.35,0-116.75-52.4-116.75-116.75c0-12.21,1.92-24.24,5.58-35.66c28.34,8.89,68.36,21.54,91.55,29.3
		c1.48,0.52,3.05,0.87,4.88,1.31l19.53,5.06l-37.41-112.04c10.55-3.05,21.45-4.71,32.61-4.71c64.35,0,116.75,52.4,116.75,116.75
		S732.68,976.37,668.25,976.37z"/>
	<path d="M409.64,434.99l-65.92,70.19l-29.47-20.23c-1.22-0.87-2.79,0.78-1.83,2.01l29.73,38.45c1.57,2.01,4.62,1.92,6.1-0.09
		l63.56-88.5C412.77,435.34,410.68,433.77,409.64,434.99z"/>
	<path d="M302.56,827.27h85.97V741.3h-85.97V827.27z M321.66,760.39h47.78v47.78h-47.78V760.39z"/>
	<rect x="438.93" y="471.09" width="137.59" height="19.09"/>
	<rect x="438.93" y="513.12" width="68.79" height="19.09"/>
	<path d="M409.64,581.21l-65.92,70.19l-29.47-20.23c-1.22-0.87-2.79,0.78-1.83,2.01l29.73,38.45c1.57,2.01,4.62,1.92,6.1-0.09
		l63.56-88.5C412.77,581.65,410.68,579.99,409.64,581.21z"/>
	<rect x="438.93" y="617.4" width="137.59" height="19.09"/>
	<rect x="438.93" y="659.43" width="68.79" height="19.09"/>
	<rect x="438.93" y="763.71" width="68.79" height="19.09"/>
	<rect x="438.93" y="805.73" width="68.79" height="19.09"/>
</g>
</svg>
