<svg width="1080" height="1080" xmlns="http://www.w3.org/2000/svg" xml:space="preserve" version="1.1">

 <g>
  <title>Layer 1</title>
  <g id="svg_1">
   <path id="svg_2" d="m869.5265,370.33031c7.85,-12.38 5.58,-28.51 -5.49,-38.19l-14.3,-12.64c-2.27,-2.01 -3.57,-4.88 -3.57,-7.93l-0.17,-19.09c-0.09,-14.74 -10.72,-27.03 -25.29,-29.21l-18.92,-2.88c-2.96,-0.44 -5.67,-2.18 -7.32,-4.71l-10.46,-15.96c-8.02,-12.29 -23.63,-16.92 -37.06,-10.9l-17.44,7.85c-2.79,1.22 -5.93,1.22 -8.72,0l-17.44,-7.85c-13.43,-6.02 -29.03,-1.48 -37.06,10.9l-10.46,15.96c-1.66,2.53 -4.36,4.27 -7.32,4.71l-18.92,2.88c-10.03,1.48 -18.05,7.85 -22.23,16.48l-401.53,0l0,455.14l196.7,0l0,61.82l-54.49,57.11l302.03,0l-54.49,-57.11l0,-30.6l-19.09,0l0,38.28l28.95,30.34l-212.76,0l28.95,-30.34l0,-69.49l369.34,0l0,-84.32l-3.75,0l15.87,-29.4l45.95,15.78l-51.88,-135.15c10.03,-2.35 18.4,-9.85 21.62,-20.32l5.49,-18.31c0.87,-2.88 2.96,-5.32 5.67,-6.54l17.26,-8.02c13.34,-6.19 20.05,-21.01 16.04,-35.14l-5.23,-18.4c-0.78,-2.88 -0.35,-6.02 1.22,-8.63l10.3,-16.12zm-97.65,345.54l-546.96,0l0,-416.95l379.46,0l-0.09,12.73c0,3.05 -1.31,5.93 -3.57,7.93l-14.3,12.64c-11.07,9.68 -13.34,25.81 -5.49,38.19l10.2,16.13c1.66,2.53 2.09,5.67 1.22,8.63l-5.23,18.31c-4.01,14.13 2.7,28.95 16.04,35.14l17.26,8.02c2.79,1.31 4.8,3.66 5.67,6.54l5.49,18.31c3.14,10.46 11.51,17.96 21.54,20.32l-51.79,135.15l45.95,-15.78l15.87,29.38l-390.36,0l0,19.1l499.08,0l0.01,46.21l0,0zm-97.92,-214.84l9.07,-1.22c3.05,-0.44 6.02,0.52 8.37,2.44l14.56,12.38c0.26,0.26 0.61,0.44 0.96,0.7l-39.41,102.8l-10.99,-20.23l-22.58,7.76l40.02,-104.63zm1.4,149.53l49.44,-128.78c0.17,0 0.26,0 0.44,0c0.17,0 0.26,0 0.44,0l49.44,128.78l-99.76,0zm118.66,-52.66l-10.99,20.23l-39.41,-102.8c0.26,-0.26 0.61,-0.44 0.96,-0.7l14.56,-12.38c2.27,-2.01 5.32,-2.88 8.37,-2.44l9.07,1.22l40.11,104.63l-22.67,-7.76zm59.38,-237.77l-10.2,16.13c-4.53,7.15 -5.75,15.96 -3.49,24.06l5.23,18.4c1.48,5.06 -0.96,10.38 -5.75,12.56l-17.26,8.02c-7.67,3.57 -13.51,10.29 -15.96,18.4l-5.49,18.31c-1.57,5.06 -6.36,8.2 -11.6,7.5l-18.92,-2.62c-8.37,-1.13 -16.92,1.31 -23.37,6.8l-14.56,12.38c-4.01,3.4 -9.85,3.4 -13.78,0l-14.56,-12.38c-5.41,-4.62 -12.29,-7.15 -19.36,-7.15c-1.31,0 -2.7,0.09 -4.01,0.26l-18.92,2.62c-5.23,0.7 -10.11,-2.44 -11.6,-7.5l-5.49,-18.31c-2.44,-8.11 -8.28,-14.82 -15.96,-18.4l-17.26,-8.02c-4.8,-2.18 -7.15,-7.5 -5.75,-12.56l5.23,-18.31c2.35,-8.11 1.05,-16.92 -3.49,-24.06l-10.2,-16.13c-2.79,-4.45 -2.01,-10.2 1.92,-13.69l14.3,-12.64c6.37,-5.58 10.03,-13.69 10.11,-22.15l0.17,-19.09c0,-5.23 3.84,-9.68 9.07,-10.46l18.92,-2.88c8.37,-1.31 15.78,-6.1 20.4,-13.17l10.46,-15.96c2.88,-4.45 8.46,-6.02 13.25,-3.92l17.44,7.85c7.67,3.49 16.57,3.49 24.33,0l17.44,-7.85c4.8,-2.18 10.38,-0.52 13.25,3.92l10.46,15.96c4.62,7.06 12.03,11.86 20.49,13.17l18.92,2.88c5.23,0.78 8.98,5.14 9.07,10.46l0.17,19.09c0.09,8.46 3.75,16.57 10.11,22.15l14.3,12.64c3.95,3.48 4.73,9.24 1.94,13.69z"/>
   <path id="svg_3" d="m772.7465,327.34031l-64.26,68.45l-28.77,-19.71c-1.22,-0.87 -2.79,0.78 -1.83,1.92l29.03,37.49c1.48,1.92 4.45,1.92 5.93,-0.09l61.99,-86.32c0.96,-1.39 -1.04,-2.96 -2.09,-1.74z"/>
   <path id="svg_4" d="m725.2265,280.34031c-51.7,0 -93.73,42.03 -93.73,93.73s42.03,93.73 93.73,93.73s93.73,-42.03 93.73,-93.73s-42.03,-93.73 -93.73,-93.73zm0,168.28c-41.15,0 -74.64,-33.48 -74.64,-74.64s33.48,-74.64 74.64,-74.64c41.15,0 74.64,33.48 74.64,74.64s-33.49,74.64 -74.64,74.64z"/>
   <path id="svg_5" d="m327.0265,577.76031l171.42,0c4.19,0 7.5,-3.31 7.5,-7.5c0,-4.18 -3.31,-7.5 -7.5,-7.5l-171.42,0c-4.19,0 -7.5,3.31 -7.5,7.5c0,4.18 3.4,7.5 7.5,7.5z"/>
   <path id="svg_6" d="m327.0265,492.83031l171.42,0c4.19,0 7.5,-3.31 7.5,-7.5c0,-4.1 -3.31,-7.5 -7.5,-7.5l-171.42,0c-4.19,0 -7.5,3.31 -7.5,7.5c0,4.19 3.4,7.5 7.5,7.5z"/>
   <path id="svg_7" d="m327.0265,407.91031l171.42,0c4.19,0 7.5,-3.31 7.5,-7.5s-3.31,-7.5 -7.5,-7.5l-171.42,0c-4.19,0 -7.5,3.31 -7.5,7.5s3.4,7.5 7.5,7.5z"/>
  </g>
 </g>
</svg>