<?xml version="1.0" encoding="utf-8"?>
<!-- Generator: Adobe Illustrator 24.3.0, SVG Export Plug-In . SVG Version: 6.00 Build 0)  -->
<svg version="1.1" id="Capa_1" xmlns="http://www.w3.org/2000/svg" xmlns:xlink="http://www.w3.org/1999/xlink" x="0px" y="0px"
	 viewBox="0 0 1080 1080" style="enable-background:new 0 0 1080 1080;" xml:space="preserve">
<style type="text/css">
	.st0{fill:#1E1E1C;}
	.st1{fill:url(#SVGID_1_);}
	.st2{fill:url(#SVGID_2_);}
	.st3{fill:url(#SVGID_3_);}
	.st4{fill:url(#SVGID_4_);}
	.st5{fill:url(#SVGID_5_);}
	.st6{fill:url(#SVGID_6_);}
	.st7{fill:#020203;}
	.st8{fill:url(#SVGID_7_);}
	.st9{fill:url(#SVGID_8_);}
	.st10{fill:url(#SVGID_9_);}
	.st11{fill:url(#SVGID_10_);}
	.st12{fill:url(#SVGID_11_);}
	.st13{fill:url(#SVGID_12_);}
	.st14{fill:url(#SVGID_13_);}
	.st15{fill:url(#SVGID_14_);}
	.st16{fill:url(#SVGID_15_);}
	.st17{fill:url(#SVGID_16_);}
	.st18{fill:url(#SVGID_17_);}
	.st19{fill:url(#SVGID_18_);}
	.st20{fill:url(#SVGID_19_);}
	.st21{fill:url(#SVGID_20_);}
	.st22{fill:url(#SVGID_21_);}
	.st23{fill:url(#SVGID_22_);}
	.st24{fill:url(#SVGID_23_);}
	.st25{fill:url(#SVGID_24_);}
	.st26{fill:url(#SVGID_25_);}
	.st27{fill:url(#SVGID_26_);}
	.st28{fill:url(#SVGID_27_);}
	.st29{fill:url(#SVGID_28_);}
	.st30{fill:url(#SVGID_29_);}
	.st31{fill:url(#SVGID_30_);}
	.st32{fill:url(#SVGID_31_);}
	.st33{fill:url(#SVGID_32_);}
	.st34{fill:url(#SVGID_33_);}
	.st35{fill:url(#SVGID_34_);}
	.st36{fill:url(#SVGID_35_);}
	.st37{fill:url(#SVGID_36_);}
	.st38{fill:url(#SVGID_37_);}
	.st39{fill:url(#SVGID_38_);}
	.st40{fill:url(#SVGID_39_);}
	.st41{fill:url(#SVGID_40_);}
	.st42{fill:url(#SVGID_41_);}
	.st43{fill:url(#SVGID_42_);}
	.st44{fill:url(#SVGID_43_);}
	.st45{fill:url(#SVGID_44_);}
	.st46{fill:url(#SVGID_45_);}
	.st47{fill:url(#SVGID_46_);}
	.st48{fill:url(#SVGID_47_);}
	.st49{fill:url(#SVGID_48_);}
	.st50{fill:url(#SVGID_49_);}
	.st51{fill:url(#SVGID_50_);}
	.st52{fill:url(#SVGID_51_);}
	.st53{fill:url(#SVGID_52_);}
	.st54{fill:url(#SVGID_53_);}
	.st55{fill:url(#SVGID_54_);}
	.st56{fill:url(#SVGID_55_);}
	.st57{fill:url(#SVGID_56_);}
	.st58{fill:url(#SVGID_57_);}
	.st59{fill:url(#SVGID_58_);}
	.st60{fill:url(#SVGID_59_);}
	.st61{fill:url(#SVGID_60_);}
	.st62{fill:url(#SVGID_61_);}
</style>
<g>
	<g>
		<path class="st7" d="M921.87,464.51c7.85-12.38,5.58-28.51-5.49-38.19l-14.3-12.64c-2.27-2.01-3.57-4.88-3.57-7.93l-0.17-19.09
			c-0.09-14.74-10.72-26.94-25.29-29.21l-18.92-2.88c-2.96-0.44-5.67-2.18-7.32-4.71l-10.46-15.96
			c-8.02-12.29-23.63-16.92-37.06-10.9l-17.44,7.76c-2.79,1.22-5.93,1.22-8.72,0L755.68,323c-13.43-6.02-29.03-1.48-37.06,10.9
			l-10.46,15.96c-1.66,2.53-4.36,4.27-7.32,4.71l-18.92,2.88c-10.03,1.48-18.05,7.85-22.23,16.48H258.17v455.14h196.7v61.82
			l-54.49,57.11h302.03l-54.49-57.11v-30.6h-19.09v38.28l28.95,30.34H445.02l28.95-30.34v-69.49h369.34v-84.4h-3.75l15.87-29.38
			l45.95,15.78L849.5,595.91c10.03-2.35,18.4-9.85,21.62-20.32l5.49-18.31c0.87-2.88,2.96-5.32,5.67-6.54l17.26-8.02
			c13.34-6.19,20.05-21.01,16.04-35.14l-5.23-18.4c-0.78-2.88-0.35-6.02,1.22-8.63L921.87,464.51z M824.22,809.97H277.26V393.02
			h379.46l-0.09,12.73c0,3.05-1.31,5.93-3.57,7.93l-14.3,12.64c-11.07,9.68-13.34,25.81-5.49,38.19l10.2,16.13
			c1.66,2.53,2.09,5.67,1.22,8.63l-5.23,18.4c-4.01,14.12,2.7,28.95,16.04,35.14l17.26,8.02c2.79,1.31,4.8,3.66,5.67,6.54
			l5.49,18.31c3.14,10.46,11.51,17.96,21.54,20.32l-51.88,135.15l45.95-15.78l15.87,29.38H325.13v19.09h499.08V809.97z
			 M726.3,595.21l9.07-1.22c3.05-0.44,6.02,0.52,8.37,2.44l14.56,12.38c0.26,0.26,0.61,0.44,0.87,0.7l-39.41,102.8l-10.9-20.23
			l-22.58,7.76L726.3,595.21z M727.7,744.75l49.44-128.78c0.17,0,0.26,0,0.44,0c0.17,0,0.26,0,0.44,0l49.44,128.78H727.7z
			 M846.36,692l-10.99,20.23l-39.41-102.8c0.26-0.26,0.61-0.44,0.96-0.7l14.56-12.38c2.27-2.01,5.32-2.88,8.37-2.44l9.07,1.22
			l40.11,104.54L846.36,692z M905.74,454.31l-10.2,16.13c-4.53,7.15-5.75,15.96-3.49,24.06l5.23,18.4
			c1.48,5.06-0.96,10.38-5.75,12.56l-17.26,8.02c-7.67,3.57-13.51,10.29-15.96,18.4l-5.49,18.31c-1.57,5.06-6.36,8.2-11.6,7.5
			l-18.92-2.62c-8.37-1.13-16.92,1.4-23.37,6.89l-14.56,12.38c-4.01,3.4-9.85,3.4-13.78,0l-14.56-12.38
			c-5.41-4.62-12.29-7.15-19.36-7.15c-1.31,0-2.7,0.09-4.01,0.26l-18.92,2.62c-5.23,0.7-10.11-2.44-11.6-7.5l-5.49-18.31
			c-2.44-8.11-8.28-14.82-15.96-18.4l-17.26-8.02c-4.8-2.27-7.15-7.5-5.75-12.56l5.23-18.4c2.35-8.11,1.05-16.92-3.49-24.06
			l-10.2-16.13c-2.79-4.45-2.01-10.2,1.92-13.69l14.3-12.64c6.37-5.58,10.03-13.69,10.11-22.15l0.17-19.09
			c0-5.23,3.84-9.68,9.07-10.46l18.92-2.88c8.37-1.22,15.78-6.02,20.4-13.17l10.46-15.96c2.88-4.45,8.46-6.02,13.25-3.92l17.44,7.76
			c7.67,3.49,16.57,3.49,24.33,0l17.44-7.76c4.8-2.18,10.38-0.52,13.25,3.92l10.46,15.96c4.62,7.06,12.03,11.86,20.49,13.17
			l18.92,2.88c5.23,0.78,8.98,5.14,9.07,10.46l0.17,19.09c0.09,8.46,3.75,16.48,10.11,22.15l14.3,12.56
			C907.75,444.11,908.53,449.86,905.74,454.31z"/>
		<path class="st7" d="M825.09,421.53l-64.26,68.45l-28.77-19.71c-1.22-0.87-2.79,0.78-1.83,1.92l29.03,37.49
			c1.48,1.92,4.45,1.92,5.93-0.09l61.99-86.41C828.14,421.88,826.13,420.31,825.09,421.53z"/>
		<path class="st7" d="M777.57,374.44c-51.7,0-93.73,42.03-93.73,93.73s42.03,93.73,93.73,93.73s93.73-42.03,93.73-93.73
			S829.19,374.44,777.57,374.44z M777.57,542.81c-41.15,0-74.64-33.48-74.64-74.64s33.48-74.64,74.64-74.64
			c41.15,0,74.64,33.48,74.64,74.64S818.72,542.81,777.57,542.81z"/>
		<path class="st7" d="M379.36,671.94h171.42c4.19,0,7.5-3.31,7.5-7.5c0-4.19-3.31-7.5-7.5-7.5H379.36c-4.19,0-7.5,3.31-7.5,7.5
			C371.87,668.63,375.27,671.94,379.36,671.94z"/>
		<path class="st7" d="M379.36,587.02h171.42c4.19,0,7.5-3.31,7.5-7.5s-3.31-7.5-7.5-7.5H379.36c-4.19,0-7.5,3.31-7.5,7.5
			S375.27,587.02,379.36,587.02z"/>
		<path class="st7" d="M379.36,502.09h171.42c4.19,0,7.5-3.31,7.5-7.5s-3.31-7.5-7.5-7.5H379.36c-4.19,0-7.5,3.31-7.5,7.5
			S375.27,502.09,379.36,502.09z"/>
	</g>
	<g>
		
			<linearGradient id="SVGID_1_" gradientUnits="userSpaceOnUse" x1="-878.728" y1="-7950.6196" x2="-112.1999" y2="-7950.6196" gradientTransform="matrix(0.8719 0 0 0.8719 1024.3455 7566.4473)">
			<stop  offset="0" style="stop-color:#304F9E"/>
			<stop  offset="0.514" style="stop-color:#6A4293"/>
			<stop  offset="1" style="stop-color:#5AC3E7"/>
		</linearGradient>
		<path class="st1" d="M921.87,464.51c7.85-12.38,5.58-28.51-5.49-38.19l-14.3-12.64c-2.27-2.01-3.57-4.88-3.57-7.93l-0.17-19.09
			c-0.09-14.74-10.72-26.94-25.29-29.21l-18.92-2.88c-2.96-0.44-5.67-2.18-7.32-4.71l-10.46-15.96
			c-8.02-12.29-23.63-16.92-37.06-10.9l-17.44,7.76c-2.79,1.22-5.93,1.22-8.72,0L755.68,323c-13.43-6.02-29.03-1.48-37.06,10.9
			l-10.46,15.96c-1.66,2.53-4.36,4.27-7.32,4.71l-18.92,2.88c-10.03,1.48-18.05,7.85-22.23,16.48H258.17v455.14h196.7v61.82
			l-54.49,57.11h302.03l-54.49-57.11v-30.6h-19.09v38.28l28.95,30.34H445.02l28.95-30.34v-69.49h369.34v-84.4h-3.75l15.87-29.38
			l45.95,15.78L849.5,595.91c10.03-2.35,18.4-9.85,21.62-20.32l5.49-18.31c0.87-2.88,2.96-5.32,5.67-6.54l17.26-8.02
			c13.34-6.19,20.05-21.01,16.04-35.14l-5.23-18.4c-0.78-2.88-0.35-6.02,1.22-8.63L921.87,464.51z M824.22,809.97H277.26V393.02
			h379.46l-0.09,12.73c0,3.05-1.31,5.93-3.57,7.93l-14.3,12.64c-11.07,9.68-13.34,25.81-5.49,38.19l10.2,16.13
			c1.66,2.53,2.09,5.67,1.22,8.63l-5.23,18.4c-4.01,14.12,2.7,28.95,16.04,35.14l17.26,8.02c2.79,1.31,4.8,3.66,5.67,6.54
			l5.49,18.31c3.14,10.46,11.51,17.96,21.54,20.32l-51.88,135.15l45.95-15.78l15.87,29.38H325.13v19.09h499.08V809.97z
			 M726.3,595.21l9.07-1.22c3.05-0.44,6.02,0.52,8.37,2.44l14.56,12.38c0.26,0.26,0.61,0.44,0.87,0.7l-39.41,102.8l-10.9-20.23
			l-22.58,7.76L726.3,595.21z M727.7,744.75l49.44-128.78c0.17,0,0.26,0,0.44,0c0.17,0,0.26,0,0.44,0l49.44,128.78H727.7z
			 M846.36,692l-10.99,20.23l-39.41-102.8c0.26-0.26,0.61-0.44,0.96-0.7l14.56-12.38c2.27-2.01,5.32-2.88,8.37-2.44l9.07,1.22
			l40.11,104.54L846.36,692z M905.74,454.31l-10.2,16.13c-4.53,7.15-5.75,15.96-3.49,24.06l5.23,18.4
			c1.48,5.06-0.96,10.38-5.75,12.56l-17.26,8.02c-7.67,3.57-13.51,10.29-15.96,18.4l-5.49,18.31c-1.57,5.06-6.36,8.2-11.6,7.5
			l-18.92-2.62c-8.37-1.13-16.92,1.4-23.37,6.89l-14.56,12.38c-4.01,3.4-9.85,3.4-13.78,0l-14.56-12.38
			c-5.41-4.62-12.29-7.15-19.36-7.15c-1.31,0-2.7,0.09-4.01,0.26l-18.92,2.62c-5.23,0.7-10.11-2.44-11.6-7.5l-5.49-18.31
			c-2.44-8.11-8.28-14.82-15.96-18.4l-17.26-8.02c-4.8-2.27-7.15-7.5-5.75-12.56l5.23-18.4c2.35-8.11,1.05-16.92-3.49-24.06
			l-10.2-16.13c-2.79-4.45-2.01-10.2,1.92-13.69l14.3-12.64c6.37-5.58,10.03-13.69,10.11-22.15l0.17-19.09
			c0-5.23,3.84-9.68,9.07-10.46l18.92-2.88c8.37-1.22,15.78-6.02,20.4-13.17l10.46-15.96c2.88-4.45,8.46-6.02,13.25-3.92l17.44,7.76
			c7.67,3.49,16.57,3.49,24.33,0l17.44-7.76c4.8-2.18,10.38-0.52,13.25,3.92l10.46,15.96c4.62,7.06,12.03,11.86,20.49,13.17
			l18.92,2.88c5.23,0.78,8.98,5.14,9.07,10.46l0.17,19.09c0.09,8.46,3.75,16.48,10.11,22.15l14.3,12.56
			C907.75,444.11,908.53,449.86,905.74,454.31z"/>
		
			<linearGradient id="SVGID_2_" gradientUnits="userSpaceOnUse" x1="-878.7" y1="-8143.3892" x2="-112.2049" y2="-8143.3892" gradientTransform="matrix(0.8719 0 0 0.8719 1024.3455 7566.4473)">
			<stop  offset="0" style="stop-color:#304F9E"/>
			<stop  offset="0.514" style="stop-color:#6A4293"/>
			<stop  offset="1" style="stop-color:#5AC3E7"/>
		</linearGradient>
		<path class="st2" d="M825.09,421.53l-64.26,68.45l-28.77-19.71c-1.22-0.87-2.79,0.78-1.83,1.92l29.03,37.49
			c1.48,1.92,4.45,1.92,5.93-0.09l61.99-86.41C828.14,421.88,826.13,420.31,825.09,421.53z"/>
		
			<linearGradient id="SVGID_3_" gradientUnits="userSpaceOnUse" x1="-878.7" y1="-8141.0059" x2="-112.2049" y2="-8141.0059" gradientTransform="matrix(0.8719 0 0 0.8719 1024.3455 7566.4473)">
			<stop  offset="0" style="stop-color:#304F9E"/>
			<stop  offset="0.514" style="stop-color:#6A4293"/>
			<stop  offset="1" style="stop-color:#5AC3E7"/>
		</linearGradient>
		<path class="st3" d="M777.57,374.44c-51.7,0-93.73,42.03-93.73,93.73s42.03,93.73,93.73,93.73s93.73-42.03,93.73-93.73
			S829.19,374.44,777.57,374.44z M777.57,542.81c-41.15,0-74.64-33.48-74.64-74.64s33.48-74.64,74.64-74.64
			c41.15,0,74.64,33.48,74.64,74.64S818.72,542.81,777.57,542.81z"/>
		
			<linearGradient id="SVGID_4_" gradientUnits="userSpaceOnUse" x1="-878.7" y1="-7915.9058" x2="-112.2049" y2="-7915.9058" gradientTransform="matrix(0.8719 0 0 0.8719 1024.3455 7566.4473)">
			<stop  offset="0" style="stop-color:#304F9E"/>
			<stop  offset="0.514" style="stop-color:#6A4293"/>
			<stop  offset="1" style="stop-color:#5AC3E7"/>
		</linearGradient>
		<path class="st4" d="M379.36,671.94h171.42c4.19,0,7.5-3.31,7.5-7.5c0-4.19-3.31-7.5-7.5-7.5H379.36c-4.19,0-7.5,3.31-7.5,7.5
			C371.87,668.63,375.27,671.94,379.36,671.94z"/>
		
			<linearGradient id="SVGID_5_" gradientUnits="userSpaceOnUse" x1="-878.7" y1="-8013.3057" x2="-112.2049" y2="-8013.3057" gradientTransform="matrix(0.8719 0 0 0.8719 1024.3455 7566.4473)">
			<stop  offset="0" style="stop-color:#304F9E"/>
			<stop  offset="0.514" style="stop-color:#6A4293"/>
			<stop  offset="1" style="stop-color:#5AC3E7"/>
		</linearGradient>
		<path class="st5" d="M379.36,587.02h171.42c4.19,0,7.5-3.31,7.5-7.5s-3.31-7.5-7.5-7.5H379.36c-4.19,0-7.5,3.31-7.5,7.5
			S375.27,587.02,379.36,587.02z"/>
		
			<linearGradient id="SVGID_6_" gradientUnits="userSpaceOnUse" x1="-878.7" y1="-8110.7061" x2="-112.2049" y2="-8110.7061" gradientTransform="matrix(0.8719 0 0 0.8719 1024.3455 7566.4473)">
			<stop  offset="0" style="stop-color:#304F9E"/>
			<stop  offset="0.514" style="stop-color:#6A4293"/>
			<stop  offset="1" style="stop-color:#5AC3E7"/>
		</linearGradient>
		<path class="st6" d="M379.36,502.09h171.42c4.19,0,7.5-3.31,7.5-7.5s-3.31-7.5-7.5-7.5H379.36c-4.19,0-7.5,3.31-7.5,7.5
			S375.27,502.09,379.36,502.09z"/>
	</g>
</g>
</svg>
