<?xml version="1.0" encoding="utf-8"?>
<!-- Generator: Adobe Illustrator 24.3.0, SVG Export Plug-In . SVG Version: 6.00 Build 0)  -->
<svg version="1.1" id="Capa_1" xmlns="http://www.w3.org/2000/svg" xmlns:xlink="http://www.w3.org/1999/xlink" x="0px" y="0px"
	 viewBox="0 0 1080 1080" style="enable-background:new 0 0 1080 1080;" xml:space="preserve">
<style type="text/css">
	.st0{fill:#1E1E1C;}
	.st1{fill:url(#SVGID_1_);}
	.st2{fill:url(#SVGID_2_);}
	.st3{fill:url(#SVGID_3_);}
	.st4{fill:url(#SVGID_4_);}
	.st5{fill:url(#SVGID_5_);}
	.st6{fill:url(#SVGID_6_);}
	.st7{fill:#020203;}
	.st8{fill:url(#SVGID_7_);}
	.st9{fill:url(#SVGID_8_);}
	.st10{fill:url(#SVGID_9_);}
	.st11{fill:url(#SVGID_10_);}
	.st12{fill:url(#SVGID_11_);}
	.st13{fill:url(#SVGID_12_);}
	.st14{fill:url(#SVGID_13_);}
	.st15{fill:url(#SVGID_14_);}
	.st16{fill:url(#SVGID_15_);}
	.st17{fill:url(#SVGID_16_);}
	.st18{fill:url(#SVGID_17_);}
	.st19{fill:url(#SVGID_18_);}
	.st20{fill:url(#SVGID_19_);}
	.st21{fill:url(#SVGID_20_);}
	.st22{fill:url(#SVGID_21_);}
	.st23{fill:url(#SVGID_22_);}
	.st24{fill:url(#SVGID_23_);}
	.st25{fill:url(#SVGID_24_);}
	.st26{fill:url(#SVGID_25_);}
	.st27{fill:url(#SVGID_26_);}
	.st28{fill:url(#SVGID_27_);}
	.st29{fill:url(#SVGID_28_);}
	.st30{fill:url(#SVGID_29_);}
	.st31{fill:url(#SVGID_30_);}
	.st32{fill:url(#SVGID_31_);}
	.st33{fill:url(#SVGID_32_);}
	.st34{fill:url(#SVGID_33_);}
	.st35{fill:url(#SVGID_34_);}
	.st36{fill:url(#SVGID_35_);}
	.st37{fill:url(#SVGID_36_);}
	.st38{fill:url(#SVGID_37_);}
	.st39{fill:url(#SVGID_38_);}
	.st40{fill:url(#SVGID_39_);}
	.st41{fill:url(#SVGID_40_);}
	.st42{fill:url(#SVGID_41_);}
	.st43{fill:url(#SVGID_42_);}
	.st44{fill:url(#SVGID_43_);}
	.st45{fill:url(#SVGID_44_);}
	.st46{fill:url(#SVGID_45_);}
	.st47{fill:url(#SVGID_46_);}
	.st48{fill:url(#SVGID_47_);}
	.st49{fill:url(#SVGID_48_);}
	.st50{fill:url(#SVGID_49_);}
	.st51{fill:url(#SVGID_50_);}
	.st52{fill:url(#SVGID_51_);}
	.st53{fill:url(#SVGID_52_);}
	.st54{fill:url(#SVGID_53_);}
	.st55{fill:url(#SVGID_54_);}
	.st56{fill:url(#SVGID_55_);}
	.st57{fill:url(#SVGID_56_);}
	.st58{fill:url(#SVGID_57_);}
	.st59{fill:url(#SVGID_58_);}
	.st60{fill:url(#SVGID_59_);}
	.st61{fill:url(#SVGID_60_);}
	.st62{fill:url(#SVGID_61_);}
</style>
<g>
	<g>
		<path class="st0" d="M842.21,651.53V374.17h-5.58L703.14,239.89v-5.58H376.78v9.5c0,181.53,0,581.39,0,581.39v9.5h283.81
			c22.58,43.94,68.27,74.03,120.93,74.03c74.9,0,135.84-60.95,135.84-135.84C917.37,719.88,886.76,673.85,842.21,651.53z
			 M809.77,374.26c-3.49,0-6.98,0-10.46,0c-18.22,0.09-36.97,0.09-55.45-0.09c-22.15-0.17-40.37-18.57-40.63-40.89
			c-0.09-7.06-0.09-14.12-0.09-21.19v-45.08L809.77,374.26z M395.87,815.8c0-60.51,0-393.93,0-562.3h288.17v58.59
			c0,7.15-0.09,14.3,0.09,21.45c0.44,32.61,27.12,59.46,59.55,59.73c18.57,0.17,37.49,0.17,55.72,0.09c7.93,0,15.87,0,23.8,0v250.41
			c-13.08-4.27-27.12-6.54-41.59-6.54c-13.17,0-26.16,1.92-38.63,5.58l-7.76-23.37l-7.5,0.61c-51.53,4.19-89.46,52.4-96.35,96.52
			l-1.31,8.11l7.85,2.44c0.17,0.09,5.58,1.74,14.21,4.45c-4.27,13.34-6.45,27.2-6.45,41.42c0,14.91,2.44,29.3,6.89,42.72
			L395.87,815.8z M651.87,711.51c8.11-31.65,35.05-64.78,70.01-71.41l34.96,104.72C723.63,734.01,671.83,717.79,651.87,711.51z
			 M781.52,889.82c-64.35,0-116.75-52.4-116.75-116.75c0-12.21,1.92-24.24,5.58-35.66c28.34,8.89,68.36,21.54,91.55,29.3
			c1.48,0.52,3.05,0.87,4.88,1.31l19.53,5.06l-37.41-112.04c10.55-3.05,21.45-4.71,32.61-4.71c64.35,0,116.75,52.4,116.75,116.75
			C898.27,837.42,845.96,889.82,781.52,889.82z"/>
		<path class="st0" d="M522.91,348.36l-65.92,70.19l-29.47-20.23c-1.22-0.87-2.79,0.78-1.83,2.01l29.73,38.45
			c1.57,2.01,4.62,1.92,6.1-0.09l63.56-88.5C526.05,348.8,523.96,347.14,522.91,348.36z"/>
		<path class="st0" d="M415.84,740.72h85.97v-85.97h-85.97V740.72z M434.93,673.76h47.78v47.78h-47.78V673.76z"/>
		<rect x="552.21" y="384.55" class="st0" width="137.59" height="19.09"/>
		<rect x="552.21" y="426.57" class="st0" width="68.79" height="19.09"/>
		<path class="st0" d="M522.91,494.67l-65.92,70.19l-29.47-20.23c-1.22-0.87-2.79,0.78-1.83,2.01l29.73,38.45
			c1.57,2.01,4.62,1.92,6.1-0.09l63.56-88.5C526.05,495.02,523.96,493.45,522.91,494.67z"/>
		<rect x="552.21" y="530.85" class="st0" width="137.59" height="19.09"/>
		<rect x="552.21" y="572.88" class="st0" width="68.79" height="19.09"/>
		<rect x="552.21" y="677.07" class="st0" width="68.79" height="19.09"/>
		<rect x="552.21" y="719.1" class="st0" width="68.79" height="19.09"/>
	</g>
	<g>
		
			<linearGradient id="SVGID_1_" gradientUnits="userSpaceOnUse" x1="-1227.464" y1="-8022.4697" x2="-607.464" y2="-8022.4697" gradientTransform="matrix(0.8719 0 0 0.8719 1447.0227 7566.4473)">
			<stop  offset="0" style="stop-color:#304F9E"/>
			<stop  offset="0.514" style="stop-color:#6A4293"/>
			<stop  offset="1" style="stop-color:#5AC3E7"/>
		</linearGradient>
		<path class="st1" d="M842.21,651.53V374.17h-5.58L703.14,239.89v-5.58H376.78v9.5c0,181.53,0,581.39,0,581.39v9.5h283.81
			c22.58,43.94,68.27,74.03,120.93,74.03c74.9,0,135.84-60.95,135.84-135.84C917.37,719.88,886.76,673.85,842.21,651.53z
			 M809.77,374.26c-3.49,0-6.98,0-10.46,0c-18.22,0.09-36.97,0.09-55.45-0.09c-22.15-0.17-40.37-18.57-40.63-40.89
			c-0.09-7.06-0.09-14.12-0.09-21.19v-45.08L809.77,374.26z M395.87,815.8c0-60.51,0-393.93,0-562.3h288.17v58.59
			c0,7.15-0.09,14.3,0.09,21.45c0.44,32.61,27.12,59.46,59.55,59.73c18.57,0.17,37.49,0.17,55.72,0.09c7.93,0,15.87,0,23.8,0v250.41
			c-13.08-4.27-27.12-6.54-41.59-6.54c-13.17,0-26.16,1.92-38.63,5.58l-7.76-23.37l-7.5,0.61c-51.53,4.19-89.46,52.4-96.35,96.52
			l-1.31,8.11l7.85,2.44c0.17,0.09,5.58,1.74,14.21,4.45c-4.27,13.34-6.45,27.2-6.45,41.42c0,14.91,2.44,29.3,6.89,42.72
			L395.87,815.8z M651.87,711.51c8.11-31.65,35.05-64.78,70.01-71.41l34.96,104.72C723.63,734.01,671.83,717.79,651.87,711.51z
			 M781.52,889.82c-64.35,0-116.75-52.4-116.75-116.75c0-12.21,1.92-24.24,5.58-35.66c28.34,8.89,68.36,21.54,91.55,29.3
			c1.48,0.52,3.05,0.87,4.88,1.31l19.53,5.06l-37.41-112.04c10.55-3.05,21.45-4.71,32.61-4.71c64.35,0,116.75,52.4,116.75,116.75
			C898.27,837.42,845.96,889.82,781.52,889.82z"/>
		
			<linearGradient id="SVGID_2_" gradientUnits="userSpaceOnUse" x1="-1227.4445" y1="-8225.9756" x2="-607.4254" y2="-8225.9756" gradientTransform="matrix(0.8719 0 0 0.8719 1447.0227 7566.4473)">
			<stop  offset="0" style="stop-color:#304F9E"/>
			<stop  offset="0.514" style="stop-color:#6A4293"/>
			<stop  offset="1" style="stop-color:#5AC3E7"/>
		</linearGradient>
		<path class="st2" d="M522.91,348.36l-65.92,70.19l-29.47-20.23c-1.22-0.87-2.79,0.78-1.83,2.01l29.73,38.45
			c1.57,2.01,4.62,1.92,6.1-0.09l63.56-88.5C526.05,348.8,523.96,347.14,522.91,348.36z"/>
		
			<linearGradient id="SVGID_3_" gradientUnits="userSpaceOnUse" x1="-1227.4445" y1="-7877.7192" x2="-607.4254" y2="-7877.7192" gradientTransform="matrix(0.8719 0 0 0.8719 1447.0227 7566.4473)">
			<stop  offset="0" style="stop-color:#304F9E"/>
			<stop  offset="0.514" style="stop-color:#6A4293"/>
			<stop  offset="1" style="stop-color:#5AC3E7"/>
		</linearGradient>
		<path class="st3" d="M415.84,740.72h85.97v-85.97h-85.97V740.72z M434.93,673.76h47.78v47.78h-47.78V673.76z"/>
		
			<linearGradient id="SVGID_4_" gradientUnits="userSpaceOnUse" x1="-1227.4445" y1="-8225.9697" x2="-607.4254" y2="-8225.9697" gradientTransform="matrix(0.8719 0 0 0.8719 1447.0227 7566.4473)">
			<stop  offset="0" style="stop-color:#304F9E"/>
			<stop  offset="0.514" style="stop-color:#6A4293"/>
			<stop  offset="1" style="stop-color:#5AC3E7"/>
		</linearGradient>
		<rect x="552.21" y="384.55" class="st4" width="137.59" height="19.09"/>
		
			<linearGradient id="SVGID_5_" gradientUnits="userSpaceOnUse" x1="-1227.4445" y1="-8177.7695" x2="-607.4254" y2="-8177.7695" gradientTransform="matrix(0.8719 0 0 0.8719 1447.0227 7566.4473)">
			<stop  offset="0" style="stop-color:#304F9E"/>
			<stop  offset="0.514" style="stop-color:#6A4293"/>
			<stop  offset="1" style="stop-color:#5AC3E7"/>
		</linearGradient>
		<rect x="552.21" y="426.57" class="st5" width="68.79" height="19.09"/>
		
			<linearGradient id="SVGID_6_" gradientUnits="userSpaceOnUse" x1="-1227.4445" y1="-8058.1821" x2="-607.4254" y2="-8058.1821" gradientTransform="matrix(0.8719 0 0 0.8719 1447.0227 7566.4473)">
			<stop  offset="0" style="stop-color:#304F9E"/>
			<stop  offset="0.514" style="stop-color:#6A4293"/>
			<stop  offset="1" style="stop-color:#5AC3E7"/>
		</linearGradient>
		<path class="st6" d="M522.91,494.67l-65.92,70.19l-29.47-20.23c-1.22-0.87-2.79,0.78-1.83,2.01l29.73,38.45
			c1.57,2.01,4.62,1.92,6.1-0.09l63.56-88.5C526.05,495.02,523.96,493.45,522.91,494.67z"/>
		
			<linearGradient id="SVGID_7_" gradientUnits="userSpaceOnUse" x1="-1227.4445" y1="-8058.1694" x2="-607.4254" y2="-8058.1694" gradientTransform="matrix(0.8719 0 0 0.8719 1447.0227 7566.4473)">
			<stop  offset="0" style="stop-color:#304F9E"/>
			<stop  offset="0.514" style="stop-color:#6A4293"/>
			<stop  offset="1" style="stop-color:#5AC3E7"/>
		</linearGradient>
		<rect x="552.21" y="530.85" class="st8" width="137.59" height="19.09"/>
		
			<linearGradient id="SVGID_8_" gradientUnits="userSpaceOnUse" x1="-1227.4445" y1="-8009.9692" x2="-607.4254" y2="-8009.9692" gradientTransform="matrix(0.8719 0 0 0.8719 1447.0227 7566.4473)">
			<stop  offset="0" style="stop-color:#304F9E"/>
			<stop  offset="0.514" style="stop-color:#6A4293"/>
			<stop  offset="1" style="stop-color:#5AC3E7"/>
		</linearGradient>
		<rect x="552.21" y="572.88" class="st9" width="68.79" height="19.09"/>
		
			<linearGradient id="SVGID_9_" gradientUnits="userSpaceOnUse" x1="-1227.4445" y1="-7890.4692" x2="-607.4254" y2="-7890.4692" gradientTransform="matrix(0.8719 0 0 0.8719 1447.0227 7566.4473)">
			<stop  offset="0" style="stop-color:#304F9E"/>
			<stop  offset="0.514" style="stop-color:#6A4293"/>
			<stop  offset="1" style="stop-color:#5AC3E7"/>
		</linearGradient>
		<rect x="552.21" y="677.07" class="st10" width="68.79" height="19.09"/>
		
			<linearGradient id="SVGID_10_" gradientUnits="userSpaceOnUse" x1="-1227.4445" y1="-7842.2695" x2="-607.4254" y2="-7842.2695" gradientTransform="matrix(0.8719 0 0 0.8719 1447.0227 7566.4473)">
			<stop  offset="0" style="stop-color:#304F9E"/>
			<stop  offset="0.514" style="stop-color:#6A4293"/>
			<stop  offset="1" style="stop-color:#5AC3E7"/>
		</linearGradient>
		<rect x="552.21" y="719.1" class="st11" width="68.79" height="19.09"/>
	</g>
</g>
</svg>
