<?xml version="1.0" encoding="utf-8"?>
<!-- Generator: Adobe Illustrator 24.3.0, SVG Export Plug-In . SVG Version: 6.00 Build 0)  -->
<svg version="1.1" id="Capa_1" xmlns="http://www.w3.org/2000/svg" xmlns:xlink="http://www.w3.org/1999/xlink" x="0px" y="0px"
	 viewBox="0 0 1080 1080" style="enable-background:new 0 0 1080 1080;" xml:space="preserve">
<style type="text/css">
	.st0{fill:#1E1E1C;}
	.st1{fill:url(#SVGID_1_);}
	.st2{fill:url(#SVGID_2_);}
	.st3{fill:url(#SVGID_3_);}
	.st4{fill:url(#SVGID_4_);}
	.st5{fill:url(#SVGID_5_);}
	.st6{fill:url(#SVGID_6_);}
	.st7{fill:#020203;}
	.st8{fill:url(#SVGID_7_);}
	.st9{fill:url(#SVGID_8_);}
	.st10{fill:url(#SVGID_9_);}
	.st11{fill:url(#SVGID_10_);}
	.st12{fill:url(#SVGID_11_);}
	.st13{fill:url(#SVGID_12_);}
	.st14{fill:url(#SVGID_13_);}
	.st15{fill:url(#SVGID_14_);}
	.st16{fill:url(#SVGID_15_);}
	.st17{fill:url(#SVGID_16_);}
	.st18{fill:url(#SVGID_17_);}
	.st19{fill:url(#SVGID_18_);}
	.st20{fill:url(#SVGID_19_);}
	.st21{fill:url(#SVGID_20_);}
	.st22{fill:url(#SVGID_21_);}
	.st23{fill:url(#SVGID_22_);}
	.st24{fill:url(#SVGID_23_);}
	.st25{fill:url(#SVGID_24_);}
	.st26{fill:url(#SVGID_25_);}
	.st27{fill:url(#SVGID_26_);}
	.st28{fill:url(#SVGID_27_);}
	.st29{fill:url(#SVGID_28_);}
	.st30{fill:url(#SVGID_29_);}
	.st31{fill:url(#SVGID_30_);}
	.st32{fill:url(#SVGID_31_);}
	.st33{fill:url(#SVGID_32_);}
	.st34{fill:url(#SVGID_33_);}
	.st35{fill:url(#SVGID_34_);}
	.st36{fill:url(#SVGID_35_);}
	.st37{fill:url(#SVGID_36_);}
	.st38{fill:url(#SVGID_37_);}
	.st39{fill:url(#SVGID_38_);}
	.st40{fill:url(#SVGID_39_);}
	.st41{fill:url(#SVGID_40_);}
	.st42{fill:url(#SVGID_41_);}
	.st43{fill:url(#SVGID_42_);}
	.st44{fill:url(#SVGID_43_);}
	.st45{fill:url(#SVGID_44_);}
	.st46{fill:url(#SVGID_45_);}
	.st47{fill:url(#SVGID_46_);}
	.st48{fill:url(#SVGID_47_);}
	.st49{fill:url(#SVGID_48_);}
	.st50{fill:url(#SVGID_49_);}
	.st51{fill:url(#SVGID_50_);}
	.st52{fill:url(#SVGID_51_);}
	.st53{fill:url(#SVGID_52_);}
	.st54{fill:url(#SVGID_53_);}
	.st55{fill:url(#SVGID_54_);}
	.st56{fill:url(#SVGID_55_);}
	.st57{fill:url(#SVGID_56_);}
	.st58{fill:url(#SVGID_57_);}
	.st59{fill:url(#SVGID_58_);}
	.st60{fill:url(#SVGID_59_);}
	.st61{fill:url(#SVGID_60_);}
	.st62{fill:url(#SVGID_61_);}
</style>
<g>
	<g>
		<path class="st0" d="M1043.44,568.47c-11.86,0-21.97,7.5-25.9,18.05H768.26l-30.78-32.52h156.51
			c3.92,10.55,14.04,18.05,25.9,18.05c15.17,0,27.64-12.38,27.64-27.64s-12.38-27.64-27.64-27.64c-11.86,0-21.97,7.5-25.9,18.05
			H617.07c-0.61,0-1.22,0.09-1.74,0.17c-1.57-12.03-4.19-23.8-7.93-35.31c-1.22-3.75-2.62-7.5-4.01-11.16h15.43l23.72,27.99
			c1.83,2.18,4.45,3.4,7.32,3.4h28.95c3.14,0,6.1-1.57,7.93-4.19l18.48-27.2h20.05l17,17.96c1.83,1.92,4.27,2.96,6.98,2.96h32.61
			c3.49,0,6.71-1.92,8.37-4.97l13.51-25.11h26.33l41.33,33.57c3.31,2.7,8.11,2.88,11.6,0.35l34.35-24.76h32.44
			c3.92,10.46,14.04,17.96,25.81,17.96c15.17,0,27.64-12.38,27.64-27.64c0-15.26-12.38-27.64-27.64-27.64
			c-11.95,0-22.06,7.59-25.9,18.22h-35.4c-2.01,0-3.92,0.61-5.58,1.83l-30.95,22.32l-38.28-31.04c-1.66-1.4-3.84-2.09-6.02-2.09
			h-35.4c-3.49,0-6.71,1.92-8.37,4.97l-13.51,25.11h-22.76l-17-17.96c-1.83-1.92-4.27-2.96-6.98-2.96h-29.21
			c-3.14,0-6.1,1.57-7.93,4.19l-18.48,27.2h-19.44l-23.72-27.99c-1.83-2.18-4.45-3.4-7.32-3.4h-23.98c-1.4,0-2.79,0.35-4.01,0.87
			c-32.87-64-98.96-105.24-172.9-105.24c-107.25,0-194.52,87.28-194.52,194.61s87.28,194.61,194.52,194.61
			c69.23,0,132.88-37.32,167.5-95.56l329.85-0.09c3.92,10.38,14.04,17.87,25.81,17.87c15.17,0,27.64-12.38,27.64-27.64
			c0-15.26-12.38-27.64-27.64-27.64c-11.95,0-22.15,7.67-25.98,18.31l-319.82,0.09c1.74-3.84,3.31-7.67,4.8-11.6
			c2.53-6.8,4.62-13.69,6.45-20.58h56.41c3.92,10.55,14.04,18.05,25.81,18.05c15.26,0,27.64-12.38,27.64-27.64
			c0-15.26-12.38-27.64-27.64-27.64c-11.86,0-21.97,7.59-25.9,18.05h-52.58c1.4-9.42,2.09-18.92,2.09-28.6
			c0-1.92-0.09-3.92-0.09-5.84c0.09,0,0.17,0,0.26,0h94.08l45.86,48.57c1.83,1.92,4.36,3.05,6.98,3.05h253.47
			c3.92,10.55,14.04,18.05,25.9,18.05c15.17,0,27.64-12.38,27.64-27.64C1071.08,580.85,1058.7,568.47,1043.44,568.47z M975.6,470.55
			c4.71,0,8.54,3.84,8.54,8.54s-3.84,8.54-8.54,8.54c-4.71,0-8.54-3.84-8.54-8.54C967.15,474.3,970.98,470.55,975.6,470.55z
			 M945.52,640.49c4.71,0,8.54,3.84,8.54,8.54c0,4.71-3.84,8.54-8.54,8.54c-4.71,0-8.54-3.84-8.54-8.54
			C936.98,644.32,940.82,640.49,945.52,640.49z M693.28,589.48c4.71,0,8.54,3.84,8.54,8.54c0,4.71-3.84,8.54-8.54,8.54
			c-4.71,0-8.54-3.84-8.54-8.54C684.73,593.32,688.57,589.48,693.28,589.48z M422.37,735.35c-96.7,0-175.43-78.73-175.43-175.52
			s78.65-175.52,175.43-175.52c76.38,0,143.52,48.74,166.97,121.37c5.67,17.35,8.54,35.57,8.54,54.15c0,11.07-1.05,21.97-3.05,32.7
			c-1.05,1.57-1.66,3.4-1.66,5.41c0,0.61,0.09,1.22,0.17,1.83c-1.74,7.32-3.84,14.56-6.54,21.62
			C561.18,689.58,495.18,735.35,422.37,735.35z M919.89,536.03c4.71,0,8.54,3.84,8.54,8.54s-3.84,8.54-8.54,8.54
			c-4.71,0-8.54-3.84-8.54-8.54S915.18,536.03,919.89,536.03z M1043.44,604.56c-4.71,0-8.54-3.84-8.54-8.54s3.84-8.54,8.54-8.54
			c4.71,0,8.54,3.84,8.54,8.54C1051.98,600.82,1048.15,604.56,1043.44,604.56z"/>
		<path class="st0" d="M326.11,498.19c-31.74,0-57.55,25.81-57.55,57.63c0,31.74,25.81,57.55,57.55,57.55
			c23.89,0,45.6-15,53.97-37.41c2.44-6.45,3.66-13.25,3.66-20.23c0-6.1-0.96-12.03-2.79-17.79
			C373.2,514.23,351.23,498.19,326.11,498.19z M362.21,569.34c-5.58,14.91-20.05,25.02-36.1,25.02c-21.19,0-38.45-17.26-38.45-38.54
			c0-21.19,17.26-38.54,38.45-38.54c16.74,0,31.48,10.72,36.62,26.68c1.22,3.84,1.83,7.76,1.83,11.86
			C364.65,560.45,363.87,564.98,362.21,569.34z"/>
	</g>
	<g>
		
			<linearGradient id="SVGID_1_" gradientUnits="userSpaceOnUse" x1="45.9993" y1="-8197.4688" x2="1012.8998" y2="-8197.4688" gradientTransform="matrix(0.8719 0 0 0.8719 187.8289 7707.3398)">
			<stop  offset="0" style="stop-color:#304F9E"/>
			<stop  offset="0.514" style="stop-color:#6A4293"/>
			<stop  offset="1" style="stop-color:#5AC3E7"/>
		</linearGradient>
		<path class="st1" d="M1043.44,568.47c-11.86,0-21.97,7.5-25.9,18.05H768.26l-30.78-32.52h156.51
			c3.92,10.55,14.04,18.05,25.9,18.05c15.17,0,27.64-12.38,27.64-27.64s-12.38-27.64-27.64-27.64c-11.86,0-21.97,7.5-25.9,18.05
			H617.07c-0.61,0-1.22,0.09-1.74,0.17c-1.57-12.03-4.19-23.8-7.93-35.31c-1.22-3.75-2.62-7.5-4.01-11.16h15.43l23.72,27.99
			c1.83,2.18,4.45,3.4,7.32,3.4h28.95c3.14,0,6.1-1.57,7.93-4.19l18.48-27.2h20.05l17,17.96c1.83,1.92,4.27,2.96,6.98,2.96h32.61
			c3.49,0,6.71-1.92,8.37-4.97l13.51-25.11h26.33l41.33,33.57c3.31,2.7,8.11,2.88,11.6,0.35l34.35-24.76h32.44
			c3.92,10.46,14.04,17.96,25.81,17.96c15.17,0,27.64-12.38,27.64-27.64c0-15.26-12.38-27.64-27.64-27.64
			c-11.95,0-22.06,7.59-25.9,18.22h-35.4c-2.01,0-3.92,0.61-5.58,1.83l-30.95,22.32l-38.28-31.04c-1.66-1.4-3.84-2.09-6.02-2.09
			h-35.4c-3.49,0-6.71,1.92-8.37,4.97l-13.51,25.11h-22.76l-17-17.96c-1.83-1.92-4.27-2.96-6.98-2.96h-29.21
			c-3.14,0-6.1,1.57-7.93,4.19l-18.48,27.2h-19.44l-23.72-27.99c-1.83-2.18-4.45-3.4-7.32-3.4h-23.98c-1.4,0-2.79,0.35-4.01,0.87
			c-32.87-64-98.96-105.24-172.9-105.24c-107.25,0-194.52,87.28-194.52,194.61s87.28,194.61,194.52,194.61
			c69.23,0,132.88-37.32,167.5-95.56l329.85-0.09c3.92,10.38,14.04,17.87,25.81,17.87c15.17,0,27.64-12.38,27.64-27.64
			c0-15.26-12.38-27.64-27.64-27.64c-11.95,0-22.15,7.67-25.98,18.31l-319.82,0.09c1.74-3.84,3.31-7.67,4.8-11.6
			c2.53-6.8,4.62-13.69,6.45-20.58h56.41c3.92,10.55,14.04,18.05,25.81,18.05c15.26,0,27.64-12.38,27.64-27.64
			c0-15.26-12.38-27.64-27.64-27.64c-11.86,0-21.97,7.59-25.9,18.05h-52.58c1.4-9.42,2.09-18.92,2.09-28.6
			c0-1.92-0.09-3.92-0.09-5.84c0.09,0,0.17,0,0.26,0h94.08l45.86,48.57c1.83,1.92,4.36,3.05,6.98,3.05h253.47
			c3.92,10.55,14.04,18.05,25.9,18.05c15.17,0,27.64-12.38,27.64-27.64C1071.08,580.85,1058.7,568.47,1043.44,568.47z M975.6,470.55
			c4.71,0,8.54,3.84,8.54,8.54s-3.84,8.54-8.54,8.54c-4.71,0-8.54-3.84-8.54-8.54C967.15,474.3,970.98,470.55,975.6,470.55z
			 M945.52,640.49c4.71,0,8.54,3.84,8.54,8.54c0,4.71-3.84,8.54-8.54,8.54c-4.71,0-8.54-3.84-8.54-8.54
			C936.98,644.32,940.82,640.49,945.52,640.49z M693.28,589.48c4.71,0,8.54,3.84,8.54,8.54c0,4.71-3.84,8.54-8.54,8.54
			c-4.71,0-8.54-3.84-8.54-8.54C684.73,593.32,688.57,589.48,693.28,589.48z M422.37,735.35c-96.7,0-175.43-78.73-175.43-175.52
			s78.65-175.52,175.43-175.52c76.38,0,143.52,48.74,166.97,121.37c5.67,17.35,8.54,35.57,8.54,54.15c0,11.07-1.05,21.97-3.05,32.7
			c-1.05,1.57-1.66,3.4-1.66,5.41c0,0.61,0.09,1.22,0.17,1.83c-1.74,7.32-3.84,14.56-6.54,21.62
			C561.18,689.58,495.18,735.35,422.37,735.35z M919.89,536.03c4.71,0,8.54,3.84,8.54,8.54s-3.84,8.54-8.54,8.54
			c-4.71,0-8.54-3.84-8.54-8.54S915.18,536.03,919.89,536.03z M1043.44,604.56c-4.71,0-8.54-3.84-8.54-8.54s3.84-8.54,8.54-8.54
			c4.71,0,8.54,3.84,8.54,8.54C1051.98,600.82,1048.15,604.56,1043.44,604.56z"/>
		
			<linearGradient id="SVGID_2_" gradientUnits="userSpaceOnUse" x1="45.8992" y1="-8202.1191" x2="1012.9576" y2="-8202.1191" gradientTransform="matrix(0.8719 0 0 0.8719 187.8289 7707.3398)">
			<stop  offset="0" style="stop-color:#304F9E"/>
			<stop  offset="0.514" style="stop-color:#6A4293"/>
			<stop  offset="1" style="stop-color:#5AC3E7"/>
		</linearGradient>
		<path class="st2" d="M326.11,498.19c-31.74,0-57.55,25.81-57.55,57.63c0,31.74,25.81,57.55,57.55,57.55
			c23.89,0,45.6-15,53.97-37.41c2.44-6.45,3.66-13.25,3.66-20.23c0-6.1-0.96-12.03-2.79-17.79
			C373.2,514.23,351.23,498.19,326.11,498.19z M362.21,569.34c-5.58,14.91-20.05,25.02-36.1,25.02c-21.19,0-38.45-17.26-38.45-38.54
			c0-21.19,17.26-38.54,38.45-38.54c16.74,0,31.48,10.72,36.62,26.68c1.22,3.84,1.83,7.76,1.83,11.86
			C364.65,560.45,363.87,564.98,362.21,569.34z"/>
	</g>
</g>
</svg>
