<svg id="Capa_1" data-name="Capa 1" xmlns="http://www.w3.org/2000/svg" viewBox="0 0 1080 1080"><path d="M349.47,584.23c1.48,0,9.09,0,18.59.07H406.5v17.23l-40.1,33.81V738.11a21.27,21.27,0,1,0,10,0V640l30.1-25.38v54.82a21.27,21.27,0,1,0,10,0V584.3h28.88V783.71a21.26,21.26,0,1,0,10,0V584.3l42.23,0h8.21V690.6a21.28,21.28,0,1,0,10,0V584.27c8.23-.14,23-.38,42.42-.66V610h41.69v29.72L562.74,679.8V789.73a21.27,21.27,0,1,0,10,0v-106l27.19-29.31v61.9a21.28,21.28,0,1,0,10,0V610h209V413.11H781.17V386.56c0-18.6,0-37.05,0-55.48,0-20.62-13.4-33.95-34.08-34q-58.4,0-116.79,0c-21.07,0-34.17,13.18-34.19,34.36V350a85.23,85.23,0,0,0-11.55-2.5c-5.75-57.43-56-101.51-114.16-99.07A110.18,110.18,0,0,0,365.3,350.83a52.56,52.56,0,0,0-30.55,5.3,55.65,55.65,0,0,0-27.37,33.71c-2.17,7.67-4.61,21-.68,34.09a85,85,0,0,0,42.77,160.3Zm33.2,174.54a11.28,11.28,0,1,1-11.27-11.28A11.28,11.28,0,0,1,382.67,758.77Zm40.12-68.69a11.28,11.28,0,1,1-11.28-11.27A11.28,11.28,0,0,1,422.79,690.08ZM579,810.38a11.27,11.27,0,1,1-11.27-11.27A11.28,11.28,0,0,1,579,810.38ZM616.21,737a11.28,11.28,0,1,1-11.27-11.27A11.29,11.29,0,0,1,616.21,737ZM461.66,804.36a11.27,11.27,0,1,1-11.27-11.27A11.28,11.28,0,0,1,461.66,804.36Zm60.44-93.1A11.28,11.28,0,1,1,510.82,700,11.29,11.29,0,0,1,522.1,711.26ZM799.93,591H577.24V432.11H799.93ZM642.67,413.11q0-7,0-14c0-11.58-.06-23.56.05-35.35.12-11.5,8.44-19.94,19.8-20.07,16.68-.19,34.21-.19,52.12,0,11.41.12,19.79,8.52,19.93,20,.13,10.46.1,21.16.07,31.51v1.42q0,6.42,0,12.83v3.67ZM615.1,331.49c0-10.63,4.7-15.37,15.2-15.38q58.38,0,116.77,0c10.14,0,15.08,4.91,15.09,15h0c0,18.43,0,36.86,0,55.46V411H753.6v-1.58q0-6.39,0-12.77v-1.43c0-10.42.06-21.19-.07-31.8-.27-21.85-16.92-38.5-38.73-38.73-18.05-.18-35.72-.18-52.54,0-21.78.25-38.36,17-38.58,38.88-.11,11.91-.08,23.95-.05,35.59,0,3.88,0,7.77,0,11.69h-8.58v-22.4Q615.09,360,615.1,331.49Zm-335,170.64a66,66,0,0,1,42.37-64.51l10.57-4-5.81-9.71c-4.22-7-4.8-17.56-1.6-28.87a36.32,36.32,0,0,1,17.88-22c8.06-4.22,18.26-4.7,28-1.31l13.22,4.61-.6-14a91.16,91.16,0,0,1,87.06-94.86c49.37-2.06,91.88,36.4,94.75,85.81a13.56,13.56,0,0,0,12.37,12.69A64.87,64.87,0,0,1,596.09,370v43.07H558.24V564.6c-21.84.33-37.92.58-45.43.73H497.63l-47.25,0H368.12c-10.09-.07-18.09-.07-18.85-.07h-.42a65.91,65.91,0,0,1-68.71-63.11Z"/><path d="M676.48,534.83v13.26a12.19,12.19,0,0,0,24.37,0V534.83a30.77,30.77,0,1,0-24.37,0Z"/></svg>