<?xml version="1.0" encoding="utf-8"?>
<!-- Generator: Adobe Illustrator 24.3.0, SVG Export Plug-In . SVG Version: 6.00 Build 0)  -->
<svg version="1.1" id="Capa_1" xmlns="http://www.w3.org/2000/svg" xmlns:xlink="http://www.w3.org/1999/xlink" x="0px" y="0px"
	 viewBox="0 0 1080 1080" style="enable-background:new 0 0 1080 1080;" xml:space="preserve">
<style type="text/css">
	.st0{fill:#1E1E1C;}
	.st1{fill:url(#SVGID_1_);}
	.st2{fill:url(#SVGID_2_);}
	.st3{fill:url(#SVGID_3_);}
	.st4{fill:url(#SVGID_4_);}
	.st5{fill:url(#SVGID_5_);}
	.st6{fill:url(#SVGID_6_);}
	.st7{fill:#020203;}
	.st8{fill:url(#SVGID_7_);}
	.st9{fill:url(#SVGID_8_);}
	.st10{fill:url(#SVGID_9_);}
	.st11{fill:url(#SVGID_10_);}
	.st12{fill:url(#SVGID_11_);}
	.st13{fill:url(#SVGID_12_);}
	.st14{fill:url(#SVGID_13_);}
	.st15{fill:url(#SVGID_14_);}
	.st16{fill:url(#SVGID_15_);}
	.st17{fill:url(#SVGID_16_);}
	.st18{fill:url(#SVGID_17_);}
	.st19{fill:url(#SVGID_18_);}
	.st20{fill:url(#SVGID_19_);}
	.st21{fill:url(#SVGID_20_);}
	.st22{fill:url(#SVGID_21_);}
	.st23{fill:url(#SVGID_22_);}
	.st24{fill:url(#SVGID_23_);}
	.st25{fill:url(#SVGID_24_);}
	.st26{fill:url(#SVGID_25_);}
	.st27{fill:url(#SVGID_26_);}
	.st28{fill:url(#SVGID_27_);}
	.st29{fill:url(#SVGID_28_);}
	.st30{fill:url(#SVGID_29_);}
	.st31{fill:url(#SVGID_30_);}
	.st32{fill:url(#SVGID_31_);}
	.st33{fill:url(#SVGID_32_);}
	.st34{fill:url(#SVGID_33_);}
	.st35{fill:url(#SVGID_34_);}
	.st36{fill:url(#SVGID_35_);}
	.st37{fill:url(#SVGID_36_);}
	.st38{fill:url(#SVGID_37_);}
	.st39{fill:url(#SVGID_38_);}
	.st40{fill:url(#SVGID_39_);}
	.st41{fill:url(#SVGID_40_);}
	.st42{fill:url(#SVGID_41_);}
	.st43{fill:url(#SVGID_42_);}
	.st44{fill:url(#SVGID_43_);}
	.st45{fill:url(#SVGID_44_);}
	.st46{fill:url(#SVGID_45_);}
	.st47{fill:url(#SVGID_46_);}
	.st48{fill:url(#SVGID_47_);}
	.st49{fill:url(#SVGID_48_);}
	.st50{fill:url(#SVGID_49_);}
	.st51{fill:url(#SVGID_50_);}
	.st52{fill:url(#SVGID_51_);}
	.st53{fill:url(#SVGID_52_);}
	.st54{fill:url(#SVGID_53_);}
	.st55{fill:url(#SVGID_54_);}
	.st56{fill:url(#SVGID_55_);}
	.st57{fill:url(#SVGID_56_);}
	.st58{fill:url(#SVGID_57_);}
	.st59{fill:url(#SVGID_58_);}
	.st60{fill:url(#SVGID_59_);}
	.st61{fill:url(#SVGID_60_);}
	.st62{fill:url(#SVGID_61_);}
</style>
<g>
	<g>
		<path class="st0" d="M970.78,415.44c-11.68,0-21.62,7.41-25.46,17.7H784.19l-23.02-21.36h77.51c3.92,10.29,13.86,17.7,25.46,17.7
			c15,0,27.2-12.21,27.2-27.2c0-15-12.21-27.29-27.2-27.29c-11.68,0-21.62,7.41-25.46,17.7H650.01l32.17-42.99l-91.9-91.9
			l-60.16,42.81c-10.03-5.06-20.4-9.33-31.04-12.9l-12.21-72.8H357.13l-12.21,72.8c-10.64,3.57-21.1,7.85-31.04,12.9l-60.16-42.81
			l-91.73,91.73l42.81,60.16c-4.97,9.94-9.24,20.32-12.82,31.04l-72.89,12.29v129.65l72.89,12.29c3.57,10.64,7.85,21.01,12.9,31.04
			l-42.9,60.08l91.73,91.81l60.16-42.9c10.03,4.97,20.4,9.33,31.04,12.9l12.21,72.89h129.74l12.21-72.89
			c10.64-3.57,21.01-7.85,31.04-12.9l60.16,42.9l91.73-91.81l-43.16-60.51c0.35-1.05,0.78-2.18,1.13-3.31h51.27l36.79,43.6h110.65
			c3.84,10.29,13.86,17.7,25.46,17.7c15,0,27.2-12.21,27.2-27.2s-12.21-27.2-27.2-27.2c-11.68,0-21.62,7.41-25.46,17.7H736.85
			l-20.66-24.59h47.78c3.92,10.29,13.86,17.7,25.46,17.7c15,0,27.2-12.21,27.2-27.2c0-15-12.21-27.2-27.2-27.2
			c-11.68,0-21.62,7.41-25.46,17.7H632.92l21.1-23.19h234.2c3.84,10.29,13.86,17.7,25.46,17.7c15,0,27.2-12.21,27.2-27.2
			c0-15-12.21-27.2-27.2-27.2c-11.68,0-21.62,7.41-25.46,17.7H645.56l-38.54,42.29h-21.71c1.05-1.92,2.01-3.84,2.96-5.84
			c11.86-24.85,17.87-51.53,17.87-79.43c0-1.22-0.09-2.44-0.17-3.66h181.1c3.92,10.29,13.86,17.7,25.46,17.7
			c15,0,27.2-12.21,27.2-27.2s-12.21-27.2-27.2-27.2c-11.68,0-21.62,7.41-25.46,17.7H604.84c-1.48-12.03-4.19-23.72-7.93-35.14
			h74.64c3.84,10.29,13.86,17.7,25.46,17.7c15,0,27.2-12.21,27.2-27.2c0-15-12.21-27.2-27.2-27.2c-11.68,0-21.62,7.41-25.46,17.7
			h-82.13c-3.31-7.15-6.98-14.13-11.25-20.84c-1.48-2.53-3.31-5.23-5.41-8.2c0,0,0,0-0.09-0.09h160.35l43.6,40.46h168.63
			c3.92,10.29,13.86,17.7,25.46,17.7c15,0,27.2-12.21,27.2-27.2C997.9,428.08,985.87,415.44,970.78,415.44z M864.24,648.06
			c4.53,0,8.11,3.66,8.11,8.11c0,4.53-3.66,8.11-8.11,8.11c-4.53,0-8.11-3.66-8.11-8.11C856.04,651.73,859.7,648.06,864.24,648.06z
			 M913.85,562.18c4.53,0,8.11,3.66,8.11,8.11c0,4.45-3.66,8.11-8.11,8.11c-4.53,0-8.11-3.66-8.11-8.11
			C905.65,565.84,909.31,562.18,913.85,562.18z M812.53,496.44c4.53,0,8.11,3.66,8.11,8.11s-3.66,8.11-8.11,8.11
			c-4.53,0-8.11-3.66-8.11-8.11S808,496.44,812.53,496.44z M697.09,442.2c4.53,0,8.11,3.66,8.11,8.11s-3.66,8.11-8.11,8.11
			c-4.53,0-8.11-3.66-8.11-8.11S692.56,442.2,697.09,442.2z M864.24,394.07c4.53,0,8.11,3.66,8.11,8.2c0,4.45-3.66,8.11-8.11,8.11
			c-4.53,0-8.11-3.66-8.11-8.11C856.04,397.74,859.7,394.07,864.24,394.07z M789.51,604.47c4.53,0,8.11,3.66,8.11,8.11
			c0,4.45-3.66,8.11-8.11,8.11c-4.53,0-8.11-3.66-8.11-8.11C781.32,608.13,784.98,604.47,789.51,604.47z M587.23,517.8
			c0,24.94-5.41,48.91-15.96,71.06c-1.22,2.53-2.53,5.06-3.84,7.41c-28.95,53.54-84.66,86.76-145.44,86.76
			c-91.12,0-165.23-74.11-165.23-165.23S330.88,352.57,422,352.57c53.71,0,104.28,26.24,135.23,70.28c1.83,2.53,3.31,4.8,4.71,7.06
			C578.51,456.16,587.23,486.5,587.23,517.8z M422,333.48c-101.58,0-184.24,82.66-184.24,184.32s82.66,184.41,184.32,184.41
			c61.12,0,117.62-30.26,151.8-79.95h45.78v0.09l-2.79,5.23l40.37,56.5l-68.88,68.97l-56.59-40.37l-5.23,2.79
			c-12.29,6.54-25.29,11.95-38.54,16.04l-5.67,1.74l-11.51,68.45h-97.48l-11.51-68.45l-5.67-1.74c-13.34-4.1-26.33-9.5-38.54-16.04
			l-5.23-2.79l-56.59,40.37l-68.88-68.97l40.37-56.5l-2.79-5.23c-6.54-12.29-11.95-25.29-16.04-38.54l-1.74-5.58l-68.45-11.51
			v-97.65l68.45-11.51l1.74-5.67c4.19-13.51,9.5-26.42,15.96-38.54l2.79-5.23l-40.28-56.5l68.88-68.88l56.59,40.28l5.23-2.79
			c12.21-6.54,25.2-11.95,38.54-16.04l5.67-1.74l11.51-68.45h97.48l11.51,68.45l5.67,1.74c13.34,4.1,26.33,9.42,38.54,16.04
			l5.23,2.79l56.5-40.28l68.79,68.79l-30.87,41.24h-68.88C522.62,355.27,473.7,333.48,422,333.48z M970.78,450.84
			c-4.53,0-8.11-3.66-8.11-8.11s3.66-8.11,8.11-8.11c4.53,0,8.11,3.66,8.11,8.11S975.32,450.84,970.78,450.84z"/>
		<path class="st0" d="M419.65,414.48c-12.21,1.31-21.1,12.38-19.79,24.59l13.95,128c0.44,3.75,3.4,6.89,7.32,7.32
			c4.53,0.52,8.63-2.79,9.16-7.32l13.95-128c0.17-1.57,0.17-3.23,0-4.8C442.93,421.98,431.85,413.17,419.65,414.48z"/>
		<circle class="st0" cx="422.09" cy="617.72" r="19.36"/>
	</g>
	<g>
		
			<linearGradient id="SVGID_1_" gradientUnits="userSpaceOnUse" x1="-402.0081" y1="-8245.6299" x2="605.892" y2="-8245.6299" gradientTransform="matrix(0.8719 0 0 0.8719 469.6137 7707.3398)">
			<stop  offset="0" style="stop-color:#304F9E"/>
			<stop  offset="0.514" style="stop-color:#6A4293"/>
			<stop  offset="1" style="stop-color:#5AC3E7"/>
		</linearGradient>
		<path class="st1" d="M970.78,415.44c-11.68,0-21.62,7.41-25.46,17.7H784.19l-23.02-21.36h77.51c3.92,10.29,13.86,17.7,25.46,17.7
			c15,0,27.2-12.21,27.2-27.2c0-15-12.21-27.29-27.2-27.29c-11.68,0-21.62,7.41-25.46,17.7H650.01l32.17-42.99l-91.9-91.9
			l-60.16,42.81c-10.03-5.06-20.4-9.33-31.04-12.9l-12.21-72.8H357.13l-12.21,72.8c-10.64,3.57-21.1,7.85-31.04,12.9l-60.16-42.81
			l-91.73,91.73l42.81,60.16c-4.97,9.94-9.24,20.32-12.82,31.04l-72.89,12.29v129.65l72.89,12.29c3.57,10.64,7.85,21.01,12.9,31.04
			l-42.9,60.08l91.73,91.81l60.16-42.9c10.03,4.97,20.4,9.33,31.04,12.9l12.21,72.89h129.74l12.21-72.89
			c10.64-3.57,21.01-7.85,31.04-12.9l60.16,42.9l91.73-91.81l-43.16-60.51c0.35-1.05,0.78-2.18,1.13-3.31h51.27l36.79,43.6h110.65
			c3.84,10.29,13.86,17.7,25.46,17.7c15,0,27.2-12.21,27.2-27.2s-12.21-27.2-27.2-27.2c-11.68,0-21.62,7.41-25.46,17.7H736.85
			l-20.66-24.59h47.78c3.92,10.29,13.86,17.7,25.46,17.7c15,0,27.2-12.21,27.2-27.2c0-15-12.21-27.2-27.2-27.2
			c-11.68,0-21.62,7.41-25.46,17.7H632.92l21.1-23.19h234.2c3.84,10.29,13.86,17.7,25.46,17.7c15,0,27.2-12.21,27.2-27.2
			c0-15-12.21-27.2-27.2-27.2c-11.68,0-21.62,7.41-25.46,17.7H645.56l-38.54,42.29h-21.71c1.05-1.92,2.01-3.84,2.96-5.84
			c11.86-24.85,17.87-51.53,17.87-79.43c0-1.22-0.09-2.44-0.17-3.66h181.1c3.92,10.29,13.86,17.7,25.46,17.7
			c15,0,27.2-12.21,27.2-27.2s-12.21-27.2-27.2-27.2c-11.68,0-21.62,7.41-25.46,17.7H604.84c-1.48-12.03-4.19-23.72-7.93-35.14
			h74.64c3.84,10.29,13.86,17.7,25.46,17.7c15,0,27.2-12.21,27.2-27.2c0-15-12.21-27.2-27.2-27.2c-11.68,0-21.62,7.41-25.46,17.7
			h-82.13c-3.31-7.15-6.98-14.13-11.25-20.84c-1.48-2.53-3.31-5.23-5.41-8.2c0,0,0,0-0.09-0.09h160.35l43.6,40.46h168.63
			c3.92,10.29,13.86,17.7,25.46,17.7c15,0,27.2-12.21,27.2-27.2C997.9,428.08,985.87,415.44,970.78,415.44z M864.24,648.06
			c4.53,0,8.11,3.66,8.11,8.11c0,4.53-3.66,8.11-8.11,8.11c-4.53,0-8.11-3.66-8.11-8.11C856.04,651.73,859.7,648.06,864.24,648.06z
			 M913.85,562.18c4.53,0,8.11,3.66,8.11,8.11c0,4.45-3.66,8.11-8.11,8.11c-4.53,0-8.11-3.66-8.11-8.11
			C905.65,565.84,909.31,562.18,913.85,562.18z M812.53,496.44c4.53,0,8.11,3.66,8.11,8.11s-3.66,8.11-8.11,8.11
			c-4.53,0-8.11-3.66-8.11-8.11S808,496.44,812.53,496.44z M697.09,442.2c4.53,0,8.11,3.66,8.11,8.11s-3.66,8.11-8.11,8.11
			c-4.53,0-8.11-3.66-8.11-8.11S692.56,442.2,697.09,442.2z M864.24,394.07c4.53,0,8.11,3.66,8.11,8.2c0,4.45-3.66,8.11-8.11,8.11
			c-4.53,0-8.11-3.66-8.11-8.11C856.04,397.74,859.7,394.07,864.24,394.07z M789.51,604.47c4.53,0,8.11,3.66,8.11,8.11
			c0,4.45-3.66,8.11-8.11,8.11c-4.53,0-8.11-3.66-8.11-8.11C781.32,608.13,784.98,604.47,789.51,604.47z M587.23,517.8
			c0,24.94-5.41,48.91-15.96,71.06c-1.22,2.53-2.53,5.06-3.84,7.41c-28.95,53.54-84.66,86.76-145.44,86.76
			c-91.12,0-165.23-74.11-165.23-165.23S330.88,352.57,422,352.57c53.71,0,104.28,26.24,135.23,70.28c1.83,2.53,3.31,4.8,4.71,7.06
			C578.51,456.16,587.23,486.5,587.23,517.8z M422,333.48c-101.58,0-184.24,82.66-184.24,184.32s82.66,184.41,184.32,184.41
			c61.12,0,117.62-30.26,151.8-79.95h45.78v0.09l-2.79,5.23l40.37,56.5l-68.88,68.97l-56.59-40.37l-5.23,2.79
			c-12.29,6.54-25.29,11.95-38.54,16.04l-5.67,1.74l-11.51,68.45h-97.48l-11.51-68.45l-5.67-1.74c-13.34-4.1-26.33-9.5-38.54-16.04
			l-5.23-2.79l-56.59,40.37l-68.88-68.97l40.37-56.5l-2.79-5.23c-6.54-12.29-11.95-25.29-16.04-38.54l-1.74-5.58l-68.45-11.51
			v-97.65l68.45-11.51l1.74-5.67c4.19-13.51,9.5-26.42,15.96-38.54l2.79-5.23l-40.28-56.5l68.88-68.88l56.59,40.28l5.23-2.79
			c12.21-6.54,25.2-11.95,38.54-16.04l5.67-1.74l11.51-68.45h97.48l11.51,68.45l5.67,1.74c13.34,4.1,26.33,9.42,38.54,16.04
			l5.23,2.79l56.5-40.28l68.79,68.79l-30.87,41.24h-68.88C522.62,355.27,473.7,333.48,422,333.48z M970.78,450.84
			c-4.53,0-8.11-3.66-8.11-8.11s3.66-8.11,8.11-8.11c4.53,0,8.11,3.66,8.11,8.11S975.32,450.84,970.78,450.84z"/>
		
			<linearGradient id="SVGID_2_" gradientUnits="userSpaceOnUse" x1="-401.9534" y1="-8272.5225" x2="606.0884" y2="-8272.5225" gradientTransform="matrix(0.8719 0 0 0.8719 469.6137 7707.3398)">
			<stop  offset="0" style="stop-color:#304F9E"/>
			<stop  offset="0.514" style="stop-color:#6A4293"/>
			<stop  offset="1" style="stop-color:#5AC3E7"/>
		</linearGradient>
		<path class="st2" d="M419.65,414.48c-12.21,1.31-21.1,12.38-19.79,24.59l13.95,128c0.44,3.75,3.4,6.89,7.32,7.32
			c4.53,0.52,8.63-2.79,9.16-7.32l13.95-128c0.17-1.57,0.17-3.23,0-4.8C442.93,421.98,431.85,413.17,419.65,414.48z"/>
		
			<linearGradient id="SVGID_3_" gradientUnits="userSpaceOnUse" x1="-401.9534" y1="-8131.0801" x2="606.0884" y2="-8131.0801" gradientTransform="matrix(0.8719 0 0 0.8719 469.6137 7707.3398)">
			<stop  offset="0" style="stop-color:#304F9E"/>
			<stop  offset="0.514" style="stop-color:#6A4293"/>
			<stop  offset="1" style="stop-color:#5AC3E7"/>
		</linearGradient>
		<circle class="st3" cx="422.09" cy="617.72" r="19.36"/>
	</g>
</g>
</svg>
