<?xml version="1.0" encoding="utf-8"?>
<!-- Generator: Adobe Illustrator 24.3.0, SVG Export Plug-In . SVG Version: 6.00 Build 0)  -->
<svg version="1.1" id="Capa_1" xmlns="http://www.w3.org/2000/svg" xmlns:xlink="http://www.w3.org/1999/xlink" x="0px" y="0px"
	 viewBox="0 0 1080 1080" style="enable-background:new 0 0 1080 1080;" xml:space="preserve">
<style type="text/css">
	.st0{fill:#1E1E1C;}
	.st1{fill:url(#SVGID_1_);}
	.st2{fill:url(#SVGID_2_);}
	.st3{fill:url(#SVGID_3_);}
	.st4{fill:url(#SVGID_4_);}
	.st5{fill:url(#SVGID_5_);}
	.st6{fill:url(#SVGID_6_);}
	.st7{fill:#020203;}
	.st8{fill:url(#SVGID_7_);}
	.st9{fill:url(#SVGID_8_);}
	.st10{fill:url(#SVGID_9_);}
	.st11{fill:url(#SVGID_10_);}
	.st12{fill:url(#SVGID_11_);}
	.st13{fill:url(#SVGID_12_);}
	.st14{fill:url(#SVGID_13_);}
	.st15{fill:url(#SVGID_14_);}
	.st16{fill:url(#SVGID_15_);}
	.st17{fill:url(#SVGID_16_);}
	.st18{fill:url(#SVGID_17_);}
	.st19{fill:url(#SVGID_18_);}
	.st20{fill:url(#SVGID_19_);}
	.st21{fill:url(#SVGID_20_);}
	.st22{fill:url(#SVGID_21_);}
	.st23{fill:url(#SVGID_22_);}
	.st24{fill:url(#SVGID_23_);}
	.st25{fill:url(#SVGID_24_);}
	.st26{fill:url(#SVGID_25_);}
	.st27{fill:url(#SVGID_26_);}
	.st28{fill:url(#SVGID_27_);}
	.st29{fill:url(#SVGID_28_);}
	.st30{fill:url(#SVGID_29_);}
	.st31{fill:url(#SVGID_30_);}
	.st32{fill:url(#SVGID_31_);}
	.st33{fill:url(#SVGID_32_);}
	.st34{fill:url(#SVGID_33_);}
	.st35{fill:url(#SVGID_34_);}
	.st36{fill:url(#SVGID_35_);}
	.st37{fill:url(#SVGID_36_);}
	.st38{fill:url(#SVGID_37_);}
	.st39{fill:url(#SVGID_38_);}
	.st40{fill:url(#SVGID_39_);}
	.st41{fill:url(#SVGID_40_);}
	.st42{fill:url(#SVGID_41_);}
	.st43{fill:url(#SVGID_42_);}
	.st44{fill:url(#SVGID_43_);}
	.st45{fill:url(#SVGID_44_);}
	.st46{fill:url(#SVGID_45_);}
	.st47{fill:url(#SVGID_46_);}
	.st48{fill:url(#SVGID_47_);}
	.st49{fill:url(#SVGID_48_);}
	.st50{fill:url(#SVGID_49_);}
	.st51{fill:url(#SVGID_50_);}
	.st52{fill:url(#SVGID_51_);}
	.st53{fill:url(#SVGID_52_);}
	.st54{fill:url(#SVGID_53_);}
	.st55{fill:url(#SVGID_54_);}
	.st56{fill:url(#SVGID_55_);}
	.st57{fill:url(#SVGID_56_);}
	.st58{fill:url(#SVGID_57_);}
	.st59{fill:url(#SVGID_58_);}
	.st60{fill:url(#SVGID_59_);}
	.st61{fill:url(#SVGID_60_);}
	.st62{fill:url(#SVGID_61_);}
</style>
<g>
	<path class="st0" d="M661.27,410.36l20.66,81.44c-37.84-15.35-76.03-30.69-120.32-48.48c-34.09-13.69-63.13-12.38-88.67,3.84
		c-0.96,0.61-1.92,1.31-2.88,1.92H307.97l9.77-38.71l-197.92-20.58v332.46h118.93l9.59-37.84
		c38.89,33.74,159.65,138.11,200.63,169.15c25.29,19.18,44.21,21.45,54.32,21.45c1.92,0,3.57-0.09,4.8-0.17
		c0.52,0,0.96-0.09,1.31-0.09c10.55,0.17,22.84-4.53,29.65-17.09c7.24,5.06,18.4,9.68,30.34,9.68c8.02,0,16.39-2.09,24.15-7.5
		c14.91-10.55,20.93-22.5,23.37-31.48c5.67,2.09,11.68,3.23,17.87,3.23c14.65,0,29.12-6.19,39.76-16.92
		c5.49-5.58,10.55-13.34,12.99-21.45c2.44,0.35,5.32,0.7,8.63,0.7c2.96,0,6.19-0.17,9.77-0.7c13.69-2.01,25.81-12.21,32.44-27.29
		c5.58-12.82,5.14-27.12-1.22-40.2c-0.17-0.44-0.52-1.05-2.53-3.31h5.67h10.46h108.47V389.95L661.27,410.36z M138.99,703.14V410.97
		l154.94,16.13L224,703.14H138.99L138.99,703.14z M720.9,758.08c-3.05,6.98-9.24,14.82-17.7,16.04c-7.85,1.13-13.34,0.17-15.61-0.44
		c-12.64-12.29-99.22-96.09-105.59-102.54l-13.51,13.51c6.1,6.1,80.13,77.77,101.67,98.7c0,4.27-3.4,12.12-9.07,17.79
		c-7.06,7.15-16.57,11.25-26.16,11.25c-8.46,0-16.48-3.23-22.58-9.07c-16.83-16.13-33.48-32.87-49.61-49
		c-2.27-2.27-8.54-8.63-15-15.35c-7.32-7.5-14.91-15.26-17.44-17.79l-13.51,13.51c2.53,2.53,10.03,10.2,17.26,17.61
		c6.54,6.71,12.82,13.17,15.17,15.43c16.22,16.22,32.96,33.05,49.96,49.35c0.17,0.17,0.35,0.35,0.52,0.52
		c-0.61,6.02-3.05,16.74-17,26.51c-12.47,8.81-29.99,0.78-34.53-3.75c-25.63-25.37-51.18-50.75-76.73-76.12
		c-0.26-0.26-2.18-2.09-4.45-4.19c-2.79-2.62-6.1-5.67-6.63-6.19l-13.78,13.17c0.44,0.44,4.19,4.01,7.41,6.98
		c2.01,1.83,3.75,3.49,4.01,3.75c22.06,21.97,44.21,43.86,66.35,65.74c-2.09,8.11-6.8,12.29-14.47,12.03c-0.7,0-1.48,0-2.62,0.09
		c-6.02,0.35-22.15,1.13-46.56-17.44c-42.9-32.61-179.61-150.93-206.91-174.64l49.52-195.48h140.81
		c-19.97,16.39-36.01,34.27-48.65,54.32c-0.87,1.4-1.83,2.88-2.7,4.27c-6.89,10.55-14.56,22.5-13.95,36.71
		c0.44,8.81,3.49,15.87,9.24,20.93c10.38,9.24,25.55,8.2,32.35,7.76c20.84-1.4,32.7-16.39,43.16-29.56l1.57-1.92
		c1.31-1.66,5.23-6.54,8.2-7.67c7.76-2.96,15.96-5.67,23.89-8.2c5.49-1.74,11.16-3.57,16.74-5.58
		c79.87,74.29,196.7,183.71,206.64,195.4C723.96,742.38,724.13,750.75,720.9,758.08z M715.76,703.14
		c-24.5-23.89-77.6-74.29-193.22-181.79l-4.36-4.01l-5.49,2.09c-7.06,2.62-14.39,4.97-21.54,7.32c-8.2,2.62-16.65,5.32-24.85,8.54
		c-6.89,2.7-12.03,8.37-16.22,13.6l-1.57,2.01c-9.16,11.51-17,21.54-29.73,22.32c-4.1,0.26-13.69,0.96-18.05-2.96
		c-0.61-0.61-2.62-2.35-2.88-7.59c-0.35-8.02,5.32-16.92,10.9-25.37c0.96-1.57,1.92-3.05,2.88-4.53
		c16.65-26.59,40.11-49.26,71.67-69.4c20.23-12.9,42.9-13.6,71.24-2.18c49.35,19.79,91.12,36.62,133.23,53.71l47.78,188.33
		L715.76,703.14L715.76,703.14z M840.18,703.14h-84.92L685.33,427.1l154.94-16.13v292.18H840.18z"/>
	
		<linearGradient id="SVGID_1_" gradientUnits="userSpaceOnUse" x1="-391.0581" y1="-7952.668" x2="456.9419" y2="-7952.668" gradientTransform="matrix(0.8719 0 0 0.8719 460.7759 7566.4473)">
		<stop  offset="0" style="stop-color:#304F9E"/>
		<stop  offset="0.514" style="stop-color:#6A4293"/>
		<stop  offset="1" style="stop-color:#5AC3E7"/>
	</linearGradient>
	<path class="st1" d="M661.27,410.36l20.66,81.44c-37.84-15.35-76.03-30.69-120.32-48.48c-34.09-13.69-63.13-12.38-88.67,3.84
		c-0.96,0.61-1.92,1.31-2.88,1.92H307.97l9.77-38.71l-197.92-20.58v332.46h118.93l9.59-37.84
		c38.89,33.74,159.65,138.11,200.63,169.15c25.29,19.18,44.21,21.45,54.32,21.45c1.92,0,3.57-0.09,4.8-0.17
		c0.52,0,0.96-0.09,1.31-0.09c10.55,0.17,22.84-4.53,29.65-17.09c7.24,5.06,18.4,9.68,30.34,9.68c8.02,0,16.39-2.09,24.15-7.5
		c14.91-10.55,20.93-22.5,23.37-31.48c5.67,2.09,11.68,3.23,17.87,3.23c14.65,0,29.12-6.19,39.76-16.92
		c5.49-5.58,10.55-13.34,12.99-21.45c2.44,0.35,5.32,0.7,8.63,0.7c2.96,0,6.19-0.17,9.77-0.7c13.69-2.01,25.81-12.21,32.44-27.29
		c5.58-12.82,5.14-27.12-1.22-40.2c-0.17-0.44-0.52-1.05-2.53-3.31h5.67h10.46h108.47V389.95L661.27,410.36z M138.99,703.14V410.97
		l154.94,16.13L224,703.14H138.99L138.99,703.14z M720.9,758.08c-3.05,6.98-9.24,14.82-17.7,16.04c-7.85,1.13-13.34,0.17-15.61-0.44
		c-12.64-12.29-99.22-96.09-105.59-102.54l-13.51,13.51c6.1,6.1,80.13,77.77,101.67,98.7c0,4.27-3.4,12.12-9.07,17.79
		c-7.06,7.15-16.57,11.25-26.16,11.25c-8.46,0-16.48-3.23-22.58-9.07c-16.83-16.13-33.48-32.87-49.61-49
		c-2.27-2.27-8.54-8.63-15-15.35c-7.32-7.5-14.91-15.26-17.44-17.79l-13.51,13.51c2.53,2.53,10.03,10.2,17.26,17.61
		c6.54,6.71,12.82,13.17,15.17,15.43c16.22,16.22,32.96,33.05,49.96,49.35c0.17,0.17,0.35,0.35,0.52,0.52
		c-0.61,6.02-3.05,16.74-17,26.51c-12.47,8.81-29.99,0.78-34.53-3.75c-25.63-25.37-51.18-50.75-76.73-76.12
		c-0.26-0.26-2.18-2.09-4.45-4.19c-2.79-2.62-6.1-5.67-6.63-6.19l-13.78,13.17c0.44,0.44,4.19,4.01,7.41,6.98
		c2.01,1.83,3.75,3.49,4.01,3.75c22.06,21.97,44.21,43.86,66.35,65.74c-2.09,8.11-6.8,12.29-14.47,12.03c-0.7,0-1.48,0-2.62,0.09
		c-6.02,0.35-22.15,1.13-46.56-17.44c-42.9-32.61-179.61-150.93-206.91-174.64l49.52-195.48h140.81
		c-19.97,16.39-36.01,34.27-48.65,54.32c-0.87,1.4-1.83,2.88-2.7,4.27c-6.89,10.55-14.56,22.5-13.95,36.71
		c0.44,8.81,3.49,15.87,9.24,20.93c10.38,9.24,25.55,8.2,32.35,7.76c20.84-1.4,32.7-16.39,43.16-29.56l1.57-1.92
		c1.31-1.66,5.23-6.54,8.2-7.67c7.76-2.96,15.96-5.67,23.89-8.2c5.49-1.74,11.16-3.57,16.74-5.58
		c79.87,74.29,196.7,183.71,206.64,195.4C723.96,742.38,724.13,750.75,720.9,758.08z M715.76,703.14
		c-24.5-23.89-77.6-74.29-193.22-181.79l-4.36-4.01l-5.49,2.09c-7.06,2.62-14.39,4.97-21.54,7.32c-8.2,2.62-16.65,5.32-24.85,8.54
		c-6.89,2.7-12.03,8.37-16.22,13.6l-1.57,2.01c-9.16,11.51-17,21.54-29.73,22.32c-4.1,0.26-13.69,0.96-18.05-2.96
		c-0.61-0.61-2.62-2.35-2.88-7.59c-0.35-8.02,5.32-16.92,10.9-25.37c0.96-1.57,1.92-3.05,2.88-4.53
		c16.65-26.59,40.11-49.26,71.67-69.4c20.23-12.9,42.9-13.6,71.24-2.18c49.35,19.79,91.12,36.62,133.23,53.71l47.78,188.33
		L715.76,703.14L715.76,703.14z M840.18,703.14h-84.92L685.33,427.1l154.94-16.13v292.18H840.18z"/>
</g>
</svg>
