<?xml version="1.0" encoding="utf-8"?>
<!-- Generator: Adobe Illustrator 24.3.0, SVG Export Plug-In . SVG Version: 6.00 Build 0)  -->
<svg version="1.1" id="Capa_1" xmlns="http://www.w3.org/2000/svg" xmlns:xlink="http://www.w3.org/1999/xlink" x="0px" y="0px"
	 viewBox="0 0 1080 1080" style="enable-background:new 0 0 1080 1080;" xml:space="preserve">
<style type="text/css">
	.st0{fill:#1E1E1C;}
	.st1{fill:url(#SVGID_1_);}
	.st2{fill:url(#SVGID_2_);}
	.st3{fill:url(#SVGID_3_);}
	.st4{fill:url(#SVGID_4_);}
	.st5{fill:url(#SVGID_5_);}
	.st6{fill:url(#SVGID_6_);}
	.st7{fill:#020203;}
	.st8{fill:url(#SVGID_7_);}
	.st9{fill:url(#SVGID_8_);}
	.st10{fill:url(#SVGID_9_);}
	.st11{fill:url(#SVGID_10_);}
	.st12{fill:url(#SVGID_11_);}
	.st13{fill:url(#SVGID_12_);}
	.st14{fill:url(#SVGID_13_);}
	.st15{fill:url(#SVGID_14_);}
	.st16{fill:url(#SVGID_15_);}
	.st17{fill:url(#SVGID_16_);}
	.st18{fill:url(#SVGID_17_);}
	.st19{fill:url(#SVGID_18_);}
	.st20{fill:url(#SVGID_19_);}
	.st21{fill:url(#SVGID_20_);}
	.st22{fill:url(#SVGID_21_);}
	.st23{fill:url(#SVGID_22_);}
	.st24{fill:url(#SVGID_23_);}
	.st25{fill:url(#SVGID_24_);}
	.st26{fill:url(#SVGID_25_);}
	.st27{fill:url(#SVGID_26_);}
	.st28{fill:url(#SVGID_27_);}
	.st29{fill:url(#SVGID_28_);}
	.st30{fill:url(#SVGID_29_);}
	.st31{fill:url(#SVGID_30_);}
	.st32{fill:url(#SVGID_31_);}
	.st33{fill:url(#SVGID_32_);}
	.st34{fill:url(#SVGID_33_);}
	.st35{fill:url(#SVGID_34_);}
	.st36{fill:url(#SVGID_35_);}
	.st37{fill:url(#SVGID_36_);}
	.st38{fill:url(#SVGID_37_);}
	.st39{fill:url(#SVGID_38_);}
	.st40{fill:url(#SVGID_39_);}
	.st41{fill:url(#SVGID_40_);}
	.st42{fill:url(#SVGID_41_);}
	.st43{fill:url(#SVGID_42_);}
	.st44{fill:url(#SVGID_43_);}
	.st45{fill:url(#SVGID_44_);}
	.st46{fill:url(#SVGID_45_);}
	.st47{fill:url(#SVGID_46_);}
	.st48{fill:url(#SVGID_47_);}
	.st49{fill:url(#SVGID_48_);}
	.st50{fill:url(#SVGID_49_);}
	.st51{fill:url(#SVGID_50_);}
	.st52{fill:url(#SVGID_51_);}
	.st53{fill:url(#SVGID_52_);}
	.st54{fill:url(#SVGID_53_);}
	.st55{fill:url(#SVGID_54_);}
	.st56{fill:url(#SVGID_55_);}
	.st57{fill:url(#SVGID_56_);}
	.st58{fill:url(#SVGID_57_);}
	.st59{fill:url(#SVGID_58_);}
	.st60{fill:url(#SVGID_59_);}
	.st61{fill:url(#SVGID_60_);}
	.st62{fill:url(#SVGID_61_);}
</style>
<g>
	<g>
		<path class="st7" d="M403.1,630.11c90.07,0,163.31-73.24,163.31-163.31S493.16,303.49,403.1,303.49S239.79,376.73,239.79,466.8
			S313.11,630.11,403.1,630.11z M403.1,322.59c79.52,0,144.21,64.7,144.21,144.21c0,79.52-64.7,144.21-144.21,144.21
			s-144.21-64.7-144.21-144.21C258.88,387.28,323.58,322.59,403.1,322.59z"/>
		<path class="st7" d="M807.84,623.4c-58.59-4.71-107.51-12.12-159.39-59.64c-3.66-3.31-9.24-3.31-12.9,0
			c-51.88,47.52-100.79,54.84-159.39,59.64c-4.97,0.44-8.81,4.53-8.81,9.5c0,2.09,0.09,4.01,0.09,6.02
			c-2.35-0.09-4.8-0.26-7.15-0.26H345.81c-94.25,0-170.9,76.64-170.9,170.9v71.32H518.8v-3.14c9.94,17,21.1,32.09,33.83,45.08
			c43.33,44.29,87.02,47.26,88.76,47.35c0.17,0,0.35,0,0.52,0s0.35,0,0.52,0c1.83-0.09,45.43-3.05,88.85-47.35
			c12.03-12.29,23.02-26.77,32.78-43.33l1.31-2.27c1.22-2.09,2.44-4.27,3.66-6.54c12.21-22.58,22.15-48.57,29.56-77.25
			c0.7-2.79,1.48-5.75,2.27-8.81c3.4-14.3,6.19-29.03,8.28-43.6c0.52-2.96,0.96-5.93,1.22-8.89c1.74-12.56,3.05-25.29,3.92-37.49
			c0.26-2.96,0.52-6.02,0.61-8.81c1.13-16.22,1.66-34.09,1.66-53.1C816.65,627.93,812.81,623.75,807.84,623.4z M194.1,861.78v-52.23
			c0-83.7,68.1-151.8,151.8-151.8h114.48c2.44,0,4.97,0.17,7.41,0.26c2.35,83.62,16.57,151.71,42.46,203.77H194.1L194.1,861.78z
			 M795.89,684.87c-0.09,2.7-0.35,5.41-0.61,8.37c-0.87,12.03-2.09,24.33-3.84,36.71c-0.35,2.7-0.7,5.41-1.13,8.28
			c-2.09,14.21-4.8,28.42-8.02,42.03c-0.7,2.88-1.4,5.75-2.18,8.46c-7.06,27.2-16.39,51.79-27.81,73.07
			c-1.13,2.09-2.27,4.01-3.4,6.02l-1.22,2.18c-8.89,15.08-19.01,28.34-29.91,39.58c-35.49,36.18-70.97,41.07-75.68,41.59
			c-10.11-1.05-152.59-21.19-155.46-309.44c45.6-3.84,100.36-10.9,155.46-58.07c55.11,47.26,109.86,54.23,155.46,58.07
			C797.38,656.97,796.77,671.44,795.89,684.87z"/>
		<path class="st7" d="M594.22,775.63c-1.22-0.96-2.88,0.78-1.92,2.01l30.52,39.32c1.57,2.09,4.71,2.01,6.19-0.09l65.13-90.68
			c1.05-1.4-1.05-3.05-2.18-1.74l-67.49,71.93L594.22,775.63z"/>
		<path class="st7" d="M544.08,773.45c0,53.97,43.94,98,98,98s98-43.94,98-98c0-53.97-43.94-98-98-98S544.08,719.48,544.08,773.45z
			 M720.91,773.45c0,43.51-35.4,78.82-78.91,78.82c-43.51,0-78.91-35.4-78.91-78.82c0-43.51,35.4-78.91,78.91-78.91
			C685.51,694.63,720.91,729.95,720.91,773.45z"/>
	</g>
	<g>
		
			<linearGradient id="SVGID_1_" gradientUnits="userSpaceOnUse" x1="631.6503" y1="-8304.1689" x2="1367.5162" y2="-8304.1689" gradientTransform="matrix(0.8719 0 0 0.8719 -375.7408 7707.3398)">
			<stop  offset="0" style="stop-color:#304F9E"/>
			<stop  offset="0.514" style="stop-color:#6A4293"/>
			<stop  offset="1" style="stop-color:#5AC3E7"/>
		</linearGradient>
		<path class="st1" d="M403.1,630.11c90.07,0,163.31-73.24,163.31-163.31S493.16,303.49,403.1,303.49S239.79,376.73,239.79,466.8
			S313.11,630.11,403.1,630.11z M403.1,322.59c79.52,0,144.21,64.7,144.21,144.21c0,79.52-64.7,144.21-144.21,144.21
			s-144.21-64.7-144.21-144.21C258.88,387.28,323.58,322.59,403.1,322.59z"/>
		
			<linearGradient id="SVGID_2_" gradientUnits="userSpaceOnUse" x1="631.5471" y1="-7961.3442" x2="1367.4489" y2="-7961.3442" gradientTransform="matrix(0.8719 0 0 0.8719 -375.7408 7707.3398)">
			<stop  offset="0" style="stop-color:#304F9E"/>
			<stop  offset="0.514" style="stop-color:#6A4293"/>
			<stop  offset="1" style="stop-color:#5AC3E7"/>
		</linearGradient>
		<path class="st2" d="M807.84,623.4c-58.59-4.71-107.51-12.12-159.39-59.64c-3.66-3.31-9.24-3.31-12.9,0
			c-51.88,47.52-100.79,54.84-159.39,59.64c-4.97,0.44-8.81,4.53-8.81,9.5c0,2.09,0.09,4.01,0.09,6.02
			c-2.35-0.09-4.8-0.26-7.15-0.26H345.81c-94.25,0-170.9,76.64-170.9,170.9v71.32H518.8v-3.14c9.94,17,21.1,32.09,33.83,45.08
			c43.33,44.29,87.02,47.26,88.76,47.35c0.17,0,0.35,0,0.52,0s0.35,0,0.52,0c1.83-0.09,45.43-3.05,88.85-47.35
			c12.03-12.29,23.02-26.77,32.78-43.33l1.31-2.27c1.22-2.09,2.44-4.27,3.66-6.54c12.21-22.58,22.15-48.57,29.56-77.25
			c0.7-2.79,1.48-5.75,2.27-8.81c3.4-14.3,6.19-29.03,8.28-43.6c0.52-2.96,0.96-5.93,1.22-8.89c1.74-12.56,3.05-25.29,3.92-37.49
			c0.26-2.96,0.52-6.02,0.61-8.81c1.13-16.22,1.66-34.09,1.66-53.1C816.65,627.93,812.81,623.75,807.84,623.4z M194.1,861.78v-52.23
			c0-83.7,68.1-151.8,151.8-151.8h114.48c2.44,0,4.97,0.17,7.41,0.26c2.35,83.62,16.57,151.71,42.46,203.77H194.1L194.1,861.78z
			 M795.89,684.87c-0.09,2.7-0.35,5.41-0.61,8.37c-0.87,12.03-2.09,24.33-3.84,36.71c-0.35,2.7-0.7,5.41-1.13,8.28
			c-2.09,14.21-4.8,28.42-8.02,42.03c-0.7,2.88-1.4,5.75-2.18,8.46c-7.06,27.2-16.39,51.79-27.81,73.07
			c-1.13,2.09-2.27,4.01-3.4,6.02l-1.22,2.18c-8.89,15.08-19.01,28.34-29.91,39.58c-35.49,36.18-70.97,41.07-75.68,41.59
			c-10.11-1.05-152.59-21.19-155.46-309.44c45.6-3.84,100.36-10.9,155.46-58.07c55.11,47.26,109.86,54.23,155.46,58.07
			C797.38,656.97,796.77,671.44,795.89,684.87z"/>
		
			<linearGradient id="SVGID_3_" gradientUnits="userSpaceOnUse" x1="631.6503" y1="-7955.0166" x2="1367.5162" y2="-7955.0166" gradientTransform="matrix(0.8719 0 0 0.8719 -375.7408 7707.3398)">
			<stop  offset="0" style="stop-color:#304F9E"/>
			<stop  offset="0.514" style="stop-color:#6A4293"/>
			<stop  offset="1" style="stop-color:#5AC3E7"/>
		</linearGradient>
		<path class="st3" d="M594.22,775.63c-1.22-0.96-2.88,0.78-1.92,2.01l30.52,39.32c1.57,2.09,4.71,2.01,6.19-0.09l65.13-90.68
			c1.05-1.4-1.05-3.05-2.18-1.74l-67.49,71.93L594.22,775.63z"/>
		
			<linearGradient id="SVGID_4_" gradientUnits="userSpaceOnUse" x1="631.6503" y1="-7952.4692" x2="1367.5162" y2="-7952.4692" gradientTransform="matrix(0.8719 0 0 0.8719 -375.7408 7707.3398)">
			<stop  offset="0" style="stop-color:#304F9E"/>
			<stop  offset="0.514" style="stop-color:#6A4293"/>
			<stop  offset="1" style="stop-color:#5AC3E7"/>
		</linearGradient>
		<path class="st4" d="M544.08,773.45c0,53.97,43.94,98,98,98s98-43.94,98-98c0-53.97-43.94-98-98-98S544.08,719.48,544.08,773.45z
			 M720.91,773.45c0,43.51-35.4,78.82-78.91,78.82c-43.51,0-78.91-35.4-78.91-78.82c0-43.51,35.4-78.91,78.91-78.91
			C685.51,694.63,720.91,729.95,720.91,773.45z"/>
	</g>
</g>
</svg>
