<?xml version="1.0" encoding="utf-8"?>
<!-- Generator: Adobe Illustrator 24.3.0, SVG Export Plug-In . SVG Version: 6.00 Build 0)  -->
<svg version="1.1" id="Capa_1" xmlns="http://www.w3.org/2000/svg" xmlns:xlink="http://www.w3.org/1999/xlink" x="0px" y="0px"
	 viewBox="0 0 1080 1080" style="enable-background:new 0 0 1080 1080;" xml:space="preserve">
<style type="text/css">
	.st0{fill:#1E1E1C;}
	.st1{fill:url(#SVGID_1_);}
	.st2{fill:url(#SVGID_2_);}
	.st3{fill:url(#SVGID_3_);}
	.st4{fill:url(#SVGID_4_);}
	.st5{fill:url(#SVGID_5_);}
	.st6{fill:url(#SVGID_6_);}
	.st7{fill:#020203;}
	.st8{fill:url(#SVGID_7_);}
	.st9{fill:url(#SVGID_8_);}
	.st10{fill:url(#SVGID_9_);}
	.st11{fill:url(#SVGID_10_);}
	.st12{fill:url(#SVGID_11_);}
	.st13{fill:url(#SVGID_12_);}
	.st14{fill:url(#SVGID_13_);}
	.st15{fill:url(#SVGID_14_);}
	.st16{fill:url(#SVGID_15_);}
	.st17{fill:url(#SVGID_16_);}
	.st18{fill:url(#SVGID_17_);}
	.st19{fill:url(#SVGID_18_);}
	.st20{fill:url(#SVGID_19_);}
	.st21{fill:url(#SVGID_20_);}
	.st22{fill:url(#SVGID_21_);}
	.st23{fill:url(#SVGID_22_);}
	.st24{fill:url(#SVGID_23_);}
	.st25{fill:url(#SVGID_24_);}
	.st26{fill:url(#SVGID_25_);}
	.st27{fill:url(#SVGID_26_);}
	.st28{fill:url(#SVGID_27_);}
	.st29{fill:url(#SVGID_28_);}
	.st30{fill:url(#SVGID_29_);}
	.st31{fill:url(#SVGID_30_);}
	.st32{fill:url(#SVGID_31_);}
	.st33{fill:url(#SVGID_32_);}
	.st34{fill:url(#SVGID_33_);}
	.st35{fill:url(#SVGID_34_);}
	.st36{fill:url(#SVGID_35_);}
	.st37{fill:url(#SVGID_36_);}
	.st38{fill:url(#SVGID_37_);}
	.st39{fill:url(#SVGID_38_);}
	.st40{fill:url(#SVGID_39_);}
	.st41{fill:url(#SVGID_40_);}
	.st42{fill:url(#SVGID_41_);}
	.st43{fill:url(#SVGID_42_);}
	.st44{fill:url(#SVGID_43_);}
	.st45{fill:url(#SVGID_44_);}
	.st46{fill:url(#SVGID_45_);}
	.st47{fill:url(#SVGID_46_);}
	.st48{fill:url(#SVGID_47_);}
	.st49{fill:url(#SVGID_48_);}
	.st50{fill:url(#SVGID_49_);}
	.st51{fill:url(#SVGID_50_);}
	.st52{fill:url(#SVGID_51_);}
	.st53{fill:url(#SVGID_52_);}
	.st54{fill:url(#SVGID_53_);}
	.st55{fill:url(#SVGID_54_);}
	.st56{fill:url(#SVGID_55_);}
	.st57{fill:url(#SVGID_56_);}
	.st58{fill:url(#SVGID_57_);}
	.st59{fill:url(#SVGID_58_);}
	.st60{fill:url(#SVGID_59_);}
	.st61{fill:url(#SVGID_60_);}
	.st62{fill:url(#SVGID_61_);}
</style>
<g>
	<g>
		<path class="st7" d="M650.04,450.46v-88.67l-47.35-7.93c-2.01-5.58-4.27-11.07-6.8-16.3l27.9-39.15l-62.6-62.6l-39.15,27.9
			c-0.44-0.17-0.78-0.35-1.13-0.52c-2.35-1.13-4.71-2.18-6.89-3.14l-1.83-0.7l0,0c-2.01-0.78-4.19-1.57-6.45-2.44l-6.45-38.28
			l-1.48-9.07h-88.67l-7.85,47.26c-5.67,1.92-11.25,4.27-16.57,6.8l-39.06-27.9l-62.6,62.78l27.81,39.06
			c-2.53,5.23-4.8,10.64-6.8,16.3l-47.26,7.93v88.67l47.26,7.93c2.01,5.67,4.27,11.16,6.8,16.39l-27.9,39.06l62.6,62.6l12.12-8.63
			V867.5h1.4l94.34,191.3l94.25-191.3h1.4V568l11.95,8.54l62.78-62.6l-27.81-39.06c2.62-5.32,4.88-10.81,6.8-16.48L650.04,450.46z
			 M384.63,548.73c5.32,2.53,10.81,4.8,16.39,6.8l7.93,47.26h5.41v245.71H376.7V554.31L384.63,548.73z M433.55,602.79h39.67v245.71
			h-39.67V602.79z M481.33,958.96c-0.17,0.44-0.44,0.78-0.7,1.13h-54.58c-0.17-0.44-0.52-0.78-0.7-1.13l-44.99-91.29h34.09h77.86
			h34.09L481.33,958.96z M529.98,848.58h-37.67V602.87h5.41l7.93-47.26c5.58-1.92,11.16-4.19,16.48-6.8l7.85,5.58V848.58z
			 M598.86,511.85l-39.85,39.76l-35.4-25.29l-5.23,2.88c-7.59,4.1-15.61,7.41-23.89,9.94l-5.67,1.66l-7.24,42.9h-56.33l-7.24-42.9
			l-5.67-1.74c-8.46-2.62-16.48-5.93-23.98-9.94l-5.23-2.79l-35.4,25.29l-39.76-39.76l25.29-35.49l-2.79-5.23
			c-4.01-7.5-7.32-15.61-9.94-23.98l-1.74-5.67l-42.9-7.24v-56.33l42.9-7.24l1.74-5.67c2.62-8.54,5.93-16.48,9.94-23.8l2.88-5.23
			l-25.29-35.49l39.76-39.85l35.4,25.29l5.23-2.79c7.5-4.01,15.61-7.41,24.06-9.94l5.67-1.74l7.15-42.9h56.33l6.1,37.06l1.4,8.02
			h6.54c4.19,1.4,7.67,2.7,10.9,4.01l1.57,0.61c1.4,0.61,2.88,1.31,4.62,2.09c1.4,0.61,2.79,1.31,4.19,2.01l6.89,3.4l35.31-25.2
			l39.76,39.76l-25.29,35.57l2.79,5.23c4.01,7.41,7.32,15.52,9.94,23.89l1.74,5.58l42.81,7.24v56.33l-42.9,7.24l-1.66,5.67
			c-2.44,8.28-5.75,16.3-9.94,23.89l-2.88,5.23L598.86,511.85z"/>
		<path class="st7" d="M453.34,285.15c-66.79,0-121.02,54.32-121.02,121.02c0,28.08,9.77,55.37,27.55,76.82
			c16.04,19.53,37.32,33.39,61.56,40.02c10.11,2.79,20.93,4.27,31.91,4.27s21.8-1.4,31.91-4.27c11.86-3.23,23.02-8.2,33.22-14.74
			c10.64-6.8,20.23-15.26,28.34-25.2l0,0l0,0c1.31-1.57,2.44-3.23,3.57-4.8c0.87-1.22,1.83-2.27,2.62-3.49
			c0.61-0.96,1.13-1.92,1.74-2.79c1.31-2.01,2.62-3.92,3.75-5.93c0.35-0.52,0.61-1.13,0.87-1.74c7.93-14.56,12.9-30.78,14.39-47.43
			c0.35-3.49,0.44-6.98,0.44-10.46C574.45,339.38,520.13,285.15,453.34,285.15z M453.34,508.1c-9.16,0-18.4-1.22-26.86-3.57
			c-20.49-5.58-38.36-17.26-51.88-33.74c-14.91-18.05-23.19-41.07-23.19-64.61c0-56.24,45.78-101.93,101.93-101.93
			c56.24,0,101.93,45.69,101.93,101.93c0,3.14-0.17,6.28-0.44,9.42c-1.92,20.23-9.77,39.58-22.76,55.28
			c-5.06,6.19-10.72,11.68-16.92,16.39c-10.38,7.93-22.15,13.78-34.96,17.26c-4.27,1.22-8.63,2.09-13.17,2.7
			C462.58,507.83,457.96,508.1,453.34,508.1z"/>
	</g>
	<g>
		
			<linearGradient id="SVGID_1_" gradientUnits="userSpaceOnUse" x1="-557.1095" y1="-7950.6196" x2="-106.1095" y2="-7950.6196" gradientTransform="matrix(0.8719 0 0 0.8719 742.5607 7566.4473)">
			<stop  offset="0" style="stop-color:#304F9E"/>
			<stop  offset="0.514" style="stop-color:#6A4293"/>
			<stop  offset="1" style="stop-color:#5AC3E7"/>
		</linearGradient>
		<path class="st1" d="M650.04,450.46v-88.67l-47.35-7.93c-2.01-5.58-4.27-11.07-6.8-16.3l27.9-39.15l-62.6-62.6l-39.15,27.9
			c-0.44-0.17-0.78-0.35-1.13-0.52c-2.35-1.13-4.71-2.18-6.89-3.14l-1.83-0.7l0,0c-2.01-0.78-4.19-1.57-6.45-2.44l-6.45-38.28
			l-1.48-9.07h-88.67l-7.85,47.26c-5.67,1.92-11.25,4.27-16.57,6.8l-39.06-27.9l-62.6,62.78l27.81,39.06
			c-2.53,5.23-4.8,10.64-6.8,16.3l-47.26,7.93v88.67l47.26,7.93c2.01,5.67,4.27,11.16,6.8,16.39l-27.9,39.06l62.6,62.6l12.12-8.63
			V867.5h1.4l94.34,191.3l94.25-191.3h1.4V568l11.95,8.54l62.78-62.6l-27.81-39.06c2.62-5.32,4.88-10.81,6.8-16.48L650.04,450.46z
			 M384.63,548.73c5.32,2.53,10.81,4.8,16.39,6.8l7.93,47.26h5.41v245.71H376.7V554.31L384.63,548.73z M433.55,602.79h39.67v245.71
			h-39.67V602.79z M481.33,958.96c-0.17,0.44-0.44,0.78-0.7,1.13h-54.58c-0.17-0.44-0.52-0.78-0.7-1.13l-44.99-91.29h34.09h77.86
			h34.09L481.33,958.96z M529.98,848.58h-37.67V602.87h5.41l7.93-47.26c5.58-1.92,11.16-4.19,16.48-6.8l7.85,5.58V848.58z
			 M598.86,511.85l-39.85,39.76l-35.4-25.29l-5.23,2.88c-7.59,4.1-15.61,7.41-23.89,9.94l-5.67,1.66l-7.24,42.9h-56.33l-7.24-42.9
			l-5.67-1.74c-8.46-2.62-16.48-5.93-23.98-9.94l-5.23-2.79l-35.4,25.29l-39.76-39.76l25.29-35.49l-2.79-5.23
			c-4.01-7.5-7.32-15.61-9.94-23.98l-1.74-5.67l-42.9-7.24v-56.33l42.9-7.24l1.74-5.67c2.62-8.54,5.93-16.48,9.94-23.8l2.88-5.23
			l-25.29-35.49l39.76-39.85l35.4,25.29l5.23-2.79c7.5-4.01,15.61-7.41,24.06-9.94l5.67-1.74l7.15-42.9h56.33l6.1,37.06l1.4,8.02
			h6.54c4.19,1.4,7.67,2.7,10.9,4.01l1.57,0.61c1.4,0.61,2.88,1.31,4.62,2.09c1.4,0.61,2.79,1.31,4.19,2.01l6.89,3.4l35.31-25.2
			l39.76,39.76l-25.29,35.57l2.79,5.23c4.01,7.41,7.32,15.52,9.94,23.89l1.74,5.58l42.81,7.24v56.33l-42.9,7.24l-1.66,5.67
			c-2.44,8.28-5.75,16.3-9.94,23.89l-2.88,5.23L598.86,511.85z"/>
		
			<linearGradient id="SVGID_2_" gradientUnits="userSpaceOnUse" x1="-557.2174" y1="-8212.0693" x2="-106.1437" y2="-8212.0693" gradientTransform="matrix(0.8719 0 0 0.8719 742.5607 7566.4473)">
			<stop  offset="0" style="stop-color:#304F9E"/>
			<stop  offset="0.514" style="stop-color:#6A4293"/>
			<stop  offset="1" style="stop-color:#5AC3E7"/>
		</linearGradient>
		<path class="st2" d="M453.34,285.15c-66.79,0-121.02,54.32-121.02,121.02c0,28.08,9.77,55.37,27.55,76.82
			c16.04,19.53,37.32,33.39,61.56,40.02c10.11,2.79,20.93,4.27,31.91,4.27s21.8-1.4,31.91-4.27c11.86-3.23,23.02-8.2,33.22-14.74
			c10.64-6.8,20.23-15.26,28.34-25.2l0,0l0,0c1.31-1.57,2.44-3.23,3.57-4.8c0.87-1.22,1.83-2.27,2.62-3.49
			c0.61-0.96,1.13-1.92,1.74-2.79c1.31-2.01,2.62-3.92,3.75-5.93c0.35-0.52,0.61-1.13,0.87-1.74c7.93-14.56,12.9-30.78,14.39-47.43
			c0.35-3.49,0.44-6.98,0.44-10.46C574.45,339.38,520.13,285.15,453.34,285.15z M453.34,508.1c-9.16,0-18.4-1.22-26.86-3.57
			c-20.49-5.58-38.36-17.26-51.88-33.74c-14.91-18.05-23.19-41.07-23.19-64.61c0-56.24,45.78-101.93,101.93-101.93
			c56.24,0,101.93,45.69,101.93,101.93c0,3.14-0.17,6.28-0.44,9.42c-1.92,20.23-9.77,39.58-22.76,55.28
			c-5.06,6.19-10.72,11.68-16.92,16.39c-10.38,7.93-22.15,13.78-34.96,17.26c-4.27,1.22-8.63,2.09-13.17,2.7
			C462.58,507.83,457.96,508.1,453.34,508.1z"/>
	</g>
</g>
</svg>
