<?xml version="1.0" encoding="utf-8"?>
<!-- Generator: Adobe Illustrator 24.3.0, SVG Export Plug-In . SVG Version: 6.00 Build 0)  -->
<svg version="1.1" id="Capa_1" xmlns="http://www.w3.org/2000/svg" xmlns:xlink="http://www.w3.org/1999/xlink" x="0px" y="0px"
	 viewBox="0 0 1080 1080" style="enable-background:new 0 0 1080 1080;" xml:space="preserve">
<style type="text/css">
	.st0{fill:#1E1E1C;}
	.st1{fill:url(#SVGID_1_);}
	.st2{fill:url(#SVGID_2_);}
	.st3{fill:url(#SVGID_3_);}
	.st4{fill:url(#SVGID_4_);}
	.st5{fill:url(#SVGID_5_);}
	.st6{fill:url(#SVGID_6_);}
	.st7{fill:#020203;}
	.st8{fill:url(#SVGID_7_);}
	.st9{fill:url(#SVGID_8_);}
	.st10{fill:url(#SVGID_9_);}
	.st11{fill:url(#SVGID_10_);}
	.st12{fill:url(#SVGID_11_);}
	.st13{fill:url(#SVGID_12_);}
	.st14{fill:url(#SVGID_13_);}
	.st15{fill:url(#SVGID_14_);}
	.st16{fill:url(#SVGID_15_);}
	.st17{fill:url(#SVGID_16_);}
	.st18{fill:url(#SVGID_17_);}
	.st19{fill:url(#SVGID_18_);}
	.st20{fill:url(#SVGID_19_);}
	.st21{fill:url(#SVGID_20_);}
	.st22{fill:url(#SVGID_21_);}
	.st23{fill:url(#SVGID_22_);}
	.st24{fill:url(#SVGID_23_);}
	.st25{fill:url(#SVGID_24_);}
	.st26{fill:url(#SVGID_25_);}
	.st27{fill:url(#SVGID_26_);}
	.st28{fill:url(#SVGID_27_);}
	.st29{fill:url(#SVGID_28_);}
	.st30{fill:url(#SVGID_29_);}
	.st31{fill:url(#SVGID_30_);}
	.st32{fill:url(#SVGID_31_);}
	.st33{fill:url(#SVGID_32_);}
	.st34{fill:url(#SVGID_33_);}
	.st35{fill:url(#SVGID_34_);}
	.st36{fill:url(#SVGID_35_);}
	.st37{fill:url(#SVGID_36_);}
	.st38{fill:url(#SVGID_37_);}
	.st39{fill:url(#SVGID_38_);}
	.st40{fill:url(#SVGID_39_);}
	.st41{fill:url(#SVGID_40_);}
	.st42{fill:url(#SVGID_41_);}
	.st43{fill:url(#SVGID_42_);}
	.st44{fill:url(#SVGID_43_);}
	.st45{fill:url(#SVGID_44_);}
	.st46{fill:url(#SVGID_45_);}
	.st47{fill:url(#SVGID_46_);}
	.st48{fill:url(#SVGID_47_);}
	.st49{fill:url(#SVGID_48_);}
	.st50{fill:url(#SVGID_49_);}
	.st51{fill:url(#SVGID_50_);}
	.st52{fill:url(#SVGID_51_);}
	.st53{fill:url(#SVGID_52_);}
	.st54{fill:url(#SVGID_53_);}
	.st55{fill:url(#SVGID_54_);}
	.st56{fill:url(#SVGID_55_);}
	.st57{fill:url(#SVGID_56_);}
	.st58{fill:url(#SVGID_57_);}
	.st59{fill:url(#SVGID_58_);}
	.st60{fill:url(#SVGID_59_);}
	.st61{fill:url(#SVGID_60_);}
	.st62{fill:url(#SVGID_61_);}
</style>
<g>
	<g>
		<path class="st7" d="M874.73,458.78c0-21.62,0-43.86-0.35-65.83c-0.26-15-6.8-28.77-19.01-39.76
			c-11.6-10.38-24.41-15.78-38.36-16.13h-35.57l0,0H585.78c-62.17,0-124.34,0-186.5-0.09c-0.09,0-0.09,0-0.17,0
			c-21.97,0-38.45,7.32-50.22,22.5c-10.46,13.43-11.77,28.69-11.86,39.06c-0.78,102.45-2.35,326.62-2.7,375.19h-77.16l-0.17,9.42
			c-0.09,2.44-1.13,59.64,1.13,77.6c4.88,39.41,40.54,69.06,83.09,69.06c0.17,0,0.35,0,0.52,0c93.64-0.61,322.26-0.26,350.07-0.17
			h0.09c0,0,0,0,0.09,0c1.57,0,2.53,0,2.62,0v-0.17c21.62-0.7,42.99-9.59,57.2-26.33c14.3-16.83,21.19-36.1,21.19-58.94
			c-0.09-83.27-0.09-166.54-0.09-249.8c0-33.39,0-66.7,0-100.1h91.9l7.5-0.44l1.83-7.15c0.26-0.87,0.78-2.35,0.78-4.27
			L874.73,458.78z M341.56,910.69c-0.17,0-0.26,0-0.44,0c-32.87,0-60.42-22.41-64.17-52.31c-1.57-12.56-1.31-48.39-1.13-65.57h73.76
			v-0.17c35.23,0,217.54,0.09,261.49,0.17c0,14.74-0.09,42.29-0.09,51.97c-0.17,26.51,9.85,48.48,29.38,65.66
			C560.41,910.35,412.36,910.26,341.56,910.69z M737.23,890.73c-19.36,22.76-58.33,26.42-81.7,7.59
			c-17.26-13.86-25.55-31.3-25.46-53.45c0.09-13.43,0.09-61.56,0.09-61.56v-9.5h-9.59c0,0-218.5-0.09-267.33-0.17
			c0.35-48.91,1.92-272.65,2.7-374.92c0.09-12.12,2.53-20.58,7.85-27.38c8.2-10.46,19.09-15.17,35.23-15.17h0.09
			c62.17,0.09,124.34,0.09,186.59,0.09h179.88c-8.11,13.43-12.03,28.6-12.03,46.3c0.09,64,0.09,127.91,0.09,191.91
			c0,83.27,0,166.54,0.09,249.8C753.89,862.3,748.39,877.56,737.23,890.73z M772.81,475.26c0-24.24,0-48.48,0-72.72
			c0-14.82,3.31-27.29,10.2-38.02c1.66-2.53,3.4-4.97,5.41-7.76c0.17-0.17,0.35-0.44,0.44-0.7h27.99
			c9.07,0.17,17.79,4.01,25.9,11.25c8.28,7.41,12.47,16.04,12.64,25.81c0.35,21.8,0.35,44.03,0.35,65.57v16.48L772.81,475.26
			L772.81,475.26z"/>
		<path class="st7" d="M696.51,694.55H408.87c-5.32,0-9.59,4.27-9.59,9.5c0,5.32,4.27,9.59,9.59,9.59h287.65
			c5.32,0,9.59-4.27,9.59-9.59C706.1,698.82,701.83,694.55,696.51,694.55z"/>
		<path class="st7" d="M696.51,736.92H408.87c-5.32,0-9.59,4.27-9.59,9.59c0,5.23,4.27,9.5,9.59,9.5h287.65
			c5.32,0,9.59-4.27,9.59-9.5C706.1,741.19,701.83,736.92,696.51,736.92z"/>
		<path class="st7" d="M552.21,663.33c0.17,0,0.35,0,0.52,0s0.35,0,0.52,0c1.31-0.09,32-2.09,62.25-32.96
			c8.37-8.54,15.96-18.57,22.76-29.99l0.87-1.48c0.87-1.48,1.74-2.96,2.53-4.53c8.37-15.52,15.17-33.39,20.23-53.01
			c0.52-1.92,1.05-3.92,1.57-6.02c2.27-9.77,4.18-19.79,5.67-29.73c0.35-2.09,0.61-4.19,0.87-6.1c1.13-8.63,2.09-17.26,2.62-25.55
			c0.17-2.09,0.35-4.19,0.44-6.02c0.78-11.07,1.13-23.28,1.13-36.18c0-4.97-3.84-9.16-8.81-9.5c-39.06-3.14-71.76-8.11-106.2-39.59
			c-3.66-3.31-9.24-3.31-12.9,0c-34.44,31.48-67.14,36.45-106.2,39.59c-4.97,0.44-8.81,4.53-8.81,9.5
			C431.28,653.92,547.24,663.07,552.21,663.33z M552.73,402.28c36.27,30.17,72.02,35.49,102.28,38.19
			c-0.17,9.24-0.52,18.05-1.05,26.33c-0.09,1.74-0.17,3.57-0.44,5.58c-0.61,8.11-1.4,16.39-2.53,24.76
			c-0.17,1.83-0.44,3.57-0.78,5.49c-1.4,9.59-3.23,19.1-5.32,28.16c-0.52,1.92-0.96,3.84-1.48,5.75
			c-4.71,18.22-10.99,34.62-18.66,48.83c-0.78,1.4-1.48,2.7-2.27,4.01l-0.87,1.48c-5.93,10.03-12.56,18.83-19.88,26.16
			c-23.02,23.45-45.34,26.85-49.09,27.2c-9.16-0.96-99.49-15.08-102.28-203.77C480.63,437.77,516.46,432.45,552.73,402.28z"/>
		<path class="st7" d="M586.57,493.74l-45.78,48.74l-20.49-14.04c-0.87-0.61-1.92,0.52-1.31,1.4l20.66,26.68
			c1.05,1.4,3.23,1.31,4.18-0.09l44.12-61.47C588.74,494.01,587.26,492.87,586.57,493.74z"/>
		<path class="st7" d="M622.23,526.96c0-38.28-31.13-69.49-69.49-69.49s-69.49,31.13-69.49,69.49c0,38.36,31.13,69.49,69.49,69.49
			C591.01,596.46,622.23,565.24,622.23,526.96z M502.34,526.96c0-27.81,22.58-50.4,50.4-50.4s50.4,22.58,50.4,50.4
			c0,27.81-22.58,50.4-50.4,50.4S502.34,554.69,502.34,526.96z"/>
	</g>
	<g>
		
			<linearGradient id="SVGID_1_" gradientUnits="userSpaceOnUse" x1="240.5368" y1="-8113.1191" x2="949.5994" y2="-8113.1191" gradientTransform="matrix(0.8719 0 0 0.8719 46.9365 7707.3398)">
			<stop  offset="0" style="stop-color:#304F9E"/>
			<stop  offset="0.514" style="stop-color:#6A4293"/>
			<stop  offset="1" style="stop-color:#5AC3E7"/>
		</linearGradient>
		<path class="st1" d="M874.73,458.78c0-21.62,0-43.86-0.35-65.83c-0.26-15-6.8-28.77-19.01-39.76
			c-11.6-10.38-24.41-15.78-38.36-16.13h-35.57l0,0H585.78c-62.17,0-124.34,0-186.5-0.09c-0.09,0-0.09,0-0.17,0
			c-21.97,0-38.45,7.32-50.22,22.5c-10.46,13.43-11.77,28.69-11.86,39.06c-0.78,102.45-2.35,326.62-2.7,375.19h-77.16l-0.17,9.42
			c-0.09,2.44-1.13,59.64,1.13,77.6c4.88,39.41,40.54,69.06,83.09,69.06c0.17,0,0.35,0,0.52,0c93.64-0.61,322.26-0.26,350.07-0.17
			h0.09c0,0,0,0,0.09,0c1.57,0,2.53,0,2.62,0v-0.17c21.62-0.7,42.99-9.59,57.2-26.33c14.3-16.83,21.19-36.1,21.19-58.94
			c-0.09-83.27-0.09-166.54-0.09-249.8c0-33.39,0-66.7,0-100.1h91.9l7.5-0.44l1.83-7.15c0.26-0.87,0.78-2.35,0.78-4.27
			L874.73,458.78z M341.56,910.69c-0.17,0-0.26,0-0.44,0c-32.87,0-60.42-22.41-64.17-52.31c-1.57-12.56-1.31-48.39-1.13-65.57h73.76
			v-0.17c35.23,0,217.54,0.09,261.49,0.17c0,14.74-0.09,42.29-0.09,51.97c-0.17,26.51,9.85,48.48,29.38,65.66
			C560.41,910.35,412.36,910.26,341.56,910.69z M737.23,890.73c-19.36,22.76-58.33,26.42-81.7,7.59
			c-17.26-13.86-25.55-31.3-25.46-53.45c0.09-13.43,0.09-61.56,0.09-61.56v-9.5h-9.59c0,0-218.5-0.09-267.33-0.17
			c0.35-48.91,1.92-272.65,2.7-374.92c0.09-12.12,2.53-20.58,7.85-27.38c8.2-10.46,19.09-15.17,35.23-15.17h0.09
			c62.17,0.09,124.34,0.09,186.59,0.09h179.88c-8.11,13.43-12.03,28.6-12.03,46.3c0.09,64,0.09,127.91,0.09,191.91
			c0,83.27,0,166.54,0.09,249.8C753.89,862.3,748.39,877.56,737.23,890.73z M772.81,475.26c0-24.24,0-48.48,0-72.72
			c0-14.82,3.31-27.29,10.2-38.02c1.66-2.53,3.4-4.97,5.41-7.76c0.17-0.17,0.35-0.44,0.44-0.7h27.99
			c9.07,0.17,17.79,4.01,25.9,11.25c8.28,7.41,12.47,16.04,12.64,25.81c0.35,21.8,0.35,44.03,0.35,65.57v16.48L772.81,475.26
			L772.81,475.26z"/>
		
			<linearGradient id="SVGID_2_" gradientUnits="userSpaceOnUse" x1="240.4551" y1="-8032.019" x2="949.4754" y2="-8032.019" gradientTransform="matrix(0.8719 0 0 0.8719 46.9365 7707.3398)">
			<stop  offset="0" style="stop-color:#304F9E"/>
			<stop  offset="0.514" style="stop-color:#6A4293"/>
			<stop  offset="1" style="stop-color:#5AC3E7"/>
		</linearGradient>
		<path class="st2" d="M696.51,694.55H408.87c-5.32,0-9.59,4.27-9.59,9.5c0,5.32,4.27,9.59,9.59,9.59h287.65
			c5.32,0,9.59-4.27,9.59-9.59C706.1,698.82,701.83,694.55,696.51,694.55z"/>
		
			<linearGradient id="SVGID_3_" gradientUnits="userSpaceOnUse" x1="240.4551" y1="-7983.4189" x2="949.4754" y2="-7983.4189" gradientTransform="matrix(0.8719 0 0 0.8719 46.9365 7707.3398)">
			<stop  offset="0" style="stop-color:#304F9E"/>
			<stop  offset="0.514" style="stop-color:#6A4293"/>
			<stop  offset="1" style="stop-color:#5AC3E7"/>
		</linearGradient>
		<path class="st3" d="M696.51,736.92H408.87c-5.32,0-9.59,4.27-9.59,9.59c0,5.23,4.27,9.5,9.59,9.5h287.65
			c5.32,0,9.59-4.27,9.59-9.5C706.1,741.19,701.83,736.92,696.51,736.92z"/>
		
			<linearGradient id="SVGID_4_" gradientUnits="userSpaceOnUse" x1="240.4551" y1="-8241.1445" x2="949.4754" y2="-8241.1445" gradientTransform="matrix(0.8719 0 0 0.8719 46.9365 7707.3398)">
			<stop  offset="0" style="stop-color:#304F9E"/>
			<stop  offset="0.514" style="stop-color:#6A4293"/>
			<stop  offset="1" style="stop-color:#5AC3E7"/>
		</linearGradient>
		<path class="st4" d="M552.21,663.33c0.17,0,0.35,0,0.52,0s0.35,0,0.52,0c1.31-0.09,32-2.09,62.25-32.96
			c8.37-8.54,15.96-18.57,22.76-29.99l0.87-1.48c0.87-1.48,1.74-2.96,2.53-4.53c8.37-15.52,15.17-33.39,20.23-53.01
			c0.52-1.92,1.05-3.92,1.57-6.02c2.27-9.77,4.18-19.79,5.67-29.73c0.35-2.09,0.61-4.19,0.87-6.1c1.13-8.63,2.09-17.26,2.62-25.55
			c0.17-2.09,0.35-4.19,0.44-6.02c0.78-11.07,1.13-23.28,1.13-36.18c0-4.97-3.84-9.16-8.81-9.5c-39.06-3.14-71.76-8.11-106.2-39.59
			c-3.66-3.31-9.24-3.31-12.9,0c-34.44,31.48-67.14,36.45-106.2,39.59c-4.97,0.44-8.81,4.53-8.81,9.5
			C431.28,653.92,547.24,663.07,552.21,663.33z M552.73,402.28c36.27,30.17,72.02,35.49,102.28,38.19
			c-0.17,9.24-0.52,18.05-1.05,26.33c-0.09,1.74-0.17,3.57-0.44,5.58c-0.61,8.11-1.4,16.39-2.53,24.76
			c-0.17,1.83-0.44,3.57-0.78,5.49c-1.4,9.59-3.23,19.1-5.32,28.16c-0.52,1.92-0.96,3.84-1.48,5.75
			c-4.71,18.22-10.99,34.62-18.66,48.83c-0.78,1.4-1.48,2.7-2.27,4.01l-0.87,1.48c-5.93,10.03-12.56,18.83-19.88,26.16
			c-23.02,23.45-45.34,26.85-49.09,27.2c-9.16-0.96-99.49-15.08-102.28-203.77C480.63,437.77,516.46,432.45,552.73,402.28z"/>
		
			<linearGradient id="SVGID_5_" gradientUnits="userSpaceOnUse" x1="240.4551" y1="-8236.8721" x2="949.4754" y2="-8236.8721" gradientTransform="matrix(0.8719 0 0 0.8719 46.9365 7707.3398)">
			<stop  offset="0" style="stop-color:#304F9E"/>
			<stop  offset="0.514" style="stop-color:#6A4293"/>
			<stop  offset="1" style="stop-color:#5AC3E7"/>
		</linearGradient>
		<path class="st5" d="M586.57,493.74l-45.78,48.74l-20.49-14.04c-0.87-0.61-1.92,0.52-1.31,1.4l20.66,26.68
			c1.05,1.4,3.23,1.31,4.18-0.09l44.12-61.47C588.74,494.01,587.26,492.87,586.57,493.74z"/>
		
			<linearGradient id="SVGID_6_" gradientUnits="userSpaceOnUse" x1="240.4551" y1="-8235.1689" x2="949.4754" y2="-8235.1689" gradientTransform="matrix(0.8719 0 0 0.8719 46.9365 7707.3398)">
			<stop  offset="0" style="stop-color:#304F9E"/>
			<stop  offset="0.514" style="stop-color:#6A4293"/>
			<stop  offset="1" style="stop-color:#5AC3E7"/>
		</linearGradient>
		<path class="st6" d="M622.23,526.96c0-38.28-31.13-69.49-69.49-69.49s-69.49,31.13-69.49,69.49c0,38.36,31.13,69.49,69.49,69.49
			C591.01,596.46,622.23,565.24,622.23,526.96z M502.34,526.96c0-27.81,22.58-50.4,50.4-50.4s50.4,22.58,50.4,50.4
			c0,27.81-22.58,50.4-50.4,50.4S502.34,554.69,502.34,526.96z"/>
	</g>
</g>
</svg>
