<svg width="1080" height="1080" xmlns="http://www.w3.org/2000/svg" xml:space="preserve" version="1.1">

 <g>
  <title>Layer 1</title>
  <g id="svg_1">
   <path id="svg_2" d="m413.21998,451.46497l-62.6,66.7l-27.99,-19.18c-1.22,-0.87 -2.7,0.78 -1.74,1.92l28.25,36.45c1.48,1.92 4.36,1.83 5.75,-0.09l60.34,-84.05c0.95,-1.4 -1.05,-2.88 -2.01,-1.75z"/>
   <path id="svg_3" d="m311.02998,824.38497l82.66,0l0,-82.66l-82.66,0l0,82.66zm19.1,-63.48l44.47,0l0,44.47l-44.47,0l0,-44.47z"/>
   <rect id="svg_4" height="19.09" width="65.31" y="485.29497" x="440.94998"/>
   <rect id="svg_5" height="19.09" width="65.31" y="525.22497" x="440.94998"/>
   <path id="svg_6" d="m413.21998,590.35497l-62.6,66.7l-27.99,-19.18c-1.22,-0.87 -2.7,0.78 -1.74,1.92l28.25,36.45c1.48,1.92 4.36,1.83 5.75,-0.09l60.34,-84.05c0.95,-1.4 -1.05,-2.88 -2.01,-1.75z"/>
   <rect id="svg_7" height="19.09" width="130.61" y="624.19497" x="440.94998"/>
   <rect id="svg_8" height="19.09" width="65.31" y="664.12497" x="440.94998"/>
   <rect id="svg_9" height="19.09" width="130.61" y="763.08497" x="440.94998"/>
   <rect id="svg_10" height="19.09" width="65.31" y="803.02497" x="440.94998"/>
   <path id="svg_11" d="m662.32998,264.17497c-55.28,0 -100.27,44.99 -100.27,100.27s44.99,100.27 100.27,100.27c55.28,0 100.27,-44.99 100.27,-100.27c-0.09,-55.28 -45.08,-100.27 -100.27,-100.27zm0,181.45c-44.73,0 -81.18,-36.45 -81.18,-81.18c0,-44.73 36.45,-81.18 81.18,-81.18s81.18,36.45 81.18,81.18c-0.1,44.73 -36.45,81.18 -81.18,81.18z"/>
   <path id="svg_12" d="m824.06998,402.02497l0,-75.07l-38.97,-6.54c-1.4,-3.92 -2.96,-7.76 -4.8,-11.6l22.93,-32.17l-53.1,-53.1l-32.17,22.93c-3.75,-1.83 -7.67,-3.4 -11.6,-4.8l-6.54,-38.89l-75.16,0l-6.54,38.89c-3.92,1.4 -7.85,3.05 -11.6,4.8l-32.17,-22.93l-53.1,53.1l21.01,29.47l-286.33,0l0,571.1l442.84,0l0,-350.94l1.05,0l6.54,-38.89c3.92,-1.4 7.85,-3.05 11.6,-4.8l32.09,22.93l53.1,-53.1l-22.93,-32.09c1.83,-3.84 3.4,-7.67 4.8,-11.6l39.05,-6.7zm-144.39,456.1l-404.66,0l0,-532.91l235.59,0l-10.11,1.74l0,75.07l38.97,6.54c1.4,3.92 3.05,7.76 4.8,11.6l-22.93,32.17l53.1,53.1l32.17,-22.93c3.75,1.74 7.67,3.4 11.6,4.8l6.54,38.97l54.93,0l0,331.85zm98.61,-407.88l-30.26,30.26l-28.42,-20.32l-5.23,2.79c-6.1,3.31 -12.64,5.93 -19.18,7.93l-5.67,1.74l-5.84,34.53l-42.81,0l-5.84,-34.53l-5.67,-1.74c-6.63,-2.09 -13.08,-4.71 -19.18,-8.02l-5.23,-2.79l-28.51,20.32l-30.26,-30.26l20.32,-28.51l-2.79,-5.23c-3.23,-6.1 -5.93,-12.56 -8.02,-19.18l-1.74,-5.67l-34.53,-5.84l0,-42.81l34.53,-5.75l1.74,-5.67c2.09,-6.71 4.8,-13.17 7.93,-19.18l2.79,-5.23l-20.32,-28.51l30.26,-30.26l28.51,20.32l5.23,-2.79c6.1,-3.23 12.56,-5.93 19.18,-7.93l5.67,-1.74l5.75,-34.44l42.81,0l5.75,34.44l5.67,1.74c6.1,1.83 12.03,4.27 17.7,7.15c0.52,0.26 0.96,0.52 1.48,0.78l5.23,2.79l28.51,-20.32l30.26,30.26l-20.32,28.51l2.79,5.23c3.31,6.19 5.93,12.64 7.93,19.18l1.74,5.67l34.53,5.75l0,42.81l-34.53,5.84l-1.74,5.67c-2.01,6.63 -4.62,13.08 -7.93,19.18l-2.79,5.23l20.5,28.6z"/>
  </g>
 </g>
</svg>