<?xml version="1.0" encoding="utf-8"?>
<!-- Generator: Adobe Illustrator 24.3.0, SVG Export Plug-In . SVG Version: 6.00 Build 0)  -->
<svg version="1.1" id="Capa_1" xmlns="http://www.w3.org/2000/svg" xmlns:xlink="http://www.w3.org/1999/xlink" x="0px" y="0px"
	 viewBox="0 0 1080 1080" style="enable-background:new 0 0 1080 1080;" xml:space="preserve">
<style type="text/css">
	.st0{fill:#1E1E1C;}
	.st1{fill:url(#SVGID_1_);}
	.st2{fill:url(#SVGID_2_);}
	.st3{fill:url(#SVGID_3_);}
	.st4{fill:url(#SVGID_4_);}
	.st5{fill:url(#SVGID_5_);}
	.st6{fill:url(#SVGID_6_);}
	.st7{fill:#020203;}
	.st8{fill:url(#SVGID_7_);}
	.st9{fill:url(#SVGID_8_);}
	.st10{fill:url(#SVGID_9_);}
	.st11{fill:url(#SVGID_10_);}
	.st12{fill:url(#SVGID_11_);}
	.st13{fill:url(#SVGID_12_);}
	.st14{fill:url(#SVGID_13_);}
	.st15{fill:url(#SVGID_14_);}
	.st16{fill:url(#SVGID_15_);}
	.st17{fill:url(#SVGID_16_);}
	.st18{fill:url(#SVGID_17_);}
	.st19{fill:url(#SVGID_18_);}
	.st20{fill:url(#SVGID_19_);}
	.st21{fill:url(#SVGID_20_);}
	.st22{fill:url(#SVGID_21_);}
	.st23{fill:url(#SVGID_22_);}
	.st24{fill:url(#SVGID_23_);}
	.st25{fill:url(#SVGID_24_);}
	.st26{fill:url(#SVGID_25_);}
	.st27{fill:url(#SVGID_26_);}
	.st28{fill:url(#SVGID_27_);}
	.st29{fill:url(#SVGID_28_);}
	.st30{fill:url(#SVGID_29_);}
	.st31{fill:url(#SVGID_30_);}
	.st32{fill:url(#SVGID_31_);}
	.st33{fill:url(#SVGID_32_);}
	.st34{fill:url(#SVGID_33_);}
	.st35{fill:url(#SVGID_34_);}
	.st36{fill:url(#SVGID_35_);}
	.st37{fill:url(#SVGID_36_);}
	.st38{fill:url(#SVGID_37_);}
	.st39{fill:url(#SVGID_38_);}
	.st40{fill:url(#SVGID_39_);}
	.st41{fill:url(#SVGID_40_);}
	.st42{fill:url(#SVGID_41_);}
	.st43{fill:url(#SVGID_42_);}
	.st44{fill:url(#SVGID_43_);}
	.st45{fill:url(#SVGID_44_);}
	.st46{fill:url(#SVGID_45_);}
	.st47{fill:url(#SVGID_46_);}
	.st48{fill:url(#SVGID_47_);}
	.st49{fill:url(#SVGID_48_);}
	.st50{fill:url(#SVGID_49_);}
	.st51{fill:url(#SVGID_50_);}
	.st52{fill:url(#SVGID_51_);}
	.st53{fill:url(#SVGID_52_);}
	.st54{fill:url(#SVGID_53_);}
	.st55{fill:url(#SVGID_54_);}
	.st56{fill:url(#SVGID_55_);}
	.st57{fill:url(#SVGID_56_);}
	.st58{fill:url(#SVGID_57_);}
	.st59{fill:url(#SVGID_58_);}
	.st60{fill:url(#SVGID_59_);}
	.st61{fill:url(#SVGID_60_);}
	.st62{fill:url(#SVGID_61_);}
</style>
<g>
	<g>
		<path class="st0" d="M420.56,493.97l-62.6,66.61l-27.99-19.18c-1.22-0.87-2.7,0.78-1.74,1.92l28.25,36.45
			c1.48,1.92,4.36,1.83,5.75-0.09l60.34-84.05C423.52,494.32,421.6,492.84,420.56,493.97z"/>
		<path class="st0" d="M318.37,866.89h82.66v-82.66h-82.66V866.89z M337.46,803.33h44.47v44.47h-44.47V803.33z"/>
		<rect x="448.37" y="527.8" class="st0" width="65.31" height="19.09"/>
		<rect x="448.37" y="567.74" class="st0" width="65.31" height="19.09"/>
		<path class="st0" d="M420.56,632.78l-62.6,66.61l-27.99-19.18c-1.22-0.87-2.7,0.78-1.74,1.92l28.25,36.45
			c1.48,1.92,4.36,1.83,5.75-0.09l60.34-84.05C423.52,633.22,421.6,631.65,420.56,632.78z"/>
		<rect x="448.37" y="666.7" class="st0" width="130.61" height="19.09"/>
		<rect x="448.37" y="706.54" class="st0" width="65.31" height="19.09"/>
		<rect x="448.37" y="805.51" class="st0" width="130.61" height="19.09"/>
		<rect x="448.37" y="845.44" class="st0" width="65.31" height="19.09"/>
		<path class="st0" d="M669.66,306.68c-55.28,0-100.27,44.99-100.27,100.27c0,55.28,44.99,100.27,100.27,100.27
			c55.28,0,100.27-44.99,100.27-100.27C769.93,351.67,724.94,306.68,669.66,306.68z M669.66,488.13
			c-44.73,0-81.18-36.45-81.18-81.18s36.45-81.18,81.18-81.18c44.73,0,81.18,36.45,81.18,81.18
			C750.84,451.68,714.39,488.13,669.66,488.13z"/>
		<path class="st0" d="M831.49,444.45v-75.07l-38.97-6.54c-1.4-3.92-2.96-7.76-4.8-11.6l22.93-32.17l-53.1-53.1l-32.17,22.93
			c-3.75-1.83-7.67-3.4-11.6-4.8l-6.54-38.89h-75.16l-6.54,38.89c-3.92,1.4-7.85,3.05-11.6,4.8l-32.17-22.93l-53.1,53.1l21.01,29.47
			H263.35v571.1H706.2V568.69h1.05l6.54-38.97c3.92-1.4,7.85-2.96,11.6-4.8l32.09,22.93l53.1-53.1l-22.93-32.09
			c1.83-3.84,3.4-7.67,4.8-11.6L831.49,444.45z M687.1,900.63H282.44V367.72h235.59l-10.11,1.74v75.07l38.97,6.54
			c1.4,3.92,3.05,7.76,4.8,11.6l-22.93,32.17l53.1,53.1l32.17-22.93c3.75,1.83,7.67,3.4,11.6,4.8l6.54,38.97h55.02L687.1,900.63z
			 M785.71,492.66l-30.26,30.26l-28.42-20.32l-5.23,2.79c-6.1,3.31-12.64,5.93-19.18,7.93l-5.67,1.74l-5.84,34.53H648.3l-5.84-34.53
			l-5.58-1.74c-6.63-2.01-13.08-4.71-19.18-8.02l-5.23-2.79l-28.51,20.32l-30.26-30.26l20.32-28.51l-2.79-5.23
			c-3.23-6.1-5.93-12.56-8.02-19.27l-1.74-5.58l-34.53-5.84V385.5l34.53-5.84l1.74-5.58c2.09-6.71,4.8-13.17,7.93-19.27l2.79-5.23
			l-20.32-28.51l30.26-30.26l28.51,20.32l5.23-2.79c6.1-3.23,12.56-5.93,19.18-7.93l5.67-1.74l5.75-34.53h42.81l5.75,34.53
			l5.67,1.74c6.1,1.83,12.03,4.27,17.7,7.15c0.52,0.26,0.96,0.52,1.48,0.78l5.23,2.79l28.51-20.32l30.26,30.26l-20.32,28.51
			l2.79,5.23c3.31,6.19,5.93,12.64,7.93,19.27l1.74,5.67l34.53,5.84v42.81l-34.53,5.84l-1.74,5.67c-2.01,6.63-4.62,13.08-7.93,19.18
			l-2.79,5.23L785.71,492.66z"/>
	</g>
	<g>
		
			<linearGradient id="SVGID_1_" gradientUnits="userSpaceOnUse" x1="-1195.981" y1="-8061.6504" x2="-544.416" y2="-8061.6504" gradientTransform="matrix(0.8719 0 0 0.8719 1306.1302 7566.4473)">
			<stop  offset="0" style="stop-color:#304F9E"/>
			<stop  offset="0.514" style="stop-color:#6A4293"/>
			<stop  offset="1" style="stop-color:#5AC3E7"/>
		</linearGradient>
		<path class="st1" d="M420.56,493.97l-62.6,66.61l-27.99-19.18c-1.22-0.87-2.7,0.78-1.74,1.92l28.25,36.45
			c1.48,1.92,4.36,1.83,5.75-0.09l60.34-84.05C423.52,494.32,421.6,492.84,420.56,493.97z"/>
		
			<linearGradient id="SVGID_2_" gradientUnits="userSpaceOnUse" x1="-1195.981" y1="-7731.1196" x2="-544.416" y2="-7731.1196" gradientTransform="matrix(0.8719 0 0 0.8719 1306.1302 7566.4473)">
			<stop  offset="0" style="stop-color:#304F9E"/>
			<stop  offset="0.514" style="stop-color:#6A4293"/>
			<stop  offset="1" style="stop-color:#5AC3E7"/>
		</linearGradient>
		<path class="st2" d="M318.37,866.89h82.66v-82.66h-82.66V866.89z M337.46,803.33h44.47v44.47h-44.47V803.33z"/>
		
			<linearGradient id="SVGID_3_" gradientUnits="userSpaceOnUse" x1="-1195.981" y1="-8061.6694" x2="-544.416" y2="-8061.6694" gradientTransform="matrix(0.8719 0 0 0.8719 1306.1302 7566.4473)">
			<stop  offset="0" style="stop-color:#304F9E"/>
			<stop  offset="0.514" style="stop-color:#6A4293"/>
			<stop  offset="1" style="stop-color:#5AC3E7"/>
		</linearGradient>
		<rect x="448.37" y="527.8" class="st3" width="65.31" height="19.09"/>
		
			<linearGradient id="SVGID_4_" gradientUnits="userSpaceOnUse" x1="-1195.981" y1="-8015.8696" x2="-544.416" y2="-8015.8696" gradientTransform="matrix(0.8719 0 0 0.8719 1306.1302 7566.4473)">
			<stop  offset="0" style="stop-color:#304F9E"/>
			<stop  offset="0.514" style="stop-color:#6A4293"/>
			<stop  offset="1" style="stop-color:#5AC3E7"/>
		</linearGradient>
		<rect x="448.37" y="567.74" class="st4" width="65.31" height="19.09"/>
		
			<linearGradient id="SVGID_5_" gradientUnits="userSpaceOnUse" x1="-1195.981" y1="-7902.4434" x2="-544.416" y2="-7902.4434" gradientTransform="matrix(0.8719 0 0 0.8719 1306.1302 7566.4473)">
			<stop  offset="0" style="stop-color:#304F9E"/>
			<stop  offset="0.514" style="stop-color:#6A4293"/>
			<stop  offset="1" style="stop-color:#5AC3E7"/>
		</linearGradient>
		<path class="st5" d="M420.56,632.78l-62.6,66.61l-27.99-19.18c-1.22-0.87-2.7,0.78-1.74,1.92l28.25,36.45
			c1.48,1.92,4.36,1.83,5.75-0.09l60.34-84.05C423.52,633.22,421.6,631.65,420.56,632.78z"/>
		
			<linearGradient id="SVGID_6_" gradientUnits="userSpaceOnUse" x1="-1195.981" y1="-7902.3696" x2="-544.416" y2="-7902.3696" gradientTransform="matrix(0.8719 0 0 0.8719 1306.1302 7566.4473)">
			<stop  offset="0" style="stop-color:#304F9E"/>
			<stop  offset="0.514" style="stop-color:#6A4293"/>
			<stop  offset="1" style="stop-color:#5AC3E7"/>
		</linearGradient>
		<rect x="448.37" y="666.7" class="st6" width="130.61" height="19.09"/>
		
			<linearGradient id="SVGID_7_" gradientUnits="userSpaceOnUse" x1="-1195.981" y1="-7856.6694" x2="-544.416" y2="-7856.6694" gradientTransform="matrix(0.8719 0 0 0.8719 1306.1302 7566.4473)">
			<stop  offset="0" style="stop-color:#304F9E"/>
			<stop  offset="0.514" style="stop-color:#6A4293"/>
			<stop  offset="1" style="stop-color:#5AC3E7"/>
		</linearGradient>
		<rect x="448.37" y="706.54" class="st8" width="65.31" height="19.09"/>
		
			<linearGradient id="SVGID_8_" gradientUnits="userSpaceOnUse" x1="-1195.981" y1="-7743.1694" x2="-544.416" y2="-7743.1694" gradientTransform="matrix(0.8719 0 0 0.8719 1306.1302 7566.4473)">
			<stop  offset="0" style="stop-color:#304F9E"/>
			<stop  offset="0.514" style="stop-color:#6A4293"/>
			<stop  offset="1" style="stop-color:#5AC3E7"/>
		</linearGradient>
		<rect x="448.37" y="805.51" class="st9" width="130.61" height="19.09"/>
		
			<linearGradient id="SVGID_9_" gradientUnits="userSpaceOnUse" x1="-1195.981" y1="-7697.3696" x2="-544.416" y2="-7697.3696" gradientTransform="matrix(0.8719 0 0 0.8719 1306.1302 7566.4473)">
			<stop  offset="0" style="stop-color:#304F9E"/>
			<stop  offset="0.514" style="stop-color:#6A4293"/>
			<stop  offset="1" style="stop-color:#5AC3E7"/>
		</linearGradient>
		<rect x="448.37" y="845.44" class="st10" width="65.31" height="19.09"/>
		
			<linearGradient id="SVGID_10_" gradientUnits="userSpaceOnUse" x1="-1195.981" y1="-8211.2197" x2="-544.416" y2="-8211.2197" gradientTransform="matrix(0.8719 0 0 0.8719 1306.1302 7566.4473)">
			<stop  offset="0" style="stop-color:#304F9E"/>
			<stop  offset="0.514" style="stop-color:#6A4293"/>
			<stop  offset="1" style="stop-color:#5AC3E7"/>
		</linearGradient>
		<path class="st11" d="M669.66,306.68c-55.28,0-100.27,44.99-100.27,100.27c0,55.28,44.99,100.27,100.27,100.27
			c55.28,0,100.27-44.99,100.27-100.27C769.93,351.67,724.94,306.68,669.66,306.68z M669.66,488.13
			c-44.73,0-81.18-36.45-81.18-81.18s36.45-81.18,81.18-81.18c44.73,0,81.18,36.45,81.18,81.18
			C750.84,451.68,714.39,488.13,669.66,488.13z"/>
		
			<linearGradient id="SVGID_11_" gradientUnits="userSpaceOnUse" x1="-1195.9639" y1="-8009.9692" x2="-544.3642" y2="-8009.9692" gradientTransform="matrix(0.8719 0 0 0.8719 1306.1302 7566.4473)">
			<stop  offset="0" style="stop-color:#304F9E"/>
			<stop  offset="0.514" style="stop-color:#6A4293"/>
			<stop  offset="1" style="stop-color:#5AC3E7"/>
		</linearGradient>
		<path class="st12" d="M831.49,444.45v-75.07l-38.97-6.54c-1.4-3.92-2.96-7.76-4.8-11.6l22.93-32.17l-53.1-53.1l-32.17,22.93
			c-3.75-1.83-7.67-3.4-11.6-4.8l-6.54-38.89h-75.16l-6.54,38.89c-3.92,1.4-7.85,3.05-11.6,4.8l-32.17-22.93l-53.1,53.1l21.01,29.47
			H263.35v571.1H706.2V568.69h1.05l6.54-38.97c3.92-1.4,7.85-2.96,11.6-4.8l32.09,22.93l53.1-53.1l-22.93-32.09
			c1.83-3.84,3.4-7.67,4.8-11.6L831.49,444.45z M687.1,900.63H282.44V367.72h235.59l-10.11,1.74v75.07l38.97,6.54
			c1.4,3.92,3.05,7.76,4.8,11.6l-22.93,32.17l53.1,53.1l32.17-22.93c3.75,1.83,7.67,3.4,11.6,4.8l6.54,38.97h55.02L687.1,900.63z
			 M785.71,492.66l-30.26,30.26l-28.42-20.32l-5.23,2.79c-6.1,3.31-12.64,5.93-19.18,7.93l-5.67,1.74l-5.84,34.53H648.3l-5.84-34.53
			l-5.58-1.74c-6.63-2.01-13.08-4.71-19.18-8.02l-5.23-2.79l-28.51,20.32l-30.26-30.26l20.32-28.51l-2.79-5.23
			c-3.23-6.1-5.93-12.56-8.02-19.27l-1.74-5.58l-34.53-5.84V385.5l34.53-5.84l1.74-5.58c2.09-6.71,4.8-13.17,7.93-19.27l2.79-5.23
			l-20.32-28.51l30.26-30.26l28.51,20.32l5.23-2.79c6.1-3.23,12.56-5.93,19.18-7.93l5.67-1.74l5.75-34.53h42.81l5.75,34.53
			l5.67,1.74c6.1,1.83,12.03,4.27,17.7,7.15c0.52,0.26,0.96,0.52,1.48,0.78l5.23,2.79l28.51-20.32l30.26,30.26l-20.32,28.51
			l2.79,5.23c3.31,6.19,5.93,12.64,7.93,19.27l1.74,5.67l34.53,5.84v42.81l-34.53,5.84l-1.74,5.67c-2.01,6.63-4.62,13.08-7.93,19.18
			l-2.79,5.23L785.71,492.66z"/>
	</g>
</g>
</svg>
