<?xml version="1.0" encoding="utf-8"?>
<!-- Generator: Adobe Illustrator 24.3.0, SVG Export Plug-In . SVG Version: 6.00 Build 0)  -->
<svg version="1.1" id="Capa_1" xmlns="http://www.w3.org/2000/svg" xmlns:xlink="http://www.w3.org/1999/xlink" x="0px" y="0px"
	 viewBox="0 0 1080 1080" style="enable-background:new 0 0 1080 1080;" xml:space="preserve">
<style type="text/css">
	.st0{fill:#1E1E1C;}
	.st1{fill:url(#SVGID_1_);}
	.st2{fill:url(#SVGID_2_);}
	.st3{fill:url(#SVGID_3_);}
	.st4{fill:url(#SVGID_4_);}
	.st5{fill:url(#SVGID_5_);}
	.st6{fill:url(#SVGID_6_);}
	.st7{fill:#020203;}
	.st8{fill:url(#SVGID_7_);}
	.st9{fill:url(#SVGID_8_);}
	.st10{fill:url(#SVGID_9_);}
	.st11{fill:url(#SVGID_10_);}
	.st12{fill:url(#SVGID_11_);}
	.st13{fill:url(#SVGID_12_);}
	.st14{fill:url(#SVGID_13_);}
	.st15{fill:url(#SVGID_14_);}
	.st16{fill:url(#SVGID_15_);}
	.st17{fill:url(#SVGID_16_);}
	.st18{fill:url(#SVGID_17_);}
	.st19{fill:url(#SVGID_18_);}
	.st20{fill:url(#SVGID_19_);}
	.st21{fill:url(#SVGID_20_);}
	.st22{fill:url(#SVGID_21_);}
	.st23{fill:url(#SVGID_22_);}
	.st24{fill:url(#SVGID_23_);}
	.st25{fill:url(#SVGID_24_);}
	.st26{fill:url(#SVGID_25_);}
	.st27{fill:url(#SVGID_26_);}
	.st28{fill:url(#SVGID_27_);}
	.st29{fill:url(#SVGID_28_);}
	.st30{fill:url(#SVGID_29_);}
	.st31{fill:url(#SVGID_30_);}
	.st32{fill:url(#SVGID_31_);}
	.st33{fill:url(#SVGID_32_);}
	.st34{fill:url(#SVGID_33_);}
	.st35{fill:url(#SVGID_34_);}
	.st36{fill:url(#SVGID_35_);}
	.st37{fill:url(#SVGID_36_);}
	.st38{fill:url(#SVGID_37_);}
	.st39{fill:url(#SVGID_38_);}
	.st40{fill:url(#SVGID_39_);}
	.st41{fill:url(#SVGID_40_);}
	.st42{fill:url(#SVGID_41_);}
	.st43{fill:url(#SVGID_42_);}
	.st44{fill:url(#SVGID_43_);}
	.st45{fill:url(#SVGID_44_);}
	.st46{fill:url(#SVGID_45_);}
	.st47{fill:url(#SVGID_46_);}
	.st48{fill:url(#SVGID_47_);}
	.st49{fill:url(#SVGID_48_);}
	.st50{fill:url(#SVGID_49_);}
	.st51{fill:url(#SVGID_50_);}
	.st52{fill:url(#SVGID_51_);}
	.st53{fill:url(#SVGID_52_);}
	.st54{fill:url(#SVGID_53_);}
	.st55{fill:url(#SVGID_54_);}
	.st56{fill:url(#SVGID_55_);}
	.st57{fill:url(#SVGID_56_);}
	.st58{fill:url(#SVGID_57_);}
	.st59{fill:url(#SVGID_58_);}
	.st60{fill:url(#SVGID_59_);}
	.st61{fill:url(#SVGID_60_);}
	.st62{fill:url(#SVGID_61_);}
</style>
<g>
	<g>
		<path class="st7" d="M576.34,509.44v-64.35c0-36.18,0-72.02,0-107.86c0-36.53-22.84-59.2-59.46-59.29
			c-79.08-0.09-158.25-0.09-237.34,0c-37.41,0-59.73,22.5-59.73,60.08c0,38.63,0,77.25,0,115.88v55.54h-76.9v380.68h510.25V509.53
			h-76.82V509.44z M238.82,338.11c0-26.86,14.04-40.98,40.63-40.98c79.08-0.09,158.25-0.09,237.34,0c26.07,0,40.37,14.3,40.37,40.2
			c0.09,35.84,0,71.67,0,107.86v64.35h-36.97v-12.99c0-8.46,0-17,0-25.46v-3.4c0.09-21.1,0.09-42.9-0.17-64.43
			c-0.52-38.97-30.17-68.71-69.06-69.06c-36.62-0.35-72.46-0.35-106.55,0c-38.8,0.44-68.36,30.26-68.79,69.4
			c-0.26,24.15-0.17,48.57-0.09,72.19c0,10.81,0.09,21.71,0.09,32.7v0.87h-36.97v-55.28C238.82,415.27,238.82,376.73,238.82,338.11z
			 M294.79,475.61c-0.09-23.54-0.09-47.96,0.09-71.93c0.26-28.42,21.71-50.14,49.87-50.48c34-0.35,69.67-0.35,106.11,0
			c28.25,0.26,49.79,21.89,50.14,50.22c0.26,21.45,0.17,43.16,0.17,64.17v3.4c0,8.54-0.09,17-0.09,25.55v12.99H294.88v-1.13
			C294.88,497.32,294.79,486.42,294.79,475.61z M633.97,871.02H161.91V528.53h339.35h75.16h57.63v342.49H633.97z"/>
		<path class="st7" d="M398.12,627.41c-34.44,0-62.52,27.9-62.52,62.43c0,25.72,15.61,47.61,37.75,57.37v26.94
			c0,13.69,11.07,24.76,24.76,24.76c13.69,0,24.76-11.07,24.76-24.76v-26.94c22.06-9.68,37.67-31.56,37.67-57.37
			C460.46,655.31,432.56,627.41,398.12,627.41z"/>
	</g>
	<g>
		
			<linearGradient id="SVGID_1_" gradientUnits="userSpaceOnUse" x1="433.2475" y1="-8169.7568" x2="1018.4474" y2="-8169.7568" gradientTransform="matrix(0.8719 0 0 0.8719 -234.8484 7707.3398)">
			<stop  offset="0" style="stop-color:#304F9E"/>
			<stop  offset="0.514" style="stop-color:#6A4293"/>
			<stop  offset="1" style="stop-color:#5AC3E7"/>
		</linearGradient>
		<path class="st1" d="M576.34,509.44v-64.35c0-36.18,0-72.02,0-107.86c0-36.53-22.84-59.2-59.46-59.29
			c-79.08-0.09-158.25-0.09-237.34,0c-37.41,0-59.73,22.5-59.73,60.08c0,38.63,0,77.25,0,115.88v55.54h-76.9v380.68h510.25V509.53
			h-76.82V509.44z M238.82,338.11c0-26.86,14.04-40.98,40.63-40.98c79.08-0.09,158.25-0.09,237.34,0c26.07,0,40.37,14.3,40.37,40.2
			c0.09,35.84,0,71.67,0,107.86v64.35h-36.97v-12.99c0-8.46,0-17,0-25.46v-3.4c0.09-21.1,0.09-42.9-0.17-64.43
			c-0.52-38.97-30.17-68.71-69.06-69.06c-36.62-0.35-72.46-0.35-106.55,0c-38.8,0.44-68.36,30.26-68.79,69.4
			c-0.26,24.15-0.17,48.57-0.09,72.19c0,10.81,0.09,21.71,0.09,32.7v0.87h-36.97v-55.28C238.82,415.27,238.82,376.73,238.82,338.11z
			 M294.79,475.61c-0.09-23.54-0.09-47.96,0.09-71.93c0.26-28.42,21.71-50.14,49.87-50.48c34-0.35,69.67-0.35,106.11,0
			c28.25,0.26,49.79,21.89,50.14,50.22c0.26,21.45,0.17,43.16,0.17,64.17v3.4c0,8.54-0.09,17-0.09,25.55v12.99H294.88v-1.13
			C294.88,497.32,294.79,486.42,294.79,475.61z M633.97,871.02H161.91V528.53h339.35h75.16h57.63v342.49H633.97z"/>
		
			<linearGradient id="SVGID_2_" gradientUnits="userSpaceOnUse" x1="433.0966" y1="-8021.6191" x2="1018.3497" y2="-8021.6191" gradientTransform="matrix(0.8719 0 0 0.8719 -234.8484 7707.3398)">
			<stop  offset="0" style="stop-color:#304F9E"/>
			<stop  offset="0.514" style="stop-color:#6A4293"/>
			<stop  offset="1" style="stop-color:#5AC3E7"/>
		</linearGradient>
		<path class="st2" d="M398.12,627.41c-34.44,0-62.52,27.9-62.52,62.43c0,25.72,15.61,47.61,37.75,57.37v26.94
			c0,13.69,11.07,24.76,24.76,24.76c13.69,0,24.76-11.07,24.76-24.76v-26.94c22.06-9.68,37.67-31.56,37.67-57.37
			C460.46,655.31,432.56,627.41,398.12,627.41z"/>
	</g>
</g>
</svg>
