<?xml version="1.0" encoding="utf-8"?>
<!-- Generator: Adobe Illustrator 24.3.0, SVG Export Plug-In . SVG Version: 6.00 Build 0)  -->
<svg version="1.1" id="Capa_1" xmlns="http://www.w3.org/2000/svg" xmlns:xlink="http://www.w3.org/1999/xlink" x="0px" y="0px"
	 viewBox="0 0 1080 1080" style="enable-background:new 0 0 1080 1080;" xml:space="preserve">
<style type="text/css">
	.st0{fill:#1E1E1C;}
	.st1{fill:url(#SVGID_1_);}
	.st2{fill:url(#SVGID_2_);}
	.st3{fill:url(#SVGID_3_);}
	.st4{fill:url(#SVGID_4_);}
	.st5{fill:url(#SVGID_5_);}
	.st6{fill:url(#SVGID_6_);}
	.st7{fill:#020203;}
	.st8{fill:url(#SVGID_7_);}
	.st9{fill:url(#SVGID_8_);}
	.st10{fill:url(#SVGID_9_);}
	.st11{fill:url(#SVGID_10_);}
	.st12{fill:url(#SVGID_11_);}
	.st13{fill:url(#SVGID_12_);}
	.st14{fill:url(#SVGID_13_);}
	.st15{fill:url(#SVGID_14_);}
	.st16{fill:url(#SVGID_15_);}
	.st17{fill:url(#SVGID_16_);}
	.st18{fill:url(#SVGID_17_);}
	.st19{fill:url(#SVGID_18_);}
	.st20{fill:url(#SVGID_19_);}
	.st21{fill:url(#SVGID_20_);}
	.st22{fill:url(#SVGID_21_);}
	.st23{fill:url(#SVGID_22_);}
	.st24{fill:url(#SVGID_23_);}
	.st25{fill:url(#SVGID_24_);}
	.st26{fill:url(#SVGID_25_);}
	.st27{fill:url(#SVGID_26_);}
	.st28{fill:url(#SVGID_27_);}
	.st29{fill:url(#SVGID_28_);}
	.st30{fill:url(#SVGID_29_);}
	.st31{fill:url(#SVGID_30_);}
	.st32{fill:url(#SVGID_31_);}
	.st33{fill:url(#SVGID_32_);}
	.st34{fill:url(#SVGID_33_);}
	.st35{fill:url(#SVGID_34_);}
	.st36{fill:url(#SVGID_35_);}
	.st37{fill:url(#SVGID_36_);}
	.st38{fill:url(#SVGID_37_);}
	.st39{fill:url(#SVGID_38_);}
	.st40{fill:url(#SVGID_39_);}
	.st41{fill:url(#SVGID_40_);}
	.st42{fill:url(#SVGID_41_);}
	.st43{fill:url(#SVGID_42_);}
	.st44{fill:url(#SVGID_43_);}
	.st45{fill:url(#SVGID_44_);}
	.st46{fill:url(#SVGID_45_);}
	.st47{fill:url(#SVGID_46_);}
	.st48{fill:url(#SVGID_47_);}
	.st49{fill:url(#SVGID_48_);}
	.st50{fill:url(#SVGID_49_);}
	.st51{fill:url(#SVGID_50_);}
	.st52{fill:url(#SVGID_51_);}
	.st53{fill:url(#SVGID_52_);}
	.st54{fill:url(#SVGID_53_);}
	.st55{fill:url(#SVGID_54_);}
	.st56{fill:url(#SVGID_55_);}
	.st57{fill:url(#SVGID_56_);}
	.st58{fill:url(#SVGID_57_);}
	.st59{fill:url(#SVGID_58_);}
	.st60{fill:url(#SVGID_59_);}
	.st61{fill:url(#SVGID_60_);}
	.st62{fill:url(#SVGID_61_);}
</style>
<g>
	<path class="st7" d="M791.16,471.4c-18.75-17.26-43.07-26.16-68.36-25.02c-6.36,0.26-12.82,1.22-19.27,2.79
		c-7.85-39.67-40.81-70.63-81-75.86c-6.02-64.96-62.6-115.09-128.35-112.3c-32.96,1.4-63.39,15.61-85.8,39.93
		c-19.53,21.27-30.78,48.04-32.35,76.38c-12.38-1.74-24.76,0.17-35.23,5.75c-14.65,7.59-25.98,21.62-30.43,37.49
		c-3.92,13.95-4.01,27.55-0.44,38.97c-33.05,16.74-53.62,51.36-51.97,88.94c1.05,25.37,11.95,48.83,30.69,66.09
		c18.83,17.26,43.16,26.16,68.1,25.02c0.87,0,9.85,0,21.36,0.09h42.11v20.05l-45.51,38.36v116.23
		c-10.64,3.14-18.48,12.82-18.48,24.5c0,14.12,11.51,25.63,25.63,25.63s25.63-11.51,25.63-25.63c0-11.6-7.85-21.36-18.48-24.5
		v-109.6l31.21-26.24v57.98c-10.64,3.14-18.48,12.82-18.48,24.5c0,14.12,11.51,25.63,25.63,25.63s25.63-11.51,25.63-25.63
		c0-11.6-7.85-21.36-18.48-24.5v-96.78h29.82v226.44c-10.64,3.14-18.48,12.82-18.48,24.5c0,14.12,11.51,25.63,25.63,25.63
		c14.12,0,25.63-11.51,25.63-25.63c0-11.6-7.85-21.36-18.48-24.5V639.68h54.23v120.76c-10.64,3.14-18.48,12.82-18.48,24.5
		c0,14.12,11.51,25.63,25.63,25.63c14.12,0,25.63-11.51,25.63-25.63c0-11.6-7.85-21.36-18.48-24.5V639.59
		c9.33-0.17,24.5-0.44,42.29-0.7v21.45c-10.64,3.14-18.48,12.82-18.48,24.5c0,14.12,11.51,25.63,25.63,25.63
		c14.12,0,25.63-11.51,25.63-25.63c0-11.6-7.85-21.36-18.48-24.5v-21.62l35.84-0.52v65.04l-42.2,45.43v124.25
		c-10.64,3.14-18.48,12.82-18.48,24.5c0,14.12,11.51,25.63,25.63,25.63c14.12,0,25.63-11.51,25.63-25.63
		c0-11.6-7.85-21.36-18.48-24.5V754.25l27.9-29.99v65.39c-10.64,3.14-18.48,12.82-18.48,24.5c0,14.12,11.51,25.63,25.63,25.63
		c14.12,0,25.63-11.51,25.63-25.63c0-11.6-7.85-21.36-18.48-24.5V638.02c46.82-0.7,74.29-1.13,76.9-1.22
		c25.55-1.13,49-12.03,66.09-30.69c17.26-18.66,26.16-42.9,25.11-68.53C820.89,512.12,810,488.66,791.16,471.4z M393.05,838.83
		c0,6.19-5.06,11.33-11.33,11.33s-11.33-5.06-11.33-11.33c0-6.28,5.06-11.33,11.33-11.33S393.05,832.55,393.05,838.83z
		 M438.56,760.88c0,6.19-5.06,11.33-11.33,11.33s-11.33-5.06-11.33-11.33c0-6.28,5.06-11.33,11.33-11.33S438.56,754.6,438.56,760.88
		z M482.68,890.53c0,6.19-5.06,11.33-11.33,11.33c-6.28,0-11.33-5.06-11.33-11.33c0-6.28,5.06-11.33,11.33-11.33
		C477.62,879.2,482.68,884.25,482.68,890.53z M615.82,897.33c0,6.19-5.06,11.33-11.33,11.33c-6.28,0-11.33-5.06-11.33-11.33
		c0-6.28,5.06-11.33,11.33-11.33C610.76,886,615.82,891.14,615.82,897.33z M551.21,784.85c0,6.19-5.06,11.33-11.33,11.33
		s-11.33-5.06-11.33-11.33s5.06-11.33,11.33-11.33S551.21,778.66,551.21,784.85z M607.8,684.85c0,6.19-5.06,11.33-11.33,11.33
		c-6.28,0-11.33-5.06-11.33-11.33s5.06-11.33,11.33-11.33C602.74,673.51,607.8,678.57,607.8,684.85z M658.02,814.06
		c0,6.19-5.06,11.33-11.33,11.33s-11.33-5.06-11.33-11.33s5.06-11.33,11.33-11.33C652.96,802.73,658.02,807.79,658.02,814.06z
		 M782.88,593.03L782.88,593.03c-13.69,15-32.44,23.72-52.93,24.59c-3.05,0.17-55.28,0.87-83.27,1.31l-50.22,0.78
		c-24.33,0.35-44.99,0.7-54.06,0.87H427.31h-49.26c-11.42-0.09-20.49-0.09-21.8-0.09c-20.23,0.96-39.67-6.19-54.76-19.97
		c-15-13.78-23.63-32.52-24.5-52.84c-1.4-32.78,18.22-62.69,48.91-74.37l10.64-4.1l-5.84-9.77c-4.97-8.28-5.67-20.58-1.92-33.74
		c3.05-10.9,10.9-20.49,20.93-25.72c9.42-4.97,21.36-5.49,32.7-1.57l13.25,4.62L395.05,389c-1.22-27.81,8.54-54.49,27.47-75.16
		c18.92-20.58,44.64-32.61,72.46-33.74c56.59-2.35,105.5,41.76,108.81,98.53c0.44,7.06,5.84,12.56,12.9,13.25
		c35.14,3.05,64.17,30.52,68.88,65.66c0.7,4.19,3.05,7.76,6.45,9.94c3.49,2.18,7.76,2.7,11.68,1.57c6.71-2.09,13.43-3.23,19.88-3.49
		c20.23-0.96,39.67,6.28,54.67,20.05c15.08,13.78,23.8,32.52,24.68,52.75C803.72,558.68,796.57,578.12,782.88,593.03z"/>
	
		<linearGradient id="SVGID_1_" gradientUnits="userSpaceOnUse" x1="-394.2762" y1="-7999.0195" x2="252.8216" y2="-7999.0195" gradientTransform="matrix(0.8719 0 0 0.8719 601.6683 7566.4473)">
		<stop  offset="0" style="stop-color:#304F9E"/>
		<stop  offset="0.514" style="stop-color:#6A4293"/>
		<stop  offset="1" style="stop-color:#5AC3E7"/>
	</linearGradient>
	<path class="st1" d="M791.16,471.4c-18.75-17.26-43.07-26.16-68.36-25.02c-6.36,0.26-12.82,1.22-19.27,2.79
		c-7.85-39.67-40.81-70.63-81-75.86c-6.02-64.96-62.6-115.09-128.35-112.3c-32.96,1.4-63.39,15.61-85.8,39.93
		c-19.53,21.27-30.78,48.04-32.35,76.38c-12.38-1.74-24.76,0.17-35.23,5.75c-14.65,7.59-25.98,21.62-30.43,37.49
		c-3.92,13.95-4.01,27.55-0.44,38.97c-33.05,16.74-53.62,51.36-51.97,88.94c1.05,25.37,11.95,48.83,30.69,66.09
		c18.83,17.26,43.16,26.16,68.1,25.02c0.87,0,9.85,0,21.36,0.09h42.11v20.05l-45.51,38.36v116.23
		c-10.64,3.14-18.48,12.82-18.48,24.5c0,14.12,11.51,25.63,25.63,25.63s25.63-11.51,25.63-25.63c0-11.6-7.85-21.36-18.48-24.5
		v-109.6l31.21-26.24v57.98c-10.64,3.14-18.48,12.82-18.48,24.5c0,14.12,11.51,25.63,25.63,25.63s25.63-11.51,25.63-25.63
		c0-11.6-7.85-21.36-18.48-24.5v-96.78h29.82v226.44c-10.64,3.14-18.48,12.82-18.48,24.5c0,14.12,11.51,25.63,25.63,25.63
		c14.12,0,25.63-11.51,25.63-25.63c0-11.6-7.85-21.36-18.48-24.5V639.68h54.23v120.76c-10.64,3.14-18.48,12.82-18.48,24.5
		c0,14.12,11.51,25.63,25.63,25.63c14.12,0,25.63-11.51,25.63-25.63c0-11.6-7.85-21.36-18.48-24.5V639.59
		c9.33-0.17,24.5-0.44,42.29-0.7v21.45c-10.64,3.14-18.48,12.82-18.48,24.5c0,14.12,11.51,25.63,25.63,25.63
		c14.12,0,25.63-11.51,25.63-25.63c0-11.6-7.85-21.36-18.48-24.5v-21.62l35.84-0.52v65.04l-42.2,45.43v124.25
		c-10.64,3.14-18.48,12.82-18.48,24.5c0,14.12,11.51,25.63,25.63,25.63c14.12,0,25.63-11.51,25.63-25.63
		c0-11.6-7.85-21.36-18.48-24.5V754.25l27.9-29.99v65.39c-10.64,3.14-18.48,12.82-18.48,24.5c0,14.12,11.51,25.63,25.63,25.63
		c14.12,0,25.63-11.51,25.63-25.63c0-11.6-7.85-21.36-18.48-24.5V638.02c46.82-0.7,74.29-1.13,76.9-1.22
		c25.55-1.13,49-12.03,66.09-30.69c17.26-18.66,26.16-42.9,25.11-68.53C820.89,512.12,810,488.66,791.16,471.4z M393.05,838.83
		c0,6.19-5.06,11.33-11.33,11.33s-11.33-5.06-11.33-11.33c0-6.28,5.06-11.33,11.33-11.33S393.05,832.55,393.05,838.83z
		 M438.56,760.88c0,6.19-5.06,11.33-11.33,11.33s-11.33-5.06-11.33-11.33c0-6.28,5.06-11.33,11.33-11.33S438.56,754.6,438.56,760.88
		z M482.68,890.53c0,6.19-5.06,11.33-11.33,11.33c-6.28,0-11.33-5.06-11.33-11.33c0-6.28,5.06-11.33,11.33-11.33
		C477.62,879.2,482.68,884.25,482.68,890.53z M615.82,897.33c0,6.19-5.06,11.33-11.33,11.33c-6.28,0-11.33-5.06-11.33-11.33
		c0-6.28,5.06-11.33,11.33-11.33C610.76,886,615.82,891.14,615.82,897.33z M551.21,784.85c0,6.19-5.06,11.33-11.33,11.33
		s-11.33-5.06-11.33-11.33s5.06-11.33,11.33-11.33S551.21,778.66,551.21,784.85z M607.8,684.85c0,6.19-5.06,11.33-11.33,11.33
		c-6.28,0-11.33-5.06-11.33-11.33s5.06-11.33,11.33-11.33C602.74,673.51,607.8,678.57,607.8,684.85z M658.02,814.06
		c0,6.19-5.06,11.33-11.33,11.33s-11.33-5.06-11.33-11.33s5.06-11.33,11.33-11.33C652.96,802.73,658.02,807.79,658.02,814.06z
		 M782.88,593.03L782.88,593.03c-13.69,15-32.44,23.72-52.93,24.59c-3.05,0.17-55.28,0.87-83.27,1.31l-50.22,0.78
		c-24.33,0.35-44.99,0.7-54.06,0.87H427.31h-49.26c-11.42-0.09-20.49-0.09-21.8-0.09c-20.23,0.96-39.67-6.19-54.76-19.97
		c-15-13.78-23.63-32.52-24.5-52.84c-1.4-32.78,18.22-62.69,48.91-74.37l10.64-4.1l-5.84-9.77c-4.97-8.28-5.67-20.58-1.92-33.74
		c3.05-10.9,10.9-20.49,20.93-25.72c9.42-4.97,21.36-5.49,32.7-1.57l13.25,4.62L395.05,389c-1.22-27.81,8.54-54.49,27.47-75.16
		c18.92-20.58,44.64-32.61,72.46-33.74c56.59-2.35,105.5,41.76,108.81,98.53c0.44,7.06,5.84,12.56,12.9,13.25
		c35.14,3.05,64.17,30.52,68.88,65.66c0.7,4.19,3.05,7.76,6.45,9.94c3.49,2.18,7.76,2.7,11.68,1.57c6.71-2.09,13.43-3.23,19.88-3.49
		c20.23-0.96,39.67,6.28,54.67,20.05c15.08,13.78,23.8,32.52,24.68,52.75C803.72,558.68,796.57,578.12,782.88,593.03z"/>
</g>
</svg>
