<?xml version="1.0" encoding="utf-8"?>
<!-- Generator: Adobe Illustrator 24.3.0, SVG Export Plug-In . SVG Version: 6.00 Build 0)  -->
<svg version="1.1" id="Capa_1" xmlns="http://www.w3.org/2000/svg" xmlns:xlink="http://www.w3.org/1999/xlink" x="0px" y="0px"
	 viewBox="0 0 1080 1080" style="enable-background:new 0 0 1080 1080;" xml:space="preserve">
<style type="text/css">
	.st0{fill:#1E1E1C;}
	.st1{fill:url(#SVGID_1_);}
	.st2{fill:url(#SVGID_2_);}
	.st3{fill:url(#SVGID_3_);}
	.st4{fill:url(#SVGID_4_);}
	.st5{fill:url(#SVGID_5_);}
	.st6{fill:url(#SVGID_6_);}
	.st7{fill:#020203;}
	.st8{fill:url(#SVGID_7_);}
	.st9{fill:url(#SVGID_8_);}
	.st10{fill:url(#SVGID_9_);}
	.st11{fill:url(#SVGID_10_);}
	.st12{fill:url(#SVGID_11_);}
	.st13{fill:url(#SVGID_12_);}
	.st14{fill:url(#SVGID_13_);}
	.st15{fill:url(#SVGID_14_);}
	.st16{fill:url(#SVGID_15_);}
	.st17{fill:url(#SVGID_16_);}
	.st18{fill:url(#SVGID_17_);}
	.st19{fill:url(#SVGID_18_);}
	.st20{fill:url(#SVGID_19_);}
	.st21{fill:url(#SVGID_20_);}
	.st22{fill:url(#SVGID_21_);}
	.st23{fill:url(#SVGID_22_);}
	.st24{fill:url(#SVGID_23_);}
	.st25{fill:url(#SVGID_24_);}
	.st26{fill:url(#SVGID_25_);}
	.st27{fill:url(#SVGID_26_);}
	.st28{fill:url(#SVGID_27_);}
	.st29{fill:url(#SVGID_28_);}
	.st30{fill:url(#SVGID_29_);}
	.st31{fill:url(#SVGID_30_);}
	.st32{fill:url(#SVGID_31_);}
	.st33{fill:url(#SVGID_32_);}
	.st34{fill:url(#SVGID_33_);}
	.st35{fill:url(#SVGID_34_);}
	.st36{fill:url(#SVGID_35_);}
	.st37{fill:url(#SVGID_36_);}
	.st38{fill:url(#SVGID_37_);}
	.st39{fill:url(#SVGID_38_);}
	.st40{fill:url(#SVGID_39_);}
	.st41{fill:url(#SVGID_40_);}
	.st42{fill:url(#SVGID_41_);}
	.st43{fill:url(#SVGID_42_);}
	.st44{fill:url(#SVGID_43_);}
	.st45{fill:url(#SVGID_44_);}
	.st46{fill:url(#SVGID_45_);}
	.st47{fill:url(#SVGID_46_);}
	.st48{fill:url(#SVGID_47_);}
	.st49{fill:url(#SVGID_48_);}
	.st50{fill:url(#SVGID_49_);}
	.st51{fill:url(#SVGID_50_);}
	.st52{fill:url(#SVGID_51_);}
	.st53{fill:url(#SVGID_52_);}
	.st54{fill:url(#SVGID_53_);}
	.st55{fill:url(#SVGID_54_);}
	.st56{fill:url(#SVGID_55_);}
	.st57{fill:url(#SVGID_56_);}
	.st58{fill:url(#SVGID_57_);}
	.st59{fill:url(#SVGID_58_);}
	.st60{fill:url(#SVGID_59_);}
	.st61{fill:url(#SVGID_60_);}
	.st62{fill:url(#SVGID_61_);}
</style>
<g>
	<g>
		<path class="st7" d="M774.88,453.02c10.81-17.09,7.59-39.15-7.5-52.4l-22.23-19.53c-4.62-4.1-7.32-9.94-7.41-16.13l-0.17-29.56
			c-0.17-20.23-14.74-37.06-34.7-40.02l-29.21-4.45c-6.1-0.96-11.51-4.45-14.91-9.59l-16.13-24.76
			c-10.99-16.92-32.44-23.19-50.83-14.91l-26.94,12.03l0,0c-5.67,2.53-12.12,2.53-17.7,0l-26.94-12.03
			c-18.4-8.28-39.76-2.01-50.83,14.91l-16.13,24.76c-3.4,5.14-8.81,8.63-14.91,9.59l-29.21,4.45c-19.97,3.05-34.53,19.88-34.7,40.02
			l-0.17,29.56c0,6.19-2.7,12.03-7.41,16.13l-22.23,19.53c-15.17,13.34-18.31,35.4-7.5,52.4l15.78,24.94
			c3.31,5.23,4.19,11.6,2.53,17.53l-8.11,28.42c-5.58,19.36,3.75,39.67,21.97,48.22l26.77,12.47c5.58,2.62,9.85,7.5,11.6,13.43
			l8.54,28.25c4.97,16.39,19.18,27.47,35.57,28.86l-78.56,204.73l64.7-22.23l32.26,59.81l81.61-212.66c1.4,0.17,2.79,0.26,4.19,0.26
			c1.39,0,2.79-0.09,4.18-0.26l81.61,212.66L674,837.62l64.7,22.23l-78.56-204.73c16.39-1.31,30.6-12.47,35.57-28.86l8.54-28.25
			c1.74-5.93,6.02-10.81,11.6-13.43l26.77-12.47c18.31-8.54,27.55-28.77,21.97-48.22l-8.11-28.42c-1.66-5.93-0.78-12.29,2.53-17.53
			L774.88,453.02z M467.18,851.75l-20.23-37.49l-41.33,14.21l67.22-175.26l17.09-2.35c6.1-0.78,12.29,0.96,17,4.97l22.5,19.18
			c1.4,1.22,2.88,2.18,4.36,3.23L467.18,851.75z M664.93,814.34l-20.23,37.49l-66.53-173.51c1.48-0.96,2.96-2.01,4.36-3.23
			l22.5-19.18c4.71-4.01,10.9-5.84,17-4.97l17.09,2.35l67.22,175.26L664.93,814.34z M742.97,467.75
			c-6.19,9.77-7.93,21.89-4.71,33.05l8.11,28.42c2.96,10.29-2.01,21.1-11.68,25.63l-26.77,12.47c-10.55,4.88-18.48,14.12-21.8,25.2
			l-8.54,28.25c-3.05,10.29-13.08,16.65-23.72,15.26l-29.3-4.01c-11.51-1.57-23.19,1.83-32,9.42l-22.5,19.18
			c-8.2,6.98-20.05,6.98-28.16,0l-22.5-19.18c-7.41-6.37-16.83-9.77-26.51-9.77c-1.83,0-3.66,0.09-5.49,0.35l-29.3,4.01
			c-10.64,1.4-20.58-4.97-23.72-15.26l-8.54-28.25c-3.4-11.16-11.33-20.32-21.8-25.2l-26.77-12.47
			c-9.77-4.53-14.65-15.35-11.68-25.63l8.11-28.42c3.23-11.16,1.48-23.19-4.71-33.05l-15.78-24.94c-5.75-9.07-4.01-20.84,4.01-27.9
			l22.23-19.53c8.72-7.67,13.78-18.75,13.86-30.34l0.17-29.56c0.09-10.72,7.85-19.71,18.48-21.27l29.21-4.45
			c11.51-1.74,21.71-8.28,28.08-18.05l16.13-24.76c5.84-8.98,17.26-12.29,27.03-7.93l26.94,12.03c10.55,4.71,22.76,4.71,33.31,0
			l26.94-12.03c9.77-4.36,21.19-1.05,27.03,7.93l16.13,24.76c6.36,9.77,16.57,16.3,28.08,18.05l29.21,4.45
			c10.64,1.57,18.4,10.55,18.48,21.27l0.17,29.56c0.09,11.6,5.14,22.67,13.86,30.34l22.23,19.53c8.02,7.06,9.77,18.83,4.01,27.9
			L742.97,467.75z"/>
		<path class="st7" d="M629.53,389.19l-99.49,106.03l-44.47-30.52c-1.83-1.4-4.27,1.22-2.79,2.96l44.9,57.98
			c2.35,3.05,6.98,2.96,9.16-0.17l95.91-133.66C634.24,389.8,631.1,387.36,629.53,389.19z"/>
		<path class="st7" d="M555.94,321.62c-77.08,0-139.86,62.69-139.86,139.86c0,77.08,62.69,139.86,139.86,139.86
			c77.08,0,139.86-62.69,139.86-139.86C695.8,384.4,633.02,321.62,555.94,321.62z M555.94,582.24
			c-66.61,0-120.76-54.15-120.76-120.76s54.15-120.76,120.76-120.76S676.7,394.86,676.7,461.48S622.56,582.24,555.94,582.24z"/>
	</g>
	<g>
		
			<linearGradient id="SVGID_1_" gradientUnits="userSpaceOnUse" x1="-957.1404" y1="-8026.8193" x2="-440.3876" y2="-8026.8193" gradientTransform="matrix(0.8719 0 0 0.8719 1165.2379 7566.4473)">
			<stop  offset="0" style="stop-color:#304F9E"/>
			<stop  offset="0.514" style="stop-color:#6A4293"/>
			<stop  offset="1" style="stop-color:#5AC3E7"/>
		</linearGradient>
		<path class="st1" d="M774.88,453.02c10.81-17.09,7.59-39.15-7.5-52.4l-22.23-19.53c-4.62-4.1-7.32-9.94-7.41-16.13l-0.17-29.56
			c-0.17-20.23-14.74-37.06-34.7-40.02l-29.21-4.45c-6.1-0.96-11.51-4.45-14.91-9.59l-16.13-24.76
			c-10.99-16.92-32.44-23.19-50.83-14.91l-26.94,12.03l0,0c-5.67,2.53-12.12,2.53-17.7,0l-26.94-12.03
			c-18.4-8.28-39.76-2.01-50.83,14.91l-16.13,24.76c-3.4,5.14-8.81,8.63-14.91,9.59l-29.21,4.45c-19.97,3.05-34.53,19.88-34.7,40.02
			l-0.17,29.56c0,6.19-2.7,12.03-7.41,16.13l-22.23,19.53c-15.17,13.34-18.31,35.4-7.5,52.4l15.78,24.94
			c3.31,5.23,4.19,11.6,2.53,17.53l-8.11,28.42c-5.58,19.36,3.75,39.67,21.97,48.22l26.77,12.47c5.58,2.62,9.85,7.5,11.6,13.43
			l8.54,28.25c4.97,16.39,19.18,27.47,35.57,28.86l-78.56,204.73l64.7-22.23l32.26,59.81l81.61-212.66c1.4,0.17,2.79,0.26,4.19,0.26
			c1.39,0,2.79-0.09,4.18-0.26l81.61,212.66L674,837.62l64.7,22.23l-78.56-204.73c16.39-1.31,30.6-12.47,35.57-28.86l8.54-28.25
			c1.74-5.93,6.02-10.81,11.6-13.43l26.77-12.47c18.31-8.54,27.55-28.77,21.97-48.22l-8.11-28.42c-1.66-5.93-0.78-12.29,2.53-17.53
			L774.88,453.02z M467.18,851.75l-20.23-37.49l-41.33,14.21l67.22-175.26l17.09-2.35c6.1-0.78,12.29,0.96,17,4.97l22.5,19.18
			c1.4,1.22,2.88,2.18,4.36,3.23L467.18,851.75z M664.93,814.34l-20.23,37.49l-66.53-173.51c1.48-0.96,2.96-2.01,4.36-3.23
			l22.5-19.18c4.71-4.01,10.9-5.84,17-4.97l17.09,2.35l67.22,175.26L664.93,814.34z M742.97,467.75
			c-6.19,9.77-7.93,21.89-4.71,33.05l8.11,28.42c2.96,10.29-2.01,21.1-11.68,25.63l-26.77,12.47c-10.55,4.88-18.48,14.12-21.8,25.2
			l-8.54,28.25c-3.05,10.29-13.08,16.65-23.72,15.26l-29.3-4.01c-11.51-1.57-23.19,1.83-32,9.42l-22.5,19.18
			c-8.2,6.98-20.05,6.98-28.16,0l-22.5-19.18c-7.41-6.37-16.83-9.77-26.51-9.77c-1.83,0-3.66,0.09-5.49,0.35l-29.3,4.01
			c-10.64,1.4-20.58-4.97-23.72-15.26l-8.54-28.25c-3.4-11.16-11.33-20.32-21.8-25.2l-26.77-12.47
			c-9.77-4.53-14.65-15.35-11.68-25.63l8.11-28.42c3.23-11.16,1.48-23.19-4.71-33.05l-15.78-24.94c-5.75-9.07-4.01-20.84,4.01-27.9
			l22.23-19.53c8.72-7.67,13.78-18.75,13.86-30.34l0.17-29.56c0.09-10.72,7.85-19.71,18.48-21.27l29.21-4.45
			c11.51-1.74,21.71-8.28,28.08-18.05l16.13-24.76c5.84-8.98,17.26-12.29,27.03-7.93l26.94,12.03c10.55,4.71,22.76,4.71,33.31,0
			l26.94-12.03c9.77-4.36,21.19-1.05,27.03,7.93l16.13,24.76c6.36,9.77,16.57,16.3,28.08,18.05l29.21,4.45
			c10.64,1.57,18.4,10.55,18.48,21.27l0.17,29.56c0.09,11.6,5.14,22.67,13.86,30.34l22.23,19.53c8.02,7.06,9.77,18.83,4.01,27.9
			L742.97,467.75z"/>
		
			<linearGradient id="SVGID_2_" gradientUnits="userSpaceOnUse" x1="-957.2546" y1="-8152.4268" x2="-440.3562" y2="-8152.4268" gradientTransform="matrix(0.8719 0 0 0.8719 1165.2379 7566.4473)">
			<stop  offset="0" style="stop-color:#304F9E"/>
			<stop  offset="0.514" style="stop-color:#6A4293"/>
			<stop  offset="1" style="stop-color:#5AC3E7"/>
		</linearGradient>
		<path class="st2" d="M629.53,389.19l-99.49,106.03l-44.47-30.52c-1.83-1.4-4.27,1.22-2.79,2.96l44.9,57.98
			c2.35,3.05,6.98,2.96,9.16-0.17l95.91-133.66C634.24,389.8,631.1,387.36,629.53,389.19z"/>
		
			<linearGradient id="SVGID_3_" gradientUnits="userSpaceOnUse" x1="-957.2546" y1="-8148.688" x2="-440.3562" y2="-8148.688" gradientTransform="matrix(0.8719 0 0 0.8719 1165.2379 7566.4473)">
			<stop  offset="0" style="stop-color:#304F9E"/>
			<stop  offset="0.514" style="stop-color:#6A4293"/>
			<stop  offset="1" style="stop-color:#5AC3E7"/>
		</linearGradient>
		<path class="st3" d="M555.94,321.62c-77.08,0-139.86,62.69-139.86,139.86c0,77.08,62.69,139.86,139.86,139.86
			c77.08,0,139.86-62.69,139.86-139.86C695.8,384.4,633.02,321.62,555.94,321.62z M555.94,582.24
			c-66.61,0-120.76-54.15-120.76-120.76s54.15-120.76,120.76-120.76S676.7,394.86,676.7,461.48S622.56,582.24,555.94,582.24z"/>
	</g>
</g>
</svg>
