<?xml version="1.0" encoding="utf-8"?>
<!-- Generator: Adobe Illustrator 24.3.0, SVG Export Plug-In . SVG Version: 6.00 Build 0)  -->
<svg version="1.1" id="Capa_1" xmlns="http://www.w3.org/2000/svg" xmlns:xlink="http://www.w3.org/1999/xlink" x="0px" y="0px"
	 viewBox="0 0 1080 1080" style="enable-background:new 0 0 1080 1080;" xml:space="preserve">
<style type="text/css">
	.st0{fill:#1E1E1C;}
	.st1{fill:url(#SVGID_1_);}
	.st2{fill:url(#SVGID_2_);}
	.st3{fill:url(#SVGID_3_);}
	.st4{fill:url(#SVGID_4_);}
	.st5{fill:url(#SVGID_5_);}
	.st6{fill:url(#SVGID_6_);}
	.st7{fill:#020203;}
	.st8{fill:url(#SVGID_7_);}
	.st9{fill:url(#SVGID_8_);}
	.st10{fill:url(#SVGID_9_);}
	.st11{fill:url(#SVGID_10_);}
	.st12{fill:url(#SVGID_11_);}
	.st13{fill:url(#SVGID_12_);}
	.st14{fill:url(#SVGID_13_);}
	.st15{fill:url(#SVGID_14_);}
	.st16{fill:url(#SVGID_15_);}
	.st17{fill:url(#SVGID_16_);}
	.st18{fill:url(#SVGID_17_);}
	.st19{fill:url(#SVGID_18_);}
	.st20{fill:url(#SVGID_19_);}
	.st21{fill:url(#SVGID_20_);}
	.st22{fill:url(#SVGID_21_);}
	.st23{fill:url(#SVGID_22_);}
	.st24{fill:url(#SVGID_23_);}
	.st25{fill:url(#SVGID_24_);}
	.st26{fill:url(#SVGID_25_);}
	.st27{fill:url(#SVGID_26_);}
	.st28{fill:url(#SVGID_27_);}
	.st29{fill:url(#SVGID_28_);}
	.st30{fill:url(#SVGID_29_);}
	.st31{fill:url(#SVGID_30_);}
	.st32{fill:url(#SVGID_31_);}
	.st33{fill:url(#SVGID_32_);}
	.st34{fill:url(#SVGID_33_);}
	.st35{fill:url(#SVGID_34_);}
	.st36{fill:url(#SVGID_35_);}
	.st37{fill:url(#SVGID_36_);}
	.st38{fill:url(#SVGID_37_);}
	.st39{fill:url(#SVGID_38_);}
	.st40{fill:url(#SVGID_39_);}
	.st41{fill:url(#SVGID_40_);}
	.st42{fill:url(#SVGID_41_);}
	.st43{fill:url(#SVGID_42_);}
	.st44{fill:url(#SVGID_43_);}
	.st45{fill:url(#SVGID_44_);}
	.st46{fill:url(#SVGID_45_);}
	.st47{fill:url(#SVGID_46_);}
	.st48{fill:url(#SVGID_47_);}
	.st49{fill:url(#SVGID_48_);}
	.st50{fill:url(#SVGID_49_);}
	.st51{fill:url(#SVGID_50_);}
	.st52{fill:url(#SVGID_51_);}
	.st53{fill:url(#SVGID_52_);}
	.st54{fill:url(#SVGID_53_);}
	.st55{fill:url(#SVGID_54_);}
	.st56{fill:url(#SVGID_55_);}
	.st57{fill:url(#SVGID_56_);}
	.st58{fill:url(#SVGID_57_);}
	.st59{fill:url(#SVGID_58_);}
	.st60{fill:url(#SVGID_59_);}
	.st61{fill:url(#SVGID_60_);}
	.st62{fill:url(#SVGID_61_);}
</style>
<g>
	<path d="M790.12,423.75c-59.12,0-107.16,48.04-107.16,107.25c0,59.12,48.13,107.25,107.16,107.25s107.16-48.13,107.16-107.25
		C897.27,471.88,849.23,423.75,790.12,423.75z M790.12,619.14c-48.57,0-88.15-39.5-88.15-88.15c0-48.57,39.5-88.06,88.15-88.06
		s88.15,39.5,88.15,88.06C878.18,579.56,838.68,619.14,790.12,619.14z"/>
	<path d="M963.54,570.84v-79.61l-41.76-7.06c-1.57-4.45-3.4-8.81-5.49-13.17l24.59-34.53l-56.33-56.33l-34.44,24.59
		c-4.27-2.09-8.72-3.92-13.25-5.49l-6.98-41.76h-79.69l-6.98,41.68c-4.53,1.57-8.89,3.4-13.25,5.49l-34.44-24.5l-1.05,1.05H336.54
		v450.52h194.61v61.03l-54.06,56.59h299.33l-54.06-56.59v-30.26h-19.09v37.93l28.51,29.82H521.74l28.51-29.82v-68.71h365.42v-94.95
		H402.9v19.1h493.68v56.76H355.73V400.38h319.73l-36.18,36.18l24.59,34.53c-2.01,4.27-3.84,8.63-5.49,13.17l-41.76,7.06v79.61
		l41.76,7.06c1.57,4.45,3.4,8.89,5.49,13.17l-24.59,34.44l56.33,56.33l34.53-24.59c4.27,2.09,8.72,3.92,13.17,5.49l7.06,41.77h79.61
		l6.98-41.77c4.53-1.57,8.89-3.4,13.25-5.49l34.44,24.59l56.33-56.33l-24.59-34.44c2.09-4.36,3.92-8.72,5.49-13.25L963.54,570.84z
		 M916.02,623.42l-33.48,33.48l-30.78-21.97l-5.23,2.79c-6.63,3.57-13.6,6.45-20.84,8.63l-5.67,1.74l-6.28,37.32H766.4l-6.28-37.32
		l-5.58-1.74c-7.15-2.18-14.21-5.14-20.84-8.63l-5.23-2.79l-30.87,21.97l-33.48-33.48l21.97-30.87l-2.79-5.23
		c-3.49-6.63-6.45-13.6-8.63-20.84l-1.74-5.67l-37.32-6.28v-47.26l37.32-6.28l1.74-5.67c2.27-7.24,5.14-14.3,8.63-20.84l2.79-5.23
		l-21.97-30.87l33.48-33.48l30.87,21.97l5.23-2.79c6.54-3.49,13.6-6.45,20.75-8.63l5.67-1.74l6.28-37.32h47.35l6.28,37.32l5.67,1.74
		c6.63,2.01,13.17,4.71,19.44,7.85c0.44,0.26,0.87,0.44,1.4,0.7l5.23,2.79l30.87-21.97l33.48,33.48l-21.97,30.78l2.7,5.23
		c3.57,6.71,6.45,13.78,8.63,20.84l1.74,5.67l37.32,6.28v47.34l-37.32,6.28l-1.74,5.67c-2.18,7.15-5.06,14.13-8.63,20.84l-2.79,5.23
		L916.02,623.42z"/>
	<path d="M525.66,628.04c1.83,1.83,4.27,2.79,6.71,2.79s4.88-0.96,6.71-2.79l63.48-63.48l-64-64c-3.75-3.75-9.77-3.75-13.51,0
		c-3.75,3.75-3.75,9.77,0,13.51l50.48,50.48l-49.96,50.05C521.91,618.27,521.91,624.29,525.66,628.04z"/>
	<path d="M464.98,500.48c-3.75-3.75-9.77-3.75-13.51,0l-64,64l63.48,63.48c1.83,1.83,4.27,2.79,6.71,2.79s4.88-0.96,6.71-2.79
		c3.75-3.75,3.75-9.77,0-13.51l-49.96-49.96l50.48-50.48C468.73,510.24,468.73,504.22,464.98,500.48z"/>
</g>
</svg>
