<?xml version="1.0" encoding="utf-8"?>
<!-- Generator: Adobe Illustrator 24.3.0, SVG Export Plug-In . SVG Version: 6.00 Build 0)  -->
<svg version="1.1" id="Capa_1" xmlns="http://www.w3.org/2000/svg" xmlns:xlink="http://www.w3.org/1999/xlink" x="0px" y="0px"
	 viewBox="0 0 1080 1080" style="enable-background:new 0 0 1080 1080;" xml:space="preserve">
<style type="text/css">
	.st0{fill:#1E1E1C;}
	.st1{fill:url(#SVGID_1_);}
	.st2{fill:url(#SVGID_2_);}
	.st3{fill:url(#SVGID_3_);}
	.st4{fill:url(#SVGID_4_);}
	.st5{fill:url(#SVGID_5_);}
	.st6{fill:url(#SVGID_6_);}
	.st7{fill:#020203;}
	.st8{fill:url(#SVGID_7_);}
	.st9{fill:url(#SVGID_8_);}
	.st10{fill:url(#SVGID_9_);}
	.st11{fill:url(#SVGID_10_);}
	.st12{fill:url(#SVGID_11_);}
	.st13{fill:url(#SVGID_12_);}
	.st14{fill:url(#SVGID_13_);}
	.st15{fill:url(#SVGID_14_);}
	.st16{fill:url(#SVGID_15_);}
	.st17{fill:url(#SVGID_16_);}
	.st18{fill:url(#SVGID_17_);}
	.st19{fill:url(#SVGID_18_);}
	.st20{fill:url(#SVGID_19_);}
	.st21{fill:url(#SVGID_20_);}
	.st22{fill:url(#SVGID_21_);}
	.st23{fill:url(#SVGID_22_);}
	.st24{fill:url(#SVGID_23_);}
	.st25{fill:url(#SVGID_24_);}
	.st26{fill:url(#SVGID_25_);}
	.st27{fill:url(#SVGID_26_);}
	.st28{fill:url(#SVGID_27_);}
	.st29{fill:url(#SVGID_28_);}
	.st30{fill:url(#SVGID_29_);}
	.st31{fill:url(#SVGID_30_);}
	.st32{fill:url(#SVGID_31_);}
	.st33{fill:url(#SVGID_32_);}
	.st34{fill:url(#SVGID_33_);}
	.st35{fill:url(#SVGID_34_);}
	.st36{fill:url(#SVGID_35_);}
	.st37{fill:url(#SVGID_36_);}
	.st38{fill:url(#SVGID_37_);}
	.st39{fill:url(#SVGID_38_);}
	.st40{fill:url(#SVGID_39_);}
	.st41{fill:url(#SVGID_40_);}
	.st42{fill:url(#SVGID_41_);}
	.st43{fill:url(#SVGID_42_);}
	.st44{fill:url(#SVGID_43_);}
	.st45{fill:url(#SVGID_44_);}
	.st46{fill:url(#SVGID_45_);}
	.st47{fill:url(#SVGID_46_);}
	.st48{fill:url(#SVGID_47_);}
	.st49{fill:url(#SVGID_48_);}
	.st50{fill:url(#SVGID_49_);}
	.st51{fill:url(#SVGID_50_);}
	.st52{fill:url(#SVGID_51_);}
	.st53{fill:url(#SVGID_52_);}
	.st54{fill:url(#SVGID_53_);}
	.st55{fill:url(#SVGID_54_);}
	.st56{fill:url(#SVGID_55_);}
	.st57{fill:url(#SVGID_56_);}
	.st58{fill:url(#SVGID_57_);}
	.st59{fill:url(#SVGID_58_);}
	.st60{fill:url(#SVGID_59_);}
	.st61{fill:url(#SVGID_60_);}
	.st62{fill:url(#SVGID_61_);}
</style>
<g>
	<g>
		<path class="st0" d="M746.46,272.52c-59.12,0-107.16,48.04-107.16,107.16c0,59.12,48.13,107.25,107.16,107.25
			c59.12,0,107.16-48.13,107.16-107.25C853.71,320.65,805.58,272.52,746.46,272.52z M746.46,467.91
			c-48.57,0-88.15-39.58-88.15-88.15c0-48.57,39.5-88.06,88.15-88.06c48.57,0,88.15,39.5,88.15,88.06
			C834.53,428.33,795.03,467.91,746.46,467.91z"/>
		<path class="st0" d="M919.89,419.52v-79.61l-41.76-7.06c-1.57-4.45-3.4-8.81-5.49-13.17l24.59-34.53l-56.33-56.33l-34.44,24.59
			c-4.27-2.09-8.72-3.92-13.25-5.49l-6.98-41.76h-79.69l-6.98,41.68c-4.53,1.57-8.89,3.4-13.25,5.49l-34.44-24.5l-1.05,1.05H292.89
			V680.4H487.5v61.03l-54.06,56.59h299.33l-54.06-56.59v-30.26h-19.09v37.93l28.51,29.82H478.09l28.51-29.82V680.4h365.42v-94.95
			H359.25v19.09h493.68v56.76H312.07V248.97h319.73l-36.18,36.18l24.59,34.53c-2.01,4.27-3.84,8.63-5.49,13.17l-41.76,7.06v79.61
			l41.76,7.06c1.57,4.45,3.4,8.89,5.49,13.17l-24.59,34.53l56.33,56.33l34.53-24.59c4.27,2.09,8.72,3.84,13.17,5.49l7.06,41.76
			h79.61l6.98-41.76c4.53-1.57,8.89-3.4,13.25-5.49l34.44,24.59l56.33-56.33l-24.59-34.44c2.09-4.27,3.92-8.72,5.49-13.25
			L919.89,419.52z M872.37,472.19l-33.48,33.48l-30.78-21.97l-5.23,2.79c-6.63,3.57-13.69,6.45-20.84,8.63l-5.67,1.74l-6.28,37.32
			h-47.35l-6.28-37.32l-5.58-1.74c-7.15-2.27-14.21-5.14-20.84-8.63l-5.23-2.79l-30.87,21.97l-33.48-33.48l21.97-30.87l-2.79-5.23
			c-3.49-6.63-6.45-13.6-8.63-20.84l-1.74-5.58l-37.32-6.28v-47.26l37.32-6.28l1.74-5.58c2.27-7.24,5.14-14.3,8.63-20.84l2.79-5.23
			l-21.97-30.87l33.48-33.48l30.87,21.97l5.23-2.79c6.54-3.57,13.6-6.45,20.75-8.63l5.67-1.74l6.28-37.32h47.35l6.28,37.32
			l5.67,1.74c6.63,2.01,13.17,4.71,19.44,7.85c0.44,0.26,0.87,0.44,1.4,0.7l5.23,2.79l30.87-21.97l33.48,33.48l-21.97,30.78
			l2.79,5.23c3.57,6.71,6.45,13.78,8.63,20.84l1.74,5.67l37.32,6.28v47.35l-37.32,6.28l-1.74,5.67c-2.18,7.15-5.06,14.12-8.63,20.84
			l-2.79,5.23L872.37,472.19z"/>
		<path class="st0" d="M482.01,476.81c1.83,1.83,4.27,2.79,6.71,2.79s4.88-0.96,6.71-2.79l63.48-63.48l-64-64
			c-3.75-3.75-9.77-3.75-13.51,0c-3.75,3.75-3.75,9.77,0,13.51l50.48,50.48l-49.96,50.05C478.26,466.95,478.26,473.06,482.01,476.81
			z"/>
		<path class="st0" d="M421.33,349.25c-3.75-3.75-9.77-3.75-13.51,0l-64,64l63.48,63.48c1.83,1.83,4.27,2.79,6.71,2.79
			c2.44,0,4.88-0.96,6.71-2.79c3.75-3.75,3.75-9.77,0-13.51l-49.96-50.05l50.48-50.48C425.07,359.01,425.07,352.99,421.33,349.25z"
			/>
	</g>
	<g>
		
			<linearGradient id="SVGID_1_" gradientUnits="userSpaceOnUse" x1="-677.1819" y1="-8242.4551" x2="41.8252" y2="-8242.4551" gradientTransform="matrix(0.8719 0 0 0.8719 883.4531 7566.4473)">
			<stop  offset="0" style="stop-color:#304F9E"/>
			<stop  offset="0.514" style="stop-color:#6A4293"/>
			<stop  offset="1" style="stop-color:#5AC3E7"/>
		</linearGradient>
		<path class="st1" d="M746.46,272.52c-59.12,0-107.16,48.04-107.16,107.16c0,59.12,48.13,107.25,107.16,107.25
			c59.12,0,107.16-48.13,107.16-107.25C853.71,320.65,805.58,272.52,746.46,272.52z M746.46,467.91
			c-48.57,0-88.15-39.58-88.15-88.15c0-48.57,39.5-88.06,88.15-88.06c48.57,0,88.15,39.5,88.15,88.06
			C834.53,428.33,795.03,467.91,746.46,467.91z"/>
		
			<linearGradient id="SVGID_2_" gradientUnits="userSpaceOnUse" x1="-677.3141" y1="-8102.106" x2="41.7857" y2="-8102.106" gradientTransform="matrix(0.8719 0 0 0.8719 883.4531 7566.4473)">
			<stop  offset="0" style="stop-color:#304F9E"/>
			<stop  offset="0.514" style="stop-color:#6A4293"/>
			<stop  offset="1" style="stop-color:#5AC3E7"/>
		</linearGradient>
		<path class="st2" d="M919.89,419.52v-79.61l-41.76-7.06c-1.57-4.45-3.4-8.81-5.49-13.17l24.59-34.53l-56.33-56.33l-34.44,24.59
			c-4.27-2.09-8.72-3.92-13.25-5.49l-6.98-41.76h-79.69l-6.98,41.68c-4.53,1.57-8.89,3.4-13.25,5.49l-34.44-24.5l-1.05,1.05H292.89
			V680.4H487.5v61.03l-54.06,56.59h299.33l-54.06-56.59v-30.26h-19.09v37.93l28.51,29.82H478.09l28.51-29.82V680.4h365.42v-94.95
			H359.25v19.09h493.68v56.76H312.07V248.97h319.73l-36.18,36.18l24.59,34.53c-2.01,4.27-3.84,8.63-5.49,13.17l-41.76,7.06v79.61
			l41.76,7.06c1.57,4.45,3.4,8.89,5.49,13.17l-24.59,34.53l56.33,56.33l34.53-24.59c4.27,2.09,8.72,3.84,13.17,5.49l7.06,41.76
			h79.61l6.98-41.76c4.53-1.57,8.89-3.4,13.25-5.49l34.44,24.59l56.33-56.33l-24.59-34.44c2.09-4.27,3.92-8.72,5.49-13.25
			L919.89,419.52z M872.37,472.19l-33.48,33.48l-30.78-21.97l-5.23,2.79c-6.63,3.57-13.69,6.45-20.84,8.63l-5.67,1.74l-6.28,37.32
			h-47.35l-6.28-37.32l-5.58-1.74c-7.15-2.27-14.21-5.14-20.84-8.63l-5.23-2.79l-30.87,21.97l-33.48-33.48l21.97-30.87l-2.79-5.23
			c-3.49-6.63-6.45-13.6-8.63-20.84l-1.74-5.58l-37.32-6.28v-47.26l37.32-6.28l1.74-5.58c2.27-7.24,5.14-14.3,8.63-20.84l2.79-5.23
			l-21.97-30.87l33.48-33.48l30.87,21.97l5.23-2.79c6.54-3.57,13.6-6.45,20.75-8.63l5.67-1.74l6.28-37.32h47.35l6.28,37.32
			l5.67,1.74c6.63,2.01,13.17,4.71,19.44,7.85c0.44,0.26,0.87,0.44,1.4,0.7l5.23,2.79l30.87-21.97l33.48,33.48l-21.97,30.78
			l2.79,5.23c3.57,6.71,6.45,13.78,8.63,20.84l1.74,5.67l37.32,6.28v47.35l-37.32,6.28l-1.74,5.67c-2.18,7.15-5.06,14.12-8.63,20.84
			l-2.79,5.23L872.37,472.19z"/>
		
			<linearGradient id="SVGID_3_" gradientUnits="userSpaceOnUse" x1="-677.1819" y1="-8204.2178" x2="41.8252" y2="-8204.2178" gradientTransform="matrix(0.8719 0 0 0.8719 883.4531 7566.4473)">
			<stop  offset="0" style="stop-color:#304F9E"/>
			<stop  offset="0.514" style="stop-color:#6A4293"/>
			<stop  offset="1" style="stop-color:#5AC3E7"/>
		</linearGradient>
		<path class="st3" d="M482.01,476.81c1.83,1.83,4.27,2.79,6.71,2.79s4.88-0.96,6.71-2.79l63.48-63.48l-64-64
			c-3.75-3.75-9.77-3.75-13.51,0c-3.75,3.75-3.75,9.77,0,13.51l50.48,50.48l-49.96,50.05C478.26,466.95,478.26,473.06,482.01,476.81
			z"/>
		
			<linearGradient id="SVGID_4_" gradientUnits="userSpaceOnUse" x1="-677.1819" y1="-8204.3184" x2="41.8252" y2="-8204.3184" gradientTransform="matrix(0.8719 0 0 0.8719 883.4531 7566.4473)">
			<stop  offset="0" style="stop-color:#304F9E"/>
			<stop  offset="0.514" style="stop-color:#6A4293"/>
			<stop  offset="1" style="stop-color:#5AC3E7"/>
		</linearGradient>
		<path class="st4" d="M421.33,349.25c-3.75-3.75-9.77-3.75-13.51,0l-64,64l63.48,63.48c1.83,1.83,4.27,2.79,6.71,2.79
			c2.44,0,4.88-0.96,6.71-2.79c3.75-3.75,3.75-9.77,0-13.51l-49.96-50.05l50.48-50.48C425.07,359.01,425.07,352.99,421.33,349.25z"
			/>
	</g>
</g>
</svg>
