<?xml version="1.0" encoding="utf-8"?>
<!-- Generator: Adobe Illustrator 24.3.0, SVG Export Plug-In . SVG Version: 6.00 Build 0)  -->
<svg version="1.1" id="Capa_1" xmlns="http://www.w3.org/2000/svg" xmlns:xlink="http://www.w3.org/1999/xlink" x="0px" y="0px"
	 viewBox="0 0 1080 1080" style="enable-background:new 0 0 1080 1080;" xml:space="preserve">
<style type="text/css">
	.st0{fill:#1E1E1C;}
	.st1{fill:url(#SVGID_1_);}
	.st2{fill:url(#SVGID_2_);}
	.st3{fill:url(#SVGID_3_);}
	.st4{fill:url(#SVGID_4_);}
	.st5{fill:url(#SVGID_5_);}
	.st6{fill:url(#SVGID_6_);}
	.st7{fill:#020203;}
	.st8{fill:url(#SVGID_7_);}
	.st9{fill:url(#SVGID_8_);}
	.st10{fill:url(#SVGID_9_);}
	.st11{fill:url(#SVGID_10_);}
	.st12{fill:url(#SVGID_11_);}
	.st13{fill:url(#SVGID_12_);}
	.st14{fill:url(#SVGID_13_);}
	.st15{fill:url(#SVGID_14_);}
	.st16{fill:url(#SVGID_15_);}
	.st17{fill:url(#SVGID_16_);}
	.st18{fill:url(#SVGID_17_);}
	.st19{fill:url(#SVGID_18_);}
	.st20{fill:url(#SVGID_19_);}
	.st21{fill:url(#SVGID_20_);}
	.st22{fill:url(#SVGID_21_);}
	.st23{fill:url(#SVGID_22_);}
	.st24{fill:url(#SVGID_23_);}
	.st25{fill:url(#SVGID_24_);}
	.st26{fill:url(#SVGID_25_);}
	.st27{fill:url(#SVGID_26_);}
	.st28{fill:url(#SVGID_27_);}
	.st29{fill:url(#SVGID_28_);}
	.st30{fill:url(#SVGID_29_);}
	.st31{fill:url(#SVGID_30_);}
	.st32{fill:url(#SVGID_31_);}
	.st33{fill:url(#SVGID_32_);}
	.st34{fill:url(#SVGID_33_);}
	.st35{fill:url(#SVGID_34_);}
	.st36{fill:url(#SVGID_35_);}
	.st37{fill:url(#SVGID_36_);}
	.st38{fill:url(#SVGID_37_);}
	.st39{fill:url(#SVGID_38_);}
	.st40{fill:url(#SVGID_39_);}
	.st41{fill:url(#SVGID_40_);}
	.st42{fill:url(#SVGID_41_);}
	.st43{fill:url(#SVGID_42_);}
	.st44{fill:url(#SVGID_43_);}
	.st45{fill:url(#SVGID_44_);}
	.st46{fill:url(#SVGID_45_);}
	.st47{fill:url(#SVGID_46_);}
	.st48{fill:url(#SVGID_47_);}
	.st49{fill:url(#SVGID_48_);}
	.st50{fill:url(#SVGID_49_);}
	.st51{fill:url(#SVGID_50_);}
	.st52{fill:url(#SVGID_51_);}
	.st53{fill:url(#SVGID_52_);}
	.st54{fill:url(#SVGID_53_);}
	.st55{fill:url(#SVGID_54_);}
	.st56{fill:url(#SVGID_55_);}
	.st57{fill:url(#SVGID_56_);}
	.st58{fill:url(#SVGID_57_);}
	.st59{fill:url(#SVGID_58_);}
	.st60{fill:url(#SVGID_59_);}
	.st61{fill:url(#SVGID_60_);}
	.st62{fill:url(#SVGID_61_);}
</style>
<g>
	<g>
		<g>
			<g>
				<g>
					<path d="M580.46,836.17c-0.17,0-0.35,0-0.52,0c-2.7-0.17-67.66-4.53-132.79-71.06c-85.71-87.54-129.22-235.85-129.22-440.84
						c0-4.97,3.84-9.16,8.81-9.5c90.77-7.32,166.54-18.83,247.28-92.68c3.66-3.31,9.24-3.31,12.9,0
						c80.74,73.85,156.51,85.36,247.28,92.68c4.97,0.44,8.81,4.53,8.81,9.5c0,28.95-0.87,56.24-2.53,81
						c-0.17,4.36-0.52,8.81-0.96,13.34c-1.31,18.75-3.31,38.02-5.93,57.29c-0.52,4.45-1.13,8.98-1.83,13.43
						c-3.23,22.23-7.5,44.64-12.64,66.44c-1.13,4.62-2.27,9.07-3.4,13.34c-11.25,43.6-26.33,83.09-44.82,117.27
						c-1.83,3.4-3.75,6.71-5.58,9.94l-1.92,3.4c-14.74,24.85-31.3,46.82-49.52,65.39c-65.13,66.44-130,70.89-132.71,71.06
						C580.81,836.17,580.64,836.17,580.46,836.17z M337.11,333.08c1.57,241.7,67.31,360.45,122.59,417.56
						c56.85,58.77,114.48,65.83,120.76,66.44c6.19-0.61,63.04-7.5,119.63-65.31c17.09-17.44,32.78-38.19,46.65-61.56l1.92-3.31
						c1.74-3.05,3.57-6.19,5.32-9.42c17.79-32.96,32.26-70.97,43.16-113.09c1.13-4.27,2.27-8.63,3.31-13.08
						c4.97-21.1,9.16-42.99,12.29-64.87c0.7-4.27,1.31-8.54,1.83-12.82c2.53-19.01,4.53-37.93,5.84-56.5
						c0.44-4.45,0.7-8.63,0.87-12.9c1.48-22.06,2.35-45.86,2.53-71.15c-88.24-7.5-163.31-20.66-243.35-91.12
						C500.42,312.41,425.35,325.58,337.11,333.08z"/>
				</g>
			</g>
		</g>
	</g>
	<g>
		<path d="M582.3,391.93c-79.61,0-144.39,64.78-144.39,144.39s64.78,144.39,144.39,144.39s144.39-64.78,144.39-144.39
			S661.9,391.93,582.3,391.93z M582.3,663.01c-69.84,0-126.6-56.76-126.6-126.6s56.76-126.6,126.6-126.6
			c69.84,0,126.6,56.76,126.6,126.6S652.05,663.01,582.3,663.01z"/>
		<path d="M657.02,464.65l-103.5,110.21l-46.3-31.74c-1.92-1.4-4.45,1.22-2.96,3.14l46.73,60.34c2.44,3.14,7.24,3.05,9.5-0.17
			l99.75-139.07C661.9,465.26,658.68,462.73,657.02,464.65z"/>
	</g>
</g>
</svg>
