<svg width="1080" height="1080" xmlns="http://www.w3.org/2000/svg" xml:space="preserve" version="1.1">

 <g>
  <title>Layer 1</title>
  <g id="svg_1">
   <g id="svg_2">
    <g id="svg_3">
     <g id="svg_4">
      <g id="svg_5">
       <path id="svg_6" d="m539.99,848.28125c-0.17,0 -0.35,0 -0.52,0c-2.7,-0.17 -67.66,-4.53 -132.79,-71.06c-85.71,-87.54 -129.22,-235.85 -129.22,-440.84c0,-4.97 3.84,-9.16 8.81,-9.5c90.77,-7.32 166.54,-18.83 247.28,-92.68c3.66,-3.31 9.24,-3.31 12.9,0c80.74,73.85 156.51,85.36 247.28,92.68c4.97,0.44 8.81,4.53 8.81,9.5c0,28.95 -0.87,56.24 -2.53,81c-0.17,4.36 -0.52,8.81 -0.96,13.34c-1.31,18.75 -3.31,38.02 -5.93,57.29c-0.52,4.45 -1.13,8.98 -1.83,13.43c-3.23,22.23 -7.5,44.64 -12.64,66.44c-1.13,4.62 -2.27,9.07 -3.4,13.34c-11.25,43.6 -26.33,83.09 -44.82,117.27c-1.83,3.4 -3.75,6.71 -5.58,9.94l-1.92,3.4c-14.74,24.85 -31.3,46.82 -49.52,65.39c-65.13,66.44 -130,70.89 -132.71,71.06c-0.36,0 -0.53,0 -0.71,0zm-243.35,-503.09c1.57,241.7 67.31,360.45 122.59,417.56c56.85,58.77 114.48,65.83 120.76,66.44c6.19,-0.61 63.04,-7.5 119.63,-65.31c17.09,-17.44 32.78,-38.19 46.65,-61.56l1.92,-3.31c1.74,-3.05 3.57,-6.19 5.32,-9.42c17.79,-32.96 32.26,-70.97 43.16,-113.09c1.13,-4.27 2.27,-8.63 3.31,-13.08c4.97,-21.1 9.16,-42.99 12.29,-64.87c0.7,-4.27 1.31,-8.54 1.83,-12.82c2.53,-19.01 4.53,-37.93 5.84,-56.5c0.44,-4.45 0.7,-8.63 0.87,-12.9c1.48,-22.06 2.35,-45.86 2.53,-71.15c-88.24,-7.5 -163.31,-20.66 -243.35,-91.12c-80.04,70.46 -155.11,83.63 -243.35,91.13z"/>
      </g>
     </g>
    </g>
   </g>
   <g id="svg_7">
    <path id="svg_8" d="m541.83,404.04125c-79.61,0 -144.39,64.78 -144.39,144.39s64.78,144.39 144.39,144.39s144.39,-64.78 144.39,-144.39s-64.79,-144.39 -144.39,-144.39zm0,271.08c-69.84,0 -126.6,-56.76 -126.6,-126.6s56.76,-126.6 126.6,-126.6c69.84,0 126.6,56.76 126.6,126.6s-56.85,126.6 -126.6,126.6z"/>
    <path id="svg_9" d="m616.55,476.76125l-103.5,110.21l-46.3,-31.74c-1.92,-1.4 -4.45,1.22 -2.96,3.14l46.73,60.34c2.44,3.14 7.24,3.05 9.5,-0.17l99.75,-139.07c1.66,-2.1 -1.56,-4.63 -3.22,-2.71z"/>
   </g>
  </g>
 </g>
</svg>