<svg width="1080" height="1080" xmlns="http://www.w3.org/2000/svg" xml:space="preserve" version="1.1">

 <g>
  <title>Layer 1</title>
  <g id="svg_1">
   <path id="svg_2" d="m933.87999,548.53999c-11.86,0 -21.97,7.5 -25.9,18.05l-249.28,0l-30.78,-32.52l156.51,0c3.92,10.55 14.04,18.05 25.9,18.05c15.17,0 27.64,-12.38 27.64,-27.64s-12.38,-27.64 -27.64,-27.64c-11.86,0 -21.97,7.5 -25.9,18.05l-276.92,0c-0.61,0 -1.22,0.09 -1.74,0.17c-1.57,-12.03 -4.19,-23.8 -7.93,-35.31c-1.22,-3.75 -2.62,-7.5 -4.01,-11.16l15.43,0l23.72,27.99c1.83,2.18 4.45,3.4 7.32,3.4l28.95,0c3.14,0 6.1,-1.57 7.93,-4.19l18.48,-27.2l20.05,0l17,17.96c1.83,1.92 4.27,2.96 6.98,2.96l32.61,0c3.49,0 6.71,-1.92 8.37,-4.97l13.51,-25.11l26.33,0l41.34,33.57c3.31,2.7 8.11,2.88 11.6,0.35l34.35,-24.76l32.44,0c3.92,10.46 14.04,17.96 25.81,17.96c15.17,0 27.64,-12.38 27.64,-27.55c0,-15.26 -12.38,-27.64 -27.64,-27.64c-11.95,0 -22.06,7.59 -25.9,18.22l-35.4,0c-2.01,0 -3.92,0.61 -5.58,1.83l-30.95,22.32l-38.28,-31.04c-1.66,-1.4 -3.84,-2.09 -6.02,-2.09l-35.4,0c-3.49,0 -6.71,1.92 -8.37,4.97l-13.51,25.11l-22.76,0l-17,-17.96c-1.83,-1.92 -4.27,-2.96 -6.98,-2.96l-29.21,0c-3.14,0 -6.1,1.57 -7.93,4.19l-18.48,27.2l-19.44,0l-23.72,-27.99c-1.83,-2.18 -4.45,-3.4 -7.32,-3.4l-23.98,0c-1.4,0 -2.79,0.35 -4.01,0.87c-32.87,-64 -98.96,-105.24 -172.9,-105.24c-107.25,0 -194.52,87.28 -194.52,194.61s87.28,194.61 194.52,194.61c69.23,0 132.88,-37.32 167.5,-95.56l329.85,-0.09c3.92,10.38 14.04,17.87 25.81,17.87c15.17,0 27.64,-12.38 27.64,-27.64c0,-15.26 -12.38,-27.55 -27.64,-27.55c-11.95,0 -22.15,7.67 -25.98,18.31l-319.82,0.09c1.74,-3.84 3.31,-7.67 4.8,-11.6c2.53,-6.8 4.62,-13.6 6.45,-20.58l56.41,0c3.92,10.46 14.04,18.05 25.81,18.05c15.26,0 27.64,-12.38 27.64,-27.64c0,-15.26 -12.38,-27.64 -27.64,-27.64c-11.86,0 -21.97,7.5 -25.9,18.05l-52.59,0c1.4,-9.42 2.09,-18.92 2.09,-28.6c0,-1.92 -0.09,-3.92 -0.09,-5.84c0.09,0 0.17,0 0.26,0l94.08,0l45.86,48.48c1.83,1.92 4.36,3.05 6.98,3.05l253.64,0c3.92,10.55 14.04,18.05 25.9,18.05c15.17,0 27.64,-12.38 27.64,-27.64c0,-15.26 -12.47,-27.64 -27.73,-27.64zm-67.83,-98c4.71,0 8.54,3.84 8.54,8.54c0,4.71 -3.84,8.54 -8.54,8.54c-4.71,0 -8.54,-3.84 -8.54,-8.54c-0.01,-4.71 3.91,-8.54 8.54,-8.54zm-30.09,170.02c4.71,0 8.54,3.84 8.54,8.54s-3.84,8.54 -8.54,8.54c-4.71,0 -8.54,-3.84 -8.54,-8.54s3.84,-8.54 8.54,-8.54zm-252.24,-51.1c4.71,0 8.54,3.84 8.54,8.54s-3.84,8.54 -8.54,8.54c-4.71,0 -8.54,-3.84 -8.54,-8.54s3.83,-8.54 8.54,-8.54zm-270.91,145.88c-96.7,0 -175.43,-78.73 -175.43,-175.52s78.65,-175.52 175.43,-175.52c76.38,0 143.52,48.74 166.97,121.37c5.67,17.35 8.54,35.57 8.54,54.15c0,11.07 -1.05,21.97 -3.05,32.7c-1.05,1.57 -1.66,3.4 -1.66,5.41c0,0.61 0.09,1.22 0.17,1.83c-1.74,7.32 -3.84,14.56 -6.54,21.62c-25.62,68.18 -91.62,113.96 -164.43,113.96zm497.52,-199.32c4.71,0 8.54,3.84 8.54,8.54s-3.84,8.54 -8.54,8.54c-4.71,0 -8.54,-3.84 -8.54,-8.54s3.83,-8.54 8.54,-8.54zm123.55,68.62c-4.71,0 -8.54,-3.84 -8.54,-8.54s3.84,-8.54 8.54,-8.54c4.71,0 8.54,3.84 8.54,8.54s-3.83,8.54 -8.54,8.54z"/>
   <path id="svg_3" d="m216.54999,478.17999c-31.74,0 -57.55,25.81 -57.55,57.63c0,31.74 25.81,57.55 57.55,57.55c23.89,0 45.6,-15 53.97,-37.41c2.44,-6.45 3.66,-13.25 3.66,-20.23c0,-6.1 -0.96,-12.03 -2.79,-17.79c-7.75,-23.71 -29.72,-39.75 -54.84,-39.75zm36.1,71.14c-5.58,14.91 -20.05,24.94 -36.1,24.94c-21.19,0 -38.45,-17.26 -38.45,-38.45c0,-21.27 17.26,-38.54 38.45,-38.54c16.74,0 31.48,10.72 36.62,26.68c1.22,3.84 1.83,7.76 1.83,11.86c0.09,4.62 -0.69,9.15 -2.35,13.51z"/>
  </g>
 </g>
</svg>