<?xml version="1.0" encoding="utf-8"?>
<!-- Generator: Adobe Illustrator 24.3.0, SVG Export Plug-In . SVG Version: 6.00 Build 0)  -->
<svg version="1.1" id="Capa_1" xmlns="http://www.w3.org/2000/svg" xmlns:xlink="http://www.w3.org/1999/xlink" x="0px" y="0px"
	 viewBox="0 0 1080 1080" style="enable-background:new 0 0 1080 1080;" xml:space="preserve">
<style type="text/css">
	.st0{fill:#1E1E1C;}
	.st1{fill:url(#SVGID_1_);}
	.st2{fill:url(#SVGID_2_);}
	.st3{fill:url(#SVGID_3_);}
	.st4{fill:url(#SVGID_4_);}
	.st5{fill:url(#SVGID_5_);}
	.st6{fill:url(#SVGID_6_);}
	.st7{fill:#020203;}
	.st8{fill:url(#SVGID_7_);}
	.st9{fill:url(#SVGID_8_);}
	.st10{fill:url(#SVGID_9_);}
	.st11{fill:url(#SVGID_10_);}
	.st12{fill:url(#SVGID_11_);}
	.st13{fill:url(#SVGID_12_);}
	.st14{fill:url(#SVGID_13_);}
	.st15{fill:url(#SVGID_14_);}
	.st16{fill:url(#SVGID_15_);}
	.st17{fill:url(#SVGID_16_);}
	.st18{fill:url(#SVGID_17_);}
	.st19{fill:url(#SVGID_18_);}
	.st20{fill:url(#SVGID_19_);}
	.st21{fill:url(#SVGID_20_);}
	.st22{fill:url(#SVGID_21_);}
	.st23{fill:url(#SVGID_22_);}
	.st24{fill:url(#SVGID_23_);}
	.st25{fill:url(#SVGID_24_);}
	.st26{fill:url(#SVGID_25_);}
	.st27{fill:url(#SVGID_26_);}
	.st28{fill:url(#SVGID_27_);}
	.st29{fill:url(#SVGID_28_);}
	.st30{fill:url(#SVGID_29_);}
	.st31{fill:url(#SVGID_30_);}
	.st32{fill:url(#SVGID_31_);}
	.st33{fill:url(#SVGID_32_);}
	.st34{fill:url(#SVGID_33_);}
	.st35{fill:url(#SVGID_34_);}
	.st36{fill:url(#SVGID_35_);}
	.st37{fill:url(#SVGID_36_);}
	.st38{fill:url(#SVGID_37_);}
	.st39{fill:url(#SVGID_38_);}
	.st40{fill:url(#SVGID_39_);}
	.st41{fill:url(#SVGID_40_);}
	.st42{fill:url(#SVGID_41_);}
	.st43{fill:url(#SVGID_42_);}
	.st44{fill:url(#SVGID_43_);}
	.st45{fill:url(#SVGID_44_);}
	.st46{fill:url(#SVGID_45_);}
	.st47{fill:url(#SVGID_46_);}
	.st48{fill:url(#SVGID_47_);}
	.st49{fill:url(#SVGID_48_);}
	.st50{fill:url(#SVGID_49_);}
	.st51{fill:url(#SVGID_50_);}
	.st52{fill:url(#SVGID_51_);}
	.st53{fill:url(#SVGID_52_);}
	.st54{fill:url(#SVGID_53_);}
	.st55{fill:url(#SVGID_54_);}
	.st56{fill:url(#SVGID_55_);}
	.st57{fill:url(#SVGID_56_);}
	.st58{fill:url(#SVGID_57_);}
	.st59{fill:url(#SVGID_58_);}
	.st60{fill:url(#SVGID_59_);}
	.st61{fill:url(#SVGID_60_);}
	.st62{fill:url(#SVGID_61_);}
</style>
<g>
	<path d="M997.03,600.52c-11.86,0-21.97,7.5-25.9,18.05H721.85l-30.78-32.52h156.51c3.92,10.55,14.04,18.05,25.9,18.05
		c15.17,0,27.64-12.38,27.64-27.64s-12.38-27.64-27.64-27.64c-11.86,0-21.97,7.5-25.9,18.05H570.66c-0.61,0-1.22,0.09-1.74,0.17
		c-1.57-12.03-4.19-23.8-7.93-35.31c-1.22-3.75-2.62-7.5-4.01-11.16h15.43l23.72,27.99c1.83,2.18,4.45,3.4,7.32,3.4h28.95
		c3.14,0,6.1-1.57,7.93-4.19l18.48-27.2h20.05l17,17.96c1.83,1.92,4.27,2.96,6.98,2.96h32.61c3.49,0,6.71-1.92,8.37-4.97
		l13.51-25.11h26.33L825,544.98c3.31,2.7,8.11,2.88,11.6,0.35l34.35-24.76h32.44c3.92,10.46,14.04,17.96,25.81,17.96
		c15.17,0,27.64-12.38,27.64-27.55c0-15.26-12.38-27.64-27.64-27.64c-11.95,0-22.06,7.59-25.9,18.22h-35.4
		c-2.01,0-3.92,0.61-5.58,1.83l-30.95,22.32l-38.28-31.04c-1.66-1.4-3.84-2.09-6.02-2.09h-35.4c-3.49,0-6.71,1.92-8.37,4.97
		l-13.51,25.11h-22.76l-17-17.96c-1.83-1.92-4.27-2.96-6.98-2.96h-29.21c-3.14,0-6.1,1.57-7.93,4.19l-18.48,27.2h-19.44
		l-23.72-27.99c-1.83-2.18-4.45-3.4-7.32-3.4h-23.98c-1.4,0-2.79,0.35-4.01,0.87c-32.87-64-98.96-105.24-172.9-105.24
		c-107.25,0-194.52,87.28-194.52,194.61s87.28,194.61,194.52,194.61c69.23,0,132.88-37.32,167.5-95.56l329.85-0.09
		c3.92,10.38,14.04,17.87,25.81,17.87c15.17,0,27.64-12.38,27.64-27.64c0-15.26-12.38-27.55-27.64-27.55
		c-11.95,0-22.15,7.67-25.98,18.31l-319.82,0.09c1.74-3.84,3.31-7.67,4.8-11.6c2.53-6.8,4.62-13.6,6.45-20.58h56.41
		c3.92,10.46,14.04,18.05,25.81,18.05c15.26,0,27.64-12.38,27.64-27.64c0-15.26-12.38-27.64-27.64-27.64
		c-11.86,0-21.97,7.5-25.9,18.05H568.4c1.4-9.42,2.09-18.92,2.09-28.6c0-1.92-0.09-3.92-0.09-5.84c0.09,0,0.17,0,0.26,0h94.08
		l45.86,48.48c1.83,1.92,4.36,3.05,6.98,3.05h253.64c3.92,10.55,14.04,18.05,25.9,18.05c15.17,0,27.64-12.38,27.64-27.64
		C1024.76,612.9,1012.29,600.52,997.03,600.52z M929.2,502.52c4.71,0,8.54,3.84,8.54,8.54c0,4.71-3.84,8.54-8.54,8.54
		c-4.71,0-8.54-3.84-8.54-8.54C920.65,506.35,924.57,502.52,929.2,502.52z M899.11,672.54c4.71,0,8.54,3.84,8.54,8.54
		s-3.84,8.54-8.54,8.54c-4.71,0-8.54-3.84-8.54-8.54S894.41,672.54,899.11,672.54z M646.87,621.44c4.71,0,8.54,3.84,8.54,8.54
		s-3.84,8.54-8.54,8.54c-4.71,0-8.54-3.84-8.54-8.54S642.16,621.44,646.87,621.44z M375.96,767.32
		c-96.7,0-175.43-78.73-175.43-175.52s78.65-175.52,175.43-175.52c76.38,0,143.52,48.74,166.97,121.37
		c5.67,17.35,8.54,35.57,8.54,54.15c0,11.07-1.05,21.97-3.05,32.7c-1.05,1.57-1.66,3.4-1.66,5.41c0,0.61,0.09,1.22,0.17,1.83
		c-1.74,7.32-3.84,14.56-6.54,21.62C514.77,721.54,448.77,767.32,375.96,767.32z M873.48,568c4.71,0,8.54,3.84,8.54,8.54
		s-3.84,8.54-8.54,8.54c-4.71,0-8.54-3.84-8.54-8.54S868.77,568,873.48,568z M997.03,636.62c-4.71,0-8.54-3.84-8.54-8.54
		s3.84-8.54,8.54-8.54c4.71,0,8.54,3.84,8.54,8.54S1001.74,636.62,997.03,636.62z"/>
	<path d="M279.7,530.16c-31.74,0-57.55,25.81-57.55,57.63c0,31.74,25.81,57.55,57.55,57.55c23.89,0,45.6-15,53.97-37.41
		c2.44-6.45,3.66-13.25,3.66-20.23c0-6.1-0.96-12.03-2.79-17.79C326.79,546.2,304.82,530.16,279.7,530.16z M315.8,601.3
		c-5.58,14.91-20.05,24.94-36.1,24.94c-21.19,0-38.45-17.26-38.45-38.45c0-21.27,17.26-38.54,38.45-38.54
		c16.74,0,31.48,10.72,36.62,26.68c1.22,3.84,1.83,7.76,1.83,11.86C318.24,592.41,317.46,596.94,315.8,601.3z"/>
</g>
</svg>
