<svg id="Capa_1" data-name="Capa 1" xmlns="http://www.w3.org/2000/svg" viewBox="0 0 1080 1080"><polygon points="831.64 573.15 831.64 253.86 248.36 253.86 248.36 707.58 444.44 707.58 444.44 769.25 390.14 826.14 691.17 826.14 636.87 769.25 636.87 738.73 617.87 738.73 617.87 776.87 646.77 807.14 434.55 807.14 463.44 776.87 463.44 707.58 831.64 707.58 831.64 612.11 315.08 612.11 315.08 631.11 812.64 631.11 812.64 688.58 267.36 688.58 267.36 272.86 812.64 272.86 812.64 573.15 831.64 573.15"/><path d="M666.36,512.73a9.51,9.51,0,0,0,13.44,0l63.91-63.91L679.3,384.41a9.5,9.5,0,1,0-13.44,13.44l51,51-50.48,50.47A9.51,9.51,0,0,0,666.36,512.73Z"/><path d="M414.14,384.41a9.51,9.51,0,0,0-13.44,0l-64.4,64.41,63.9,63.91a9.5,9.5,0,0,0,13.44-13.44l-50.48-50.47,51-51A9.51,9.51,0,0,0,414.14,384.41Z"/><path d="M635.22,586.59,603.36,544A23,23,0,0,0,606,533.16c.07-7.07-2.67-15-9-16.71h0c-.44-.12-4.34-.21-10.43-.27L576.19,405.6l42.42-13.38V318.9H579.93v27.39H569.5V321.86H508.07v24.43H497.63V318.9H459v73.32l44.15,13.92-10.38,110c-5.73,0-9.26.05-9.38.07-5.92,1-10,7.54-10,16.37a21.82,21.82,0,0,0,3,11.86l-31.54,42.13Zm-170.46-10,20.2-27c3,0,12.32.1,42.21.1H540c39,0,51-.08,55-.22l20.29,27.11ZM469,328.9h18.67v27.39h30.44V331.86H559.5v24.43h30.43V328.9h18.68v56l-40.24,12.69H509.19L469,384.89ZM513,407.58h53.32L576.58,516.1c-21-.1-53.25-.06-73.81,0ZM485.08,526.14c9.56-.16,98.7-.09,109.29.08.62.8,1.71,3.15,1.67,6.84a11.53,11.53,0,0,1-1.66,6.46c-10.73.17-99.71.26-109.27.11-.6-.6-1.83-2.92-1.8-6.93C483.35,528.9,484.5,526.75,485.08,526.14Z"/></svg>