<svg width="1080" height="1080" xmlns="http://www.w3.org/2000/svg" xml:space="preserve" version="1.1">

 <g>
  <title>Layer 1</title>
  <g id="svg_1">
   <path id="svg_2" d="m952.36503,437.6c-11.68,0 -21.62,7.41 -25.46,17.7l-161.13,0l-23.02,-21.36l77.51,0c3.92,10.29 13.86,17.7 25.46,17.7c15,0 27.2,-12.21 27.2,-27.2s-12.21,-27.29 -27.2,-27.29c-11.68,0 -21.62,7.41 -25.46,17.7l-188.68,0l32.17,-42.99l-91.9,-91.9l-60.16,42.81c-10.03,-5.06 -20.4,-9.33 -31.04,-12.9l-12.21,-72.8l-129.82,0l-12.21,72.8c-10.64,3.57 -21.1,7.85 -31.04,12.9l-60.16,-42.81l-91.73,91.73l42.81,60.16c-4.97,9.94 -9.24,20.32 -12.82,31.04l-72.89,12.29l0,129.74l72.89,12.29c3.57,10.64 7.85,21.01 12.9,30.95l-42.9,60.07l91.73,91.81l60.16,-42.9c10.03,4.97 20.4,9.33 30.95,12.9l12.21,72.89l129.74,0l12.21,-72.89c10.64,-3.57 21.01,-7.85 31.04,-12.9l60.16,42.9l91.73,-91.81l-43.16,-60.51c0.35,-1.05 0.78,-2.18 1.13,-3.31l51.27,0l36.79,43.6l110.66,0c3.92,10.29 13.86,17.7 25.46,17.7c15,0 27.2,-12.21 27.2,-27.2c0,-15 -12.21,-27.2 -27.2,-27.2c-11.68,0 -21.62,7.41 -25.46,17.7l-101.75,0l-20.66,-24.5l47.78,0c3.84,10.29 13.86,17.7 25.46,17.7c15,0 27.2,-12.21 27.2,-27.2s-12.21,-27.2 -27.2,-27.2c-11.68,0 -21.62,7.41 -25.46,17.7l-130.96,0l21.1,-23.19l234.2,0c3.84,10.29 13.86,17.7 25.46,17.7c15,0 27.2,-12.21 27.2,-27.2c0,-15 -12.21,-27.2 -27.2,-27.2c-11.68,0 -21.62,7.41 -25.46,17.7l-242.66,0l-38.54,42.29l-21.71,0c1.05,-1.92 2.01,-3.84 2.96,-5.84c11.86,-24.85 17.87,-51.53 17.87,-79.43c0,-1.22 -0.09,-2.44 -0.17,-3.66l180.84,0c3.92,10.29 13.86,17.7 25.46,17.7c15,0 27.2,-12.21 27.2,-27.2s-12.21,-27.2 -27.2,-27.2c-11.68,0 -21.62,7.41 -25.46,17.7l-182.14,0c-1.48,-12.03 -4.19,-23.72 -7.93,-35.14l74.64,0c3.92,10.29 13.86,17.7 25.46,17.7c15,0 27.2,-12.21 27.2,-27.2s-12.21,-27.2 -27.2,-27.2c-11.68,0 -21.62,7.41 -25.46,17.7l-82.13,0c-3.31,-7.15 -7.06,-14.13 -11.25,-20.84c-1.48,-2.53 -3.31,-5.23 -5.41,-8.2c0,0 0,0 0,-0.09l160.35,0l43.6,40.46l168.63,0c3.84,10.29 13.86,17.7 25.46,17.7c15,0 27.2,-12.21 27.2,-27.2s-12.05,-27.77 -27.05,-27.77zm-106.63,232.71c4.53,0 8.11,3.66 8.11,8.2c0,4.53 -3.66,8.2 -8.11,8.2c-4.53,0 -8.11,-3.66 -8.11,-8.2c-0.09,-4.53 3.57,-8.2 8.11,-8.2zm49.61,-85.97c4.53,0 8.11,3.66 8.11,8.2c0,4.53 -3.66,8.2 -8.11,8.2c-4.53,0 -8.11,-3.66 -8.11,-8.2c-0.09,-4.54 3.58,-8.2 8.11,-8.2zm-101.32,-65.74c4.53,0 8.11,3.66 8.11,8.2c0,4.53 -3.66,8.2 -8.11,8.2c-4.53,0 -8.11,-3.66 -8.11,-8.2c0,-4.54 3.67,-8.2 8.11,-8.2zm-115.44,-54.23c4.53,0 8.11,3.66 8.11,8.2c0,4.53 -3.66,8.2 -8.11,8.2c-4.53,0 -8.11,-3.66 -8.11,-8.2c0,-4.54 3.66,-8.2 8.11,-8.2zm167.15,-48.13c4.53,0 8.11,3.66 8.11,8.2c0,4.45 -3.66,8.2 -8.11,8.2c-4.53,0 -8.11,-3.66 -8.11,-8.2c-0.09,-4.54 3.57,-8.2 8.11,-8.2zm-74.73,210.39c4.53,0 8.11,3.66 8.11,8.2s-3.66,8.2 -8.11,8.2c-4.53,0 -8.11,-3.66 -8.11,-8.2s3.58,-8.2 8.11,-8.2zm-202.28,-86.67c0,24.94 -5.41,48.91 -15.96,71.06c-1.22,2.53 -2.53,5.06 -3.84,7.41c-28.95,53.54 -84.66,86.76 -145.44,86.76c-91.12,0 -165.23,-74.11 -165.23,-165.23s74.11,-165.23 165.23,-165.23c53.71,0 104.28,26.24 135.23,70.28c1.83,2.53 3.31,4.8 4.71,7.06c16.58,26.25 25.3,56.68 25.3,87.89zm-165.14,-184.32c-101.58,0 -184.32,82.66 -184.32,184.32s82.66,184.41 184.32,184.41c61.12,0 117.62,-30.26 151.8,-79.95l45.78,0l0,0.09l-2.79,5.23l40.37,56.5l-68.88,68.97l-56.59,-40.37l-5.23,2.79c-12.29,6.54 -25.29,11.95 -38.54,16.04l-5.67,1.74l-11.51,68.45l-97.48,0l-11.51,-68.45l-5.67,-1.74c-13.34,-4.1 -26.33,-9.5 -38.54,-16.04l-5.23,-2.79l-56.59,40.37l-68.88,-68.97l40.37,-56.5l-2.79,-5.23c-6.54,-12.29 -11.95,-25.29 -16.04,-38.54l-1.74,-5.67l-68.45,-11.51l0,-97.39l68.45,-11.51l1.74,-5.67c4.19,-13.51 9.5,-26.51 15.96,-38.54l2.79,-5.23l-40.28,-56.59l68.88,-68.88l56.59,40.28l5.23,-2.79c12.21,-6.54 25.2,-11.95 38.54,-16.04l5.67,-1.74l11.42,-68.45l97.57,0l11.51,68.45l5.67,1.74c13.34,4.1 26.33,9.5 38.54,16.04l5.23,2.79l56.59,-40.28l68.79,68.79l-30.87,41.24l-68.88,0c-34.8,-37.57 -83.71,-59.37 -135.33,-59.37zm548.78,117.36c-4.53,0 -8.11,-3.66 -8.11,-8.2s3.66,-8.2 8.11,-8.2c4.53,0 8.11,3.66 8.11,8.2s-3.66,8.2 -8.11,8.2z"/>
   <path id="svg_3" d="m401.14503,436.73c-12.21,1.31 -21.1,12.38 -19.79,24.59l13.95,128c0.44,3.75 3.4,6.89 7.32,7.32c4.53,0.52 8.63,-2.79 9.16,-7.32l13.95,-128c0.17,-1.57 0.17,-3.23 0,-4.8c-1.31,-12.29 -12.39,-21.19 -24.59,-19.79z"/>
   <circle id="svg_4" r="19.36" cy="639.88" cx="403.58503"/>
  </g>
 </g>
</svg>