<?xml version="1.0" encoding="utf-8"?>
<!-- Generator: Adobe Illustrator 24.3.0, SVG Export Plug-In . SVG Version: 6.00 Build 0)  -->
<svg version="1.1" id="Capa_1" xmlns="http://www.w3.org/2000/svg" xmlns:xlink="http://www.w3.org/1999/xlink" x="0px" y="0px"
	 viewBox="0 0 1080 1080" style="enable-background:new 0 0 1080 1080;" xml:space="preserve">
<style type="text/css">
	.st0{fill:#1E1E1C;}
	.st1{fill:url(#SVGID_1_);}
	.st2{fill:url(#SVGID_2_);}
	.st3{fill:url(#SVGID_3_);}
	.st4{fill:url(#SVGID_4_);}
	.st5{fill:url(#SVGID_5_);}
	.st6{fill:url(#SVGID_6_);}
	.st7{fill:#020203;}
	.st8{fill:url(#SVGID_7_);}
	.st9{fill:url(#SVGID_8_);}
	.st10{fill:url(#SVGID_9_);}
	.st11{fill:url(#SVGID_10_);}
	.st12{fill:url(#SVGID_11_);}
	.st13{fill:url(#SVGID_12_);}
	.st14{fill:url(#SVGID_13_);}
	.st15{fill:url(#SVGID_14_);}
	.st16{fill:url(#SVGID_15_);}
	.st17{fill:url(#SVGID_16_);}
	.st18{fill:url(#SVGID_17_);}
	.st19{fill:url(#SVGID_18_);}
	.st20{fill:url(#SVGID_19_);}
	.st21{fill:url(#SVGID_20_);}
	.st22{fill:url(#SVGID_21_);}
	.st23{fill:url(#SVGID_22_);}
	.st24{fill:url(#SVGID_23_);}
	.st25{fill:url(#SVGID_24_);}
	.st26{fill:url(#SVGID_25_);}
	.st27{fill:url(#SVGID_26_);}
	.st28{fill:url(#SVGID_27_);}
	.st29{fill:url(#SVGID_28_);}
	.st30{fill:url(#SVGID_29_);}
	.st31{fill:url(#SVGID_30_);}
	.st32{fill:url(#SVGID_31_);}
	.st33{fill:url(#SVGID_32_);}
	.st34{fill:url(#SVGID_33_);}
	.st35{fill:url(#SVGID_34_);}
	.st36{fill:url(#SVGID_35_);}
	.st37{fill:url(#SVGID_36_);}
	.st38{fill:url(#SVGID_37_);}
	.st39{fill:url(#SVGID_38_);}
	.st40{fill:url(#SVGID_39_);}
	.st41{fill:url(#SVGID_40_);}
	.st42{fill:url(#SVGID_41_);}
	.st43{fill:url(#SVGID_42_);}
	.st44{fill:url(#SVGID_43_);}
	.st45{fill:url(#SVGID_44_);}
	.st46{fill:url(#SVGID_45_);}
	.st47{fill:url(#SVGID_46_);}
	.st48{fill:url(#SVGID_47_);}
	.st49{fill:url(#SVGID_48_);}
	.st50{fill:url(#SVGID_49_);}
	.st51{fill:url(#SVGID_50_);}
	.st52{fill:url(#SVGID_51_);}
	.st53{fill:url(#SVGID_52_);}
	.st54{fill:url(#SVGID_53_);}
	.st55{fill:url(#SVGID_54_);}
	.st56{fill:url(#SVGID_55_);}
	.st57{fill:url(#SVGID_56_);}
	.st58{fill:url(#SVGID_57_);}
	.st59{fill:url(#SVGID_58_);}
	.st60{fill:url(#SVGID_59_);}
	.st61{fill:url(#SVGID_60_);}
	.st62{fill:url(#SVGID_61_);}
</style>
<g>
	<path d="M814.84,703.49c-44.21-34.88-88.32-69.75-132.53-104.54c1.13-1.57,2.27-3.05,3.4-4.62
		c24.41-34.88,37.32-76.12,37.32-119.37c-0.09-54.58-21.45-105.94-60.16-144.56c-38.71-38.63-90.24-59.9-145-60.07
		c-0.17,0-0.35,0-0.52,0c-54.93,0-106.64,21.36-145.52,60.25c-38.8,38.71-60.07,90.07-59.99,144.65c0,7.76,0.44,15.43,1.31,23.11
		c-9.33,1.92-19.44,3.49-30.95,4.8c-9.94,1.13-19.97,2.01-28.42,2.7c-5.23,0.44-9.24,4.8-9.24,10.03
		c0,76.29,9.16,142.04,27.2,195.31c14.65,43.25,35.23,78.56,61.12,104.98c44.99,45.86,90.24,48.91,92.07,49c0.17,0,0.35,0,0.52,0
		s0.35,0,0.52,0c1.92-0.09,47.17-3.05,92.07-49c12.56-12.73,23.98-27.81,34-44.82c0-0.09,0.09-0.17,0.09-0.17
		c0.44-0.78,0.96-1.66,1.4-2.44c0.78-1.4,1.66-2.79,2.44-4.36c0.44-0.78,0.87-1.48,1.22-2.27c9.68-17.96,18.05-38.19,24.85-59.99
		c2.09-6.54,4.01-13.34,5.75-20.14c0.26-0.87,0.44-1.83,0.7-2.7c0.52-2.01,1.05-4.1,1.57-6.28c0.44-1.74,0.78-3.4,1.22-5.14
		c17.61-6.71,34.09-15.78,49-26.85c35.92,45.08,72.89,92.34,111.08,138.63c12.12,14.65,30.34,17.18,48.48,11.86
		c18.83-5.49,30.78-18.48,34.53-37.58C838.39,733.57,831.32,716.48,814.84,703.49z M568.96,674.37c-0.26,0.96-0.44,1.83-0.7,2.7
		c-1.66,6.45-3.49,12.9-5.49,19.18c-6.45,20.58-14.3,39.58-23.37,56.41c-0.35,0.61-0.61,1.13-0.96,1.74
		c-0.09,0.17-0.17,0.35-0.26,0.52c-0.7,1.22-1.4,2.53-2.18,3.84c-0.52,0.87-1.05,1.74-1.48,2.62
		c-9.16,15.52-19.53,29.21-30.95,40.81c-36.62,37.49-73.33,42.46-78.21,42.99c-5.06-0.52-41.33-5.32-78.21-42.99
		c-36.97-37.75-80.91-116.31-82.57-277.01c6.28-0.52,12.99-1.22,19.79-2.01c22.58-2.62,40.98-6.28,57.72-11.42
		c30.43-9.42,57.72-24.68,83.36-46.65c25.46,21.8,52.66,37.06,82.83,46.47c25.98,8.11,51.7,11.25,77.86,13.6
		c-0.17,15.96-0.7,30.6-1.66,44.38c0,0.09,0,0.17,0,0.26c-0.09,2.62-0.35,5.23-0.61,8.02v0.35c0,0.09,0,0.09,0,0.17
		c-0.87,12.56-2.18,24.94-3.92,37.84c0,0.09,0,0.17,0,0.26c-0.26,2.79-0.7,5.58-1.13,8.37v0.09c-2.18,14.91-4.97,29.56-8.28,43.6
		C569.92,670.45,569.49,672.45,568.96,674.37z M597.13,505.83c-60.6-4.88-111.26-12.56-164.88-61.64c-3.84-3.49-9.77-3.49-13.6,0
		c-25.29,23.11-52.23,38.89-82.48,48.3c-1.05,0.35-2.18,0.7-3.23,0.96c-0.61-6.02-0.87-12.12-0.87-18.22
		c-0.09-49.18,19.18-95.47,54.06-130.35c35.05-35.05,81.7-54.32,131.31-54.32c0.17,0,0.35,0,0.44,0
		c101.93,0.26,184.85,83.01,185.02,184.41c0.09,74.03-41.33,138.9-106.72,169.15c0.96-5.32,1.83-10.81,2.62-16.22
		c0.44-2.88,0.96-6.02,1.31-9.16c1.74-12.99,3.05-26.07,4.01-38.8v-0.26c0.26-2.88,0.52-5.84,0.61-8.81
		c1.13-16.83,1.74-34.79,1.74-54.84C606.37,510.62,602.36,506.26,597.13,505.83z"/>
	<path d="M477.06,610.63l-69.93,74.46l-31.3-21.45c-1.31-0.96-2.96,0.87-2.01,2.09l31.56,40.72c1.66,2.09,4.88,2.09,6.45-0.09
		l67.4-93.91C480.38,611.07,478.2,609.32,477.06,610.63z"/>
	<path d="M425.36,559.8c-56.06,0-101.67,45.6-101.67,101.67s45.6,101.67,101.67,101.67s101.67-45.69,101.67-101.67
		S481.42,559.8,425.36,559.8z M425.36,742.9c-44.9,0-81.44-36.53-81.44-81.44s36.53-81.44,81.44-81.44s81.44,36.53,81.44,81.44
		S470.26,742.9,425.36,742.9z"/>
</g>
</svg>
