<svg width="1080" height="1080" xmlns="http://www.w3.org/2000/svg" xml:space="preserve" version="1.1">

 <g>
  <title>Layer 1</title>
  <path id="svg_1" d="m711.72001,317.96999l20.66,81.44c-37.84,-15.35 -76.03,-30.69 -120.32,-48.48c-34.09,-13.69 -63.13,-12.38 -88.67,3.84c-0.96,0.61 -1.92,1.31 -2.88,1.92l-162.09,0l9.77,-38.71l-197.93,-20.59l0,332.46l118.93,0l9.59,-37.84c38.89,33.74 159.65,138.11 200.63,169.15c25.29,19.18 44.21,21.45 54.32,21.45c1.92,0 3.57,-0.09 4.8,-0.17c0.52,0 0.96,-0.09 1.31,-0.09c10.55,0.17 22.84,-4.53 29.65,-17.09c7.24,5.06 18.4,9.68 30.34,9.68c8.02,0 16.48,-2.09 24.15,-7.5c14.91,-10.55 20.93,-22.5 23.37,-31.48c5.67,2.09 11.68,3.23 17.87,3.23c14.65,0 29.12,-6.19 39.76,-16.92c5.49,-5.58 10.55,-13.34 12.99,-21.45c2.44,0.35 5.32,0.7 8.63,0.7c2.96,0 6.19,-0.17 9.77,-0.7c13.69,-2.01 25.81,-12.21 32.44,-27.29c5.58,-12.82 5.14,-27.12 -1.22,-40.19c-0.17,-0.44 -0.52,-1.05 -2.53,-3.31l5.67,0l10.46,0l108.55,0l0,-332.64l-198.02,20.58zm-522.28,292.79l0,-292.18l154.94,16.13l-69.93,276.05l-85.01,0l0,0zm581.92,55.02c-3.05,6.98 -9.24,14.82 -17.7,16.04c-7.85,1.13 -13.34,0.17 -15.61,-0.44c-12.64,-12.29 -99.22,-96.09 -105.59,-102.45l-13.51,13.51c6.1,6.1 80.13,77.78 101.67,98.7c0,4.27 -3.4,12.12 -9.07,17.79c-7.06,7.15 -16.57,11.25 -26.16,11.25c-8.46,0 -16.48,-3.23 -22.58,-9.07c-16.83,-16.13 -33.48,-32.87 -49.61,-49c-2.27,-2.27 -8.54,-8.63 -15,-15.35c-7.32,-7.5 -14.91,-15.26 -17.44,-17.79l-13.51,13.51c2.53,2.53 10.03,10.2 17.26,17.61c6.54,6.71 12.82,13.17 15.17,15.43c16.22,16.22 32.96,33.05 49.96,49.35c0.17,0.17 0.35,0.35 0.52,0.44c-0.61,6.02 -3.05,16.74 -17,26.51c-12.47,8.72 -29.99,0.79 -34.53,-3.75c-25.63,-25.37 -51.18,-50.75 -76.73,-76.12c-0.26,-0.26 -2.18,-2.09 -4.45,-4.18c-2.79,-2.62 -6.1,-5.67 -6.63,-6.19l-13.78,13.17c0.44,0.44 4.19,3.92 7.41,6.98c2.01,1.83 3.75,3.49 4.01,3.75c22.06,21.97 44.21,43.86 66.35,65.83c-2.09,8.11 -6.8,12.29 -14.47,12.03c-0.7,0 -1.48,0 -2.62,0.09c-6.02,0.35 -22.15,1.13 -46.56,-17.44c-42.9,-32.52 -179.61,-150.93 -206.91,-174.64l49.52,-195.48l140.84,0c-19.97,16.39 -36.01,34.27 -48.65,54.32c-0.87,1.4 -1.83,2.88 -2.7,4.27c-6.89,10.55 -14.56,22.5 -13.95,36.71c0.44,8.81 3.49,15.87 9.24,20.93c10.38,9.24 25.55,8.2 32.35,7.76c20.84,-1.39 32.7,-16.31 43.16,-29.56l1.57,-1.92c1.31,-1.66 5.23,-6.54 8.2,-7.67c7.76,-2.96 15.96,-5.67 23.89,-8.2c5.49,-1.74 11.16,-3.57 16.74,-5.58c79.87,74.29 196.7,183.71 206.64,195.4c3.31,7.75 3.48,16.04 0.26,23.45zm-5.15,-55.02c-24.5,-23.89 -77.6,-74.29 -193.22,-181.79l-4.36,-4.01l-5.49,2.09c-7.06,2.62 -14.39,4.97 -21.54,7.32c-8.2,2.62 -16.65,5.32 -24.85,8.54c-6.89,2.62 -12.03,8.37 -16.22,13.6l-1.57,2.01c-9.16,11.51 -17,21.54 -29.73,22.32c-4.1,0.26 -13.69,0.87 -18.05,-2.96c-0.61,-0.61 -2.62,-2.35 -2.88,-7.59c-0.35,-8.02 5.32,-16.92 10.9,-25.37c0.96,-1.57 1.92,-3.05 2.88,-4.53c16.65,-26.59 40.11,-49.26 71.67,-69.4c20.23,-12.9 42.9,-13.6 71.24,-2.18c49.35,19.79 91.12,36.62 133.23,53.71l47.78,188.33l-19.79,-0.09l0,0zm124.43,0l-84.93,0l-69.93,-276.05l154.94,-16.13l0,292.18l-0.08,0z"/>
 </g>
</svg>