<svg width="1080" height="1080" xmlns="http://www.w3.org/2000/svg" xml:space="preserve" version="1.1">

 <g>
  <title>Layer 1</title>
  <g id="svg_1">
   <path id="svg_2" d="m447.37383,533.28998c90.07,0 163.31,-73.24 163.31,-163.31s-73.25,-163.31 -163.31,-163.31s-163.31,73.24 -163.31,163.31c0,89.98 73.24,163.31 163.31,163.31zm0,-307.53c79.52,0 144.21,64.7 144.21,144.21c0,79.52 -64.7,144.21 -144.21,144.21s-144.22,-64.68 -144.22,-144.2c0,-79.52 64.7,-144.22 144.22,-144.22z"/>
   <path id="svg_3" d="m852.11383,526.48998c-58.59,-4.71 -107.51,-12.12 -159.39,-59.64c-3.66,-3.31 -9.24,-3.31 -12.9,0c-51.88,47.52 -100.79,54.84 -159.39,59.64c-4.97,0.44 -8.81,4.53 -8.81,9.5c0,2.09 0.09,4.01 0.09,6.1c-2.35,-0.09 -4.8,-0.26 -7.15,-0.26l-114.48,0c-94.25,0 -170.9,76.64 -170.9,170.9l0,71.32l343.88,0l0,-3.14c9.94,17 21.1,32.09 33.83,45.08c43.33,44.29 86.93,47.26 88.76,47.34c0.17,0 0.35,0 0.52,0c0.17,0 0.35,0 0.52,0c1.83,-0.09 45.43,-3.05 88.85,-47.34c12.03,-12.29 23.02,-26.77 32.78,-43.33l1.31,-2.27c1.22,-2.09 2.44,-4.27 3.66,-6.54c12.21,-22.58 22.15,-48.57 29.56,-77.25c0.7,-2.79 1.48,-5.75 2.27,-8.81c3.4,-14.3 6.19,-29.03 8.28,-43.6c0.52,-2.96 0.96,-5.93 1.22,-8.81c1.74,-12.56 3.05,-25.29 3.92,-37.49c0.26,-3.05 0.52,-6.02 0.61,-8.81c1.13,-16.22 1.66,-34.09 1.66,-53.1c0.11,-4.96 -3.73,-9.15 -8.7,-9.49zm-613.74,238.38l0,-52.23c0,-83.7 68.1,-151.8 151.8,-151.8l114.48,0c2.44,0 4.97,0.17 7.41,0.26c2.35,83.62 16.57,151.71 42.46,203.77l-316.15,0l0,0zm601.79,-176.91c-0.09,2.7 -0.35,5.41 -0.61,8.28c-0.87,12.03 -2.09,24.33 -3.84,36.71c-0.35,2.7 -0.7,5.41 -1.13,8.28c-2.09,14.21 -4.8,28.34 -8.02,42.03c-0.7,2.88 -1.4,5.67 -2.18,8.46c-7.06,27.2 -16.39,51.79 -27.81,73.07c-1.13,2.09 -2.27,4.01 -3.4,6.02l-1.22,2.18c-8.89,15.08 -19.01,28.34 -29.91,39.58c-35.49,36.18 -70.97,41.07 -75.68,41.59c-10.11,-1.05 -152.59,-21.19 -155.46,-309.44c45.6,-3.84 100.36,-10.9 155.46,-58.07c55.11,47.26 109.86,54.23 155.46,58.07c-0.17,15.33 -0.78,29.81 -1.66,43.24z"/>
   <path id="svg_4" d="m638.49383,678.71998c-1.22,-0.87 -2.88,0.78 -1.92,2.01l30.52,39.32c1.57,2.09 4.71,2.01 6.19,-0.09l65.13,-90.68c1.05,-1.4 -1.05,-3.05 -2.18,-1.74l-67.49,71.93l-30.25,-20.75z"/>
   <path id="svg_5" d="m588.35383,676.62998c0,54.06 43.94,98 98,98c53.97,0 98,-43.94 98,-98c0,-54.06 -43.94,-98 -98,-98s-98,43.94 -98,98zm176.83,0c0,43.51 -35.4,78.91 -78.91,78.91c-43.51,0 -78.91,-35.4 -78.91,-78.91c0,-43.51 35.4,-78.91 78.91,-78.91c43.51,0 78.91,35.4 78.91,78.91z"/>
  </g>
 </g>
</svg>