<svg width="1080" height="1080" xmlns="http://www.w3.org/2000/svg" xml:space="preserve" version="1.1">

 <g>
  <title>Layer 1</title>
  <g id="svg_1">
   <path id="svg_2" d="m736.61499,356.29002l0,-88.67l-47.35,-7.93c-2.01,-5.58 -4.27,-11.07 -6.8,-16.3l27.9,-39.24l-62.6,-62.6l-39.15,27.9c-0.44,-0.17 -0.78,-0.35 -1.13,-0.52c-2.35,-1.13 -4.71,-2.18 -6.89,-3.14l-1.83,-0.7l0,0c-2.01,-0.78 -4.19,-1.57 -6.45,-2.44l-6.45,-38.28l-1.48,-9.07l-88.67,0l-7.85,47.26c-5.67,1.92 -11.25,4.27 -16.57,6.8l-39.06,-27.9l-62.6,62.78l27.81,39.06c-2.53,5.23 -4.8,10.64 -6.8,16.3l-47.26,7.93l0,88.67l47.26,7.93c2.01,5.67 4.27,11.16 6.8,16.39l-27.9,39.06l62.6,62.6l12.12,-8.63l0,299.85l1.4,0l94.34,191.3l94.25,-191.3l1.4,0l0,-299.57l11.95,8.54l62.78,-62.6l-27.81,-39.06c2.62,-5.32 4.88,-10.81 6.8,-16.48l47.24,-7.94zm-265.41,98.18c5.32,2.53 10.81,4.8 16.39,6.8l7.93,47.26l5.41,0l0,245.71l-37.67,0l0,-294.19l7.94,-5.58zm48.91,54.06l39.67,0l0,245.71l-39.67,0l0,-245.71zm47.78,356.18c-0.17,0.44 -0.44,0.79 -0.7,1.13l-54.58,0c-0.17,-0.44 -0.52,-0.79 -0.7,-1.13l-44.99,-91.29l34.09,0l77.86,0l34.1,0l-45.08,91.29zm48.66,-110.39l-37.67,0l0,-245.71l5.41,0l7.93,-47.26c5.58,-1.92 11.16,-4.18 16.48,-6.8l7.85,5.67l0,294.1zm68.88,-336.65l-39.85,39.76l-35.4,-25.29l-5.23,2.88c-7.59,4.1 -15.61,7.41 -23.89,9.94l-5.67,1.74l-7.24,42.9l-56.33,0l-7.24,-42.9l-5.67,-1.74c-8.46,-2.62 -16.48,-5.93 -23.98,-9.94l-5.23,-2.79l-35.4,25.29l-39.76,-39.76l25.29,-35.49l-2.79,-5.23c-4.01,-7.5 -7.32,-15.61 -9.94,-23.98l-1.74,-5.67l-42.9,-7.24l0,-56.33l42.9,-7.24l1.74,-5.67c2.62,-8.54 5.93,-16.48 9.94,-23.8l2.88,-5.23l-25.29,-35.49l39.76,-39.85l35.4,25.29l5.23,-2.79c7.5,-4.01 15.61,-7.41 24.07,-9.94l5.67,-1.74l7.15,-42.9l56.33,0l6.1,37.06l1.4,8.02l6.54,0c4.19,1.4 7.67,2.7 10.9,4.01l1.57,0.61c1.4,0.61 2.88,1.31 4.62,2.09c1.4,0.61 2.79,1.31 4.19,2.01l6.89,3.49l35.31,-25.2l39.76,39.76l-25.29,35.57l2.79,5.23c4.01,7.41 7.32,15.52 9.94,23.89l1.74,5.58l42.81,7.24l0,56.33l-42.9,7.24l-1.66,5.67c-2.44,8.28 -5.75,16.3 -9.94,23.89l-2.88,5.23l25.3,35.49z"/>
   <path id="svg_3" d="m539.90499,190.89002c-66.79,0 -121.02,54.32 -121.02,121.02c0,28.08 9.77,55.37 27.55,76.82c16.04,19.53 37.32,33.39 61.56,40.02c10.11,2.79 20.93,4.27 31.91,4.27c10.99,0 21.8,-1.4 31.91,-4.27c11.86,-3.23 23.02,-8.2 33.22,-14.74c10.64,-6.8 20.23,-15.26 28.34,-25.2l0,0l0,0c1.31,-1.57 2.44,-3.23 3.57,-4.8c0.87,-1.22 1.83,-2.27 2.62,-3.49c0.61,-0.96 1.13,-1.92 1.74,-2.79c1.31,-2.01 2.62,-3.92 3.75,-5.93c0.35,-0.52 0.61,-1.13 0.87,-1.74c7.93,-14.56 12.9,-30.78 14.39,-47.52c0.35,-3.49 0.44,-6.98 0.44,-10.46c0.26,-66.87 -54.06,-121.19 -120.85,-121.19zm0,222.95c-9.16,0 -18.4,-1.22 -26.86,-3.57c-20.49,-5.58 -38.36,-17.26 -51.88,-33.74c-14.91,-18.05 -23.19,-40.98 -23.19,-64.61c0,-56.24 45.78,-101.93 101.93,-101.93c56.24,0 101.93,45.78 101.93,101.93c0,3.14 -0.17,6.28 -0.44,9.42c-1.92,20.23 -9.77,39.58 -22.76,55.28c-5.06,6.19 -10.72,11.68 -16.92,16.39c-10.38,7.93 -22.15,13.78 -34.96,17.26c-4.27,1.22 -8.63,2.09 -13.17,2.62c-4.43,0.69 -9.06,0.95 -13.68,0.95z"/>
  </g>
 </g>
</svg>