<?xml version="1.0" encoding="utf-8"?>
<!-- Generator: Adobe Illustrator 24.3.0, SVG Export Plug-In . SVG Version: 6.00 Build 0)  -->
<svg version="1.1" id="Capa_1" xmlns="http://www.w3.org/2000/svg" xmlns:xlink="http://www.w3.org/1999/xlink" x="0px" y="0px"
	 viewBox="0 0 1080 1080" style="enable-background:new 0 0 1080 1080;" xml:space="preserve">
<style type="text/css">
	.st0{fill:#1E1E1C;}
	.st1{fill:url(#SVGID_1_);}
	.st2{fill:url(#SVGID_2_);}
	.st3{fill:url(#SVGID_3_);}
	.st4{fill:url(#SVGID_4_);}
	.st5{fill:url(#SVGID_5_);}
	.st6{fill:url(#SVGID_6_);}
	.st7{fill:#020203;}
	.st8{fill:url(#SVGID_7_);}
	.st9{fill:url(#SVGID_8_);}
	.st10{fill:url(#SVGID_9_);}
	.st11{fill:url(#SVGID_10_);}
	.st12{fill:url(#SVGID_11_);}
	.st13{fill:url(#SVGID_12_);}
	.st14{fill:url(#SVGID_13_);}
	.st15{fill:url(#SVGID_14_);}
	.st16{fill:url(#SVGID_15_);}
	.st17{fill:url(#SVGID_16_);}
	.st18{fill:url(#SVGID_17_);}
	.st19{fill:url(#SVGID_18_);}
	.st20{fill:url(#SVGID_19_);}
	.st21{fill:url(#SVGID_20_);}
	.st22{fill:url(#SVGID_21_);}
	.st23{fill:url(#SVGID_22_);}
	.st24{fill:url(#SVGID_23_);}
	.st25{fill:url(#SVGID_24_);}
	.st26{fill:url(#SVGID_25_);}
	.st27{fill:url(#SVGID_26_);}
	.st28{fill:url(#SVGID_27_);}
	.st29{fill:url(#SVGID_28_);}
	.st30{fill:url(#SVGID_29_);}
	.st31{fill:url(#SVGID_30_);}
	.st32{fill:url(#SVGID_31_);}
	.st33{fill:url(#SVGID_32_);}
	.st34{fill:url(#SVGID_33_);}
	.st35{fill:url(#SVGID_34_);}
	.st36{fill:url(#SVGID_35_);}
	.st37{fill:url(#SVGID_36_);}
	.st38{fill:url(#SVGID_37_);}
	.st39{fill:url(#SVGID_38_);}
	.st40{fill:url(#SVGID_39_);}
	.st41{fill:url(#SVGID_40_);}
	.st42{fill:url(#SVGID_41_);}
	.st43{fill:url(#SVGID_42_);}
	.st44{fill:url(#SVGID_43_);}
	.st45{fill:url(#SVGID_44_);}
	.st46{fill:url(#SVGID_45_);}
	.st47{fill:url(#SVGID_46_);}
	.st48{fill:url(#SVGID_47_);}
	.st49{fill:url(#SVGID_48_);}
	.st50{fill:url(#SVGID_49_);}
	.st51{fill:url(#SVGID_50_);}
	.st52{fill:url(#SVGID_51_);}
	.st53{fill:url(#SVGID_52_);}
	.st54{fill:url(#SVGID_53_);}
	.st55{fill:url(#SVGID_54_);}
	.st56{fill:url(#SVGID_55_);}
	.st57{fill:url(#SVGID_56_);}
	.st58{fill:url(#SVGID_57_);}
	.st59{fill:url(#SVGID_58_);}
	.st60{fill:url(#SVGID_59_);}
	.st61{fill:url(#SVGID_60_);}
	.st62{fill:url(#SVGID_61_);}
</style>
<g>
	<path d="M900.36,472.52c0-21.62,0-43.86-0.35-65.83c-0.26-15-6.8-28.77-19.01-39.76c-11.6-10.38-24.41-15.78-38.36-16.13h-35.57
		l0,0H611.4c-62.17,0-124.34,0-186.5-0.09c-0.09,0-0.09,0-0.17,0c-21.97,0-38.45,7.32-50.22,22.5
		c-10.46,13.43-11.77,28.69-11.86,39.06c-0.78,102.45-2.35,326.62-2.7,375.19h-77.16l-0.17,9.42c-0.09,2.44-1.05,59.64,1.13,77.6
		c4.88,39.41,40.54,69.06,83.09,69.06c0.17,0,0.35,0,0.52,0c93.64-0.61,322.26-0.26,350.07-0.17h0.09c0,0,0,0,0.09,0
		c1.57,0,2.53,0,2.62,0v-0.17c21.62-0.7,42.99-9.59,57.2-26.33c14.3-16.83,21.19-36.1,21.19-58.85
		c-0.09-83.27-0.09-166.54-0.09-249.8c0-33.39,0-66.7,0-100.1h91.9l7.5-0.44l1.83-7.15c0.26-0.87,0.78-2.35,0.78-4.27L900.36,472.52
		z M367.18,924.44c-0.17,0-0.26,0-0.44,0c-32.87,0-60.42-22.41-64.17-52.31c-1.57-12.56-1.4-48.39-1.13-65.57h73.76v-0.17
		c35.23,0,217.54,0.09,261.49,0.09c0,14.74,0,42.29-0.09,51.97c-0.17,26.51,9.85,48.48,29.38,65.66
		C585.94,924.09,437.98,924,367.18,924.44z M762.77,904.56c-19.36,22.76-58.33,26.42-81.7,7.59c-17.26-13.86-25.55-31.3-25.46-53.45
		c0.09-13.43,0.09-61.56,0.09-61.56v-9.59h-9.59c0,0-218.5-0.09-267.33-0.09c0.35-48.91,1.92-272.65,2.7-374.92
		c0.09-12.12,2.53-20.58,7.85-27.38c8.2-10.46,19.09-15.17,35.23-15.17h0.09c62.17,0.09,124.34,0.09,186.59,0.09h179.88
		c-8.11,13.43-12.03,28.6-12.03,46.3c0.09,64,0.09,127.91,0.09,191.91c0,83.27,0,166.54,0.09,249.8
		C779.42,876.13,774.02,891.3,762.77,904.56z M798.34,489c0-24.24,0-48.48,0-72.72c0-14.82,3.31-27.29,10.2-38.02
		c1.66-2.53,3.4-4.97,5.41-7.76c0.17-0.17,0.35-0.44,0.44-0.7h27.99c9.07,0.17,17.79,4.01,25.9,11.25
		c8.28,7.41,12.47,16.04,12.64,25.81c0.35,21.8,0.35,44.03,0.35,65.57v16.48L798.34,489L798.34,489z"/>
	<path d="M722.14,708.38H434.49c-5.23,0-9.5,4.27-9.5,9.59s4.27,9.59,9.5,9.59h287.65c5.23,0,9.59-4.27,9.59-9.59
		S727.37,708.38,722.14,708.38z"/>
	<path d="M722.14,750.66H434.49c-5.23,0-9.5,4.27-9.5,9.59c0,5.32,4.27,9.59,9.5,9.59h287.65c5.23,0,9.59-4.27,9.59-9.59
		C731.73,754.94,727.37,750.66,722.14,750.66z"/>
	<path d="M577.75,677.07c0.17,0,0.35,0,0.52,0s0.35,0,0.52,0c1.31-0.09,32-2.18,62.25-32.96c8.37-8.54,15.96-18.57,22.67-29.99
		l0.87-1.48c0.87-1.48,1.74-2.96,2.53-4.53c8.37-15.52,15.17-33.39,20.23-53.1c0.52-1.92,1.05-3.92,1.57-6.02
		c2.27-9.77,4.18-19.79,5.67-29.73c0.35-2.09,0.61-4.18,0.87-6.1c1.13-8.63,2.09-17.26,2.62-25.55c0.17-2.09,0.35-4.19,0.44-6.02
		c0.78-11.07,1.13-23.28,1.13-36.18c0-4.97-3.84-9.16-8.81-9.5c-39.06-3.14-71.76-8.11-106.2-39.58c-3.66-3.31-9.24-3.31-12.9,0
		c-34.44,31.48-67.14,36.45-106.2,39.58c-4.97,0.44-8.81,4.53-8.81,9.5C456.9,667.74,572.78,676.81,577.75,677.07z M578.27,416.02
		c36.27,30.17,72.02,35.49,102.28,38.19c-0.09,9.24-0.52,18.05-1.05,26.33c-0.09,1.74-0.17,3.57-0.44,5.58
		c-0.61,8.11-1.4,16.39-2.62,24.76c-0.17,1.83-0.44,3.57-0.78,5.49c-1.4,9.59-3.23,19.09-5.32,28.16c-0.52,1.92-0.96,3.84-1.48,5.75
		c-4.71,18.22-10.99,34.62-18.66,48.83c-0.78,1.4-1.48,2.7-2.27,4.01l-0.87,1.48c-5.93,10.03-12.56,18.83-19.88,26.16
		c-23.02,23.45-45.34,26.85-49.09,27.2c-9.16-0.96-99.49-15.08-102.28-203.77C506.25,451.51,542.09,446.19,578.27,416.02z"/>
	<path d="M612.1,507.49l-45.78,48.74l-20.49-14.04c-0.87-0.61-1.92,0.52-1.31,1.4l20.66,26.68c1.05,1.4,3.23,1.31,4.18-0.09
		l44.12-61.47C614.28,507.75,612.89,506.61,612.1,507.49z"/>
	<path d="M647.76,540.71c0-38.28-31.13-69.49-69.49-69.49s-69.49,31.13-69.49,69.49s31.13,69.49,69.49,69.49
		C616.64,610.2,647.76,579.07,647.76,540.71z M527.87,540.71c0-27.81,22.58-50.4,50.4-50.4s50.4,22.58,50.4,50.4
		c0,27.81-22.58,50.4-50.4,50.4C550.54,591.1,527.87,568.52,527.87,540.71z"/>
</g>
</svg>
