<svg width="1080" height="1080" xmlns="http://www.w3.org/2000/svg" xml:space="preserve" version="1.1">

 <g>
  <title>Layer 1</title>
  <g id="svg_1">
   <path id="svg_2" d="m718.30499,465.45998l0,-64.35c0,-36.18 0,-72.02 0,-107.86c0,-36.53 -22.84,-59.29 -59.46,-59.29c-79.08,0 -158.25,0 -237.34,0c-37.41,0 -59.73,22.5 -59.73,60.07c0,38.63 0,77.25 0,115.88l0,55.54l-76.9,0l0,380.59l510.25,0l0,-380.58l-76.82,0l0,0zm-337.52,-171.42c0,-26.85 14.04,-40.98 40.63,-40.98c79.08,0 158.25,0 237.34,0c26.07,0 40.37,14.3 40.37,40.2c0.09,35.84 0,71.67 0,107.86l0,64.35l-36.88,0l0,-12.99c0,-8.46 0,-17 0,-25.46l0,-3.4c0.09,-21.1 0.09,-42.9 -0.17,-64.52c-0.52,-38.97 -30.17,-68.71 -69.06,-69.06c-36.62,-0.35 -72.46,-0.35 -106.55,0c-38.8,0.44 -68.36,30.26 -68.79,69.32c-0.26,24.15 -0.17,48.57 -0.09,72.19c0,10.81 0.09,21.71 0.09,32.7l0,0.87l-36.97,0l0,-55.28c0.08,-38.55 0.08,-77.17 0.08,-115.8zm55.98,137.5c-0.09,-23.54 -0.09,-47.96 0.09,-71.93c0.26,-28.42 21.71,-50.14 49.87,-50.48c33.92,-0.35 69.67,-0.35 106.11,0c28.25,0.26 49.79,21.89 50.14,50.22c0.26,21.45 0.17,43.16 0.17,64.17l0,3.4c0,8.54 0,17 0,25.55l0,12.99l-206.3,0l0,-1.13c0.01,-10.99 0.01,-21.89 -0.08,-32.79zm339.18,395.42l-472.06,0l0,-342.49l339.35,0l75.16,0l57.63,0l0,342.49l-0.08,0z"/>
   <path id="svg_3" d="m540.08499,583.33998c-34.44,0 -62.52,27.9 -62.52,62.43c0,25.72 15.61,47.61 37.75,57.37l0,26.94c0,13.69 11.07,24.76 24.76,24.76c13.69,0 24.76,-11.07 24.76,-24.76l0,-26.94c22.06,-9.68 37.67,-31.56 37.67,-57.37c-0.08,-34.53 -27.98,-62.43 -62.42,-62.43z"/>
  </g>
 </g>
</svg>