<svg width="1080" height="1080" xmlns="http://www.w3.org/2000/svg" xml:space="preserve" version="1.1">

 <g>
  <title>Layer 1</title>
  <path id="svg_1" d="m791.18454,419.46548c-18.75,-17.26 -43.07,-26.16 -68.36,-25.02c-6.36,0.26 -12.82,1.22 -19.27,2.79c-7.85,-39.67 -40.81,-70.63 -81,-75.86c-6.02,-64.96 -62.6,-115.09 -128.35,-112.3c-32.96,1.4 -63.39,15.61 -85.8,39.93c-19.53,21.27 -30.78,48.04 -32.35,76.38c-12.38,-1.74 -24.76,0.17 -35.23,5.75c-14.65,7.59 -25.98,21.62 -30.43,37.49c-3.92,13.95 -4.01,27.55 -0.44,38.97c-33.05,16.74 -53.62,51.36 -51.97,88.93c1.05,25.37 11.95,48.83 30.69,66.09c18.83,17.26 43.16,26.16 68.1,25.02c0.87,0 9.85,0 21.36,0.09l42.11,0l0,20.05l-45.51,38.36l0,116.23c-10.64,3.14 -18.48,12.82 -18.48,24.5c0,14.13 11.51,25.63 25.63,25.63s25.63,-11.51 25.63,-25.63c0,-11.6 -7.85,-21.36 -18.48,-24.5l0,-109.6l31.21,-26.24l0,57.98c-10.64,3.14 -18.48,12.82 -18.48,24.5c0,14.13 11.51,25.63 25.63,25.63c14.12,0 25.63,-11.51 25.63,-25.63c0,-11.6 -7.85,-21.36 -18.48,-24.5l0,-96.78l29.82,0l0,226.44c-10.64,3.14 -18.48,12.82 -18.48,24.5c0,14.13 11.51,25.63 25.63,25.63s25.63,-11.51 25.63,-25.63c0,-11.6 -7.85,-21.36 -18.48,-24.5l0,-226.51l54.23,0l0,120.76c-10.64,3.14 -18.48,12.82 -18.48,24.5c0,14.13 11.51,25.63 25.63,25.63s25.63,-11.51 25.63,-25.63c0,-11.6 -7.85,-21.36 -18.48,-24.5l0,-120.84c9.33,-0.17 24.5,-0.44 42.29,-0.7l0,21.45c-10.64,3.14 -18.48,12.82 -18.48,24.5c0,14.13 11.51,25.63 25.63,25.63c14.12,0 25.63,-11.51 25.63,-25.63c0,-11.6 -7.85,-21.36 -18.48,-24.5l0,-21.62l35.84,-0.52l0,64.96l-42.2,45.51l0,124.25c-10.64,3.14 -18.48,12.82 -18.48,24.5c0,14.13 11.51,25.63 25.63,25.63c14.12,0 25.63,-11.51 25.63,-25.63c0,-11.6 -7.85,-21.36 -18.48,-24.5l0,-118.68l27.9,-30.08l0,65.39c-10.64,3.14 -18.48,12.82 -18.48,24.5c0,14.13 11.51,25.63 25.63,25.63s25.63,-11.51 25.63,-25.63c0,-11.6 -7.85,-21.36 -18.48,-24.5l0,-151.62c46.73,-0.7 74.29,-1.13 76.9,-1.22c25.55,-1.13 49,-12.03 66.09,-30.69c17.26,-18.66 26.16,-42.9 25.11,-68.53c-1.02,-25.38 -12.01,-48.83 -30.84,-66.01zm-398.03,367.34c0,6.28 -5.06,11.33 -11.33,11.33c-6.28,0 -11.33,-5.06 -11.33,-11.33c0,-6.19 5.06,-11.33 11.33,-11.33c6.27,-0.01 11.33,5.05 11.33,11.33zm45.51,-77.95c0,6.19 -5.06,11.33 -11.33,11.33c-6.28,0 -11.33,-5.06 -11.33,-11.33s5.06,-11.33 11.33,-11.33c6.28,-0.01 11.33,5.14 11.33,11.33zm44.12,129.65c0,6.28 -5.06,11.33 -11.33,11.33s-11.33,-5.06 -11.33,-11.33s5.06,-11.33 11.33,-11.33s11.33,5.14 11.33,11.33zm133.15,6.8c0,6.28 -5.06,11.33 -11.33,11.33c-6.28,0 -11.33,-5.06 -11.33,-11.33s5.06,-11.33 11.33,-11.33c6.18,0.09 11.33,5.14 11.33,11.33zm-64.61,-112.39c0,6.19 -5.06,11.33 -11.33,11.33s-11.33,-5.06 -11.33,-11.33s5.06,-11.33 11.33,-11.33s11.33,5.06 11.33,11.33zm56.58,-100.09c0,6.28 -5.06,11.33 -11.33,11.33s-11.33,-5.06 -11.33,-11.33c0,-6.19 5.06,-11.33 11.33,-11.33s11.33,5.05 11.33,11.33zm50.23,129.22c0,6.19 -5.06,11.33 -11.33,11.33s-11.33,-5.06 -11.33,-11.33c0,-6.28 5.06,-11.33 11.33,-11.33s11.33,5.13 11.33,11.33zm124.77,-221.04l0,0c-13.69,15 -32.44,23.72 -52.93,24.59c-3.05,0.17 -55.28,0.87 -83.27,1.31l-50.22,0.79c-24.33,0.35 -44.99,0.7 -54.06,0.87l-115.09,0l-49.26,0c-11.42,-0.09 -20.49,-0.09 -21.8,-0.09c-20.23,0.96 -39.67,-6.19 -54.76,-19.97c-15,-13.78 -23.63,-32.52 -24.5,-52.75c-1.4,-32.78 18.22,-62.69 48.91,-74.37l10.64,-4.1l-5.84,-9.77c-4.97,-8.28 -5.67,-20.58 -1.92,-33.74c3.05,-10.9 10.9,-20.49 20.93,-25.72c9.42,-4.97 21.36,-5.49 32.7,-1.57l13.25,4.62l-0.61,-14.04c-1.22,-27.81 8.54,-54.49 27.47,-75.16c18.92,-20.58 44.64,-32.61 72.46,-33.74c56.59,-2.35 105.5,41.76 108.81,98.53c0.44,6.98 5.84,12.56 12.9,13.25c35.14,3.05 64.17,30.52 68.88,65.66c0.7,4.19 3.05,7.76 6.45,9.94c3.49,2.18 7.76,2.7 11.68,1.57c6.71,-2.09 13.43,-3.23 19.88,-3.49c20.23,-0.87 39.67,6.28 54.67,20.05c15.08,13.78 23.8,32.52 24.68,52.75c0.87,20.32 -6.28,39.76 -20.05,54.58z"/>
 </g>
</svg>