<svg width="1080" height="1080" xmlns="http://www.w3.org/2000/svg" xml:space="preserve" version="1.1">

 <g>
  <title>Layer 1</title>
  <g id="svg_1">
   <path id="svg_2" d="m758.89144,425.28464c10.81,-17.09 7.59,-39.15 -7.5,-52.4l-22.23,-19.53c-4.62,-4.1 -7.32,-9.94 -7.41,-16.13l-0.17,-29.56c-0.17,-20.14 -14.74,-37.06 -34.7,-40.02l-29.21,-4.45c-6.1,-0.96 -11.51,-4.45 -14.91,-9.59l-16.13,-24.76c-10.99,-16.92 -32.44,-23.19 -50.83,-14.91l-26.94,12.12l0,0c-5.67,2.53 -12.12,2.53 -17.7,0l-26.94,-12.12c-18.4,-8.28 -39.76,-2.01 -50.83,14.91l-16.13,24.76c-3.4,5.14 -8.81,8.63 -14.91,9.59l-29.21,4.45c-19.97,3.05 -34.53,19.88 -34.7,40.02l-0.17,29.56c0,6.19 -2.7,12.03 -7.41,16.13l-22.23,19.53c-15.17,13.34 -18.31,35.4 -7.5,52.4l15.78,24.94c3.31,5.23 4.19,11.6 2.53,17.53l-8.11,28.42c-5.58,19.36 3.75,39.67 21.97,48.22l26.77,12.47c5.58,2.62 9.85,7.5 11.6,13.43l8.54,28.25c4.97,16.39 19.18,27.47 35.57,28.86l-78.59,204.71l64.7,-22.23l32.26,59.81l81.61,-212.75c1.4,0.17 2.79,0.26 4.19,0.26s2.79,-0.09 4.18,-0.26l81.61,212.75l32.26,-59.81l64.7,22.23l-78.56,-204.73c16.39,-1.31 30.6,-12.47 35.57,-28.86l8.54,-28.25c1.74,-5.93 6.02,-10.81 11.6,-13.43l26.77,-12.47c18.31,-8.54 27.55,-28.77 21.97,-48.22l-8.11,-28.42c-1.66,-5.93 -0.78,-12.29 2.53,-17.53l15.88,-24.92zm-307.7,398.81l-20.23,-37.49l-41.33,14.21l67.22,-175.26l17.09,-2.35c6.1,-0.87 12.29,0.96 17,4.97l22.5,19.18c1.4,1.22 2.88,2.18 4.36,3.14l-66.61,173.6zm197.75,-37.49l-20.23,37.49l-66.53,-173.51c1.48,-0.96 2.96,-2.01 4.36,-3.14l22.5,-19.18c4.71,-4.01 10.9,-5.84 17,-4.97l17.09,2.35l67.22,175.26l-41.41,-14.3zm78.03,-346.59c-6.19,9.77 -7.93,21.8 -4.71,33.05l8.11,28.42c2.96,10.29 -2.01,21.1 -11.68,25.63l-26.77,12.47c-10.55,4.88 -18.48,14.13 -21.8,25.2l-8.54,28.34c-3.05,10.29 -13.08,16.65 -23.72,15.26l-29.3,-4.01c-11.51,-1.57 -23.19,1.83 -32,9.42l-22.49,19.18c-8.2,6.98 -20.05,6.98 -28.16,0l-22.5,-19.18c-7.41,-6.36 -16.83,-9.77 -26.51,-9.77c-1.83,0 -3.66,0.09 -5.49,0.35l-29.3,4.01c-10.64,1.4 -20.58,-4.97 -23.72,-15.26l-8.54,-28.34c-3.4,-11.16 -11.33,-20.32 -21.8,-25.2l-26.77,-12.47c-9.77,-4.53 -14.65,-15.35 -11.68,-25.63l8.11,-28.42c3.23,-11.16 1.48,-23.19 -4.71,-33.05l-15.78,-24.94c-5.75,-9.07 -4.01,-20.84 4.01,-27.9l22.23,-19.53c8.72,-7.67 13.78,-18.75 13.86,-30.34l0.17,-29.56c0.09,-10.72 7.85,-19.71 18.48,-21.27l29.21,-4.45c11.51,-1.74 21.71,-8.28 28.08,-18.05l16.13,-24.76c5.84,-8.98 17.26,-12.29 27.03,-7.93l26.94,12.12c10.55,4.71 22.76,4.71 33.31,0l26.94,-12.12c9.77,-4.36 21.19,-1.05 27.03,7.93l16.13,24.76c6.36,9.68 16.57,16.31 28.08,18.05l29.21,4.45c10.64,1.57 18.4,10.55 18.48,21.27l0.17,29.56c0.09,11.6 5.14,22.67 13.86,30.34l22.23,19.53c8.02,7.06 9.77,18.83 4.01,27.9l-15.84,24.94z"/>
   <path id="svg_3" d="m613.54144,361.45464l-99.49,106.03l-44.47,-30.52c-1.83,-1.31 -4.27,1.22 -2.79,2.96l44.9,57.98c2.35,3.05 6.98,2.96 9.16,-0.17l95.91,-133.66c1.49,-2.01 -1.65,-4.45 -3.22,-2.62z"/>
   <path id="svg_4" d="m539.95144,293.97464c-77.08,0 -139.86,62.78 -139.86,139.86s62.69,139.86 139.86,139.86c77.08,0 139.86,-62.78 139.86,-139.86s-62.78,-139.86 -139.86,-139.86zm0,260.53c-66.61,0 -120.76,-54.15 -120.76,-120.76s54.15,-120.76 120.76,-120.76s120.76,54.15 120.76,120.76s-54.15,120.76 -120.76,120.76z"/>
  </g>
 </g>
</svg>