<svg width="1080" height="1080" xmlns="http://www.w3.org/2000/svg" xml:space="preserve" version="1.1">

 <g>
  <title>Layer 1</title>
  <g id="svg_1">
   <path id="svg_2" d="m680.07999,310.34c-59.12,0 -107.16,48.04 -107.16,107.25c0,59.12 48.13,107.25 107.16,107.25s107.16,-48.13 107.16,-107.25c-0.01,-59.12 -48.05,-107.25 -107.16,-107.25zm0,195.39c-48.57,0 -88.15,-39.5 -88.15,-88.15c0,-48.57 39.5,-88.06 88.15,-88.06s88.15,39.5 88.15,88.06c-0.09,48.57 -39.59,88.15 -88.15,88.15z"/>
   <path id="svg_3" d="m853.49999,457.43l0,-79.61l-41.76,-7.06c-1.57,-4.45 -3.4,-8.81 -5.49,-13.17l24.59,-34.53l-56.33,-56.33l-34.44,24.59c-4.27,-2.09 -8.72,-3.92 -13.25,-5.49l-6.98,-41.76l-79.69,0l-6.98,41.68c-4.53,1.57 -8.89,3.4 -13.25,5.49l-34.44,-24.5l-1.05,1.05l-357.93,0l0,450.52l194.61,0l0,61.03l-54.06,56.59l299.33,0l-54.06,-56.59l0,-30.26l-19.09,0l0,37.93l28.51,29.82l-210.04,0l28.51,-29.82l0,-68.71l365.42,0l0,-94.95l-512.77,0l0,19.1l493.68,0l0,56.76l-540.85,0l0,-412.24l319.73,0l-36.18,36.18l24.59,34.53c-2.01,4.27 -3.84,8.63 -5.49,13.17l-41.76,7.06l0,79.61l41.76,7.06c1.57,4.45 3.4,8.89 5.49,13.17l-24.59,34.44l56.33,56.33l34.53,-24.59c4.27,2.09 8.72,3.92 13.17,5.49l7.06,41.77l79.61,0l6.98,-41.77c4.53,-1.57 8.89,-3.4 13.25,-5.49l34.44,24.59l56.33,-56.33l-24.59,-34.44c2.09,-4.36 3.92,-8.72 5.49,-13.25l41.66,-7.07zm-47.52,52.58l-33.48,33.48l-30.78,-21.97l-5.23,2.79c-6.63,3.57 -13.6,6.45 -20.84,8.63l-5.67,1.74l-6.28,37.32l-47.34,0l-6.28,-37.32l-5.58,-1.74c-7.15,-2.18 -14.21,-5.14 -20.84,-8.63l-5.23,-2.79l-30.87,21.97l-33.48,-33.48l21.97,-30.87l-2.79,-5.23c-3.49,-6.63 -6.45,-13.6 -8.63,-20.84l-1.74,-5.67l-37.32,-6.28l0,-47.26l37.32,-6.28l1.74,-5.67c2.27,-7.24 5.14,-14.3 8.63,-20.84l2.79,-5.23l-21.97,-30.87l33.48,-33.48l30.87,21.97l5.23,-2.79c6.54,-3.49 13.6,-6.45 20.75,-8.63l5.67,-1.74l6.28,-37.32l47.35,0l6.28,37.32l5.67,1.74c6.63,2.01 13.17,4.71 19.44,7.85c0.44,0.26 0.87,0.44 1.4,0.7l5.23,2.79l30.87,-21.97l33.48,33.48l-21.97,30.78l2.7,5.23c3.57,6.71 6.45,13.78 8.63,20.84l1.74,5.67l37.32,6.28l0,47.34l-37.32,6.28l-1.74,5.67c-2.18,7.15 -5.06,14.13 -8.63,20.84l-2.79,5.23l21.96,30.96z"/>
   <path id="svg_4" d="m415.61999,514.63c1.83,1.83 4.27,2.79 6.71,2.79s4.88,-0.96 6.71,-2.79l63.48,-63.48l-64,-64c-3.75,-3.75 -9.77,-3.75 -13.51,0c-3.75,3.75 -3.75,9.77 0,13.51l50.48,50.48l-49.96,50.05c-3.66,3.67 -3.66,9.69 0.09,13.44z"/>
   <path id="svg_5" d="m354.93999,387.07c-3.75,-3.75 -9.77,-3.75 -13.51,0l-64,64l63.48,63.48c1.83,1.83 4.27,2.79 6.71,2.79s4.88,-0.96 6.71,-2.79c3.75,-3.75 3.75,-9.77 0,-13.51l-49.96,-49.96l50.48,-50.48c3.84,-3.77 3.84,-9.79 0.09,-13.53z"/>
  </g>
 </g>
</svg>